%TF.GenerationSoftware,KiCad,Pcbnew,10.0.6*%
%TF.CreationDate,2026-09-19T16:41:32-04:00*%
%TF.ProjectId,EPICS_Connect4,45504943-535f-4436-9f6e-6e656374342e,rev?*%
%TF.SameCoordinates,Original*%
%TF.FileFunction,Legend,Bot*%
%TF.FilePolarity,Positive*%
%FSLAX46Y46*%
G04 Gerber Fmt 4.6, Leading zero omitted, Abs format (unit mm)*
G04 Created by KiCad (PCBNEW 10.0.6) date 2026-09-19 16:41:32*
%MOMM*%
%LPD*%
G01*
G04 APERTURE LIST*
%ADD10C,0.150000*%
%ADD11C,0.100000*%
%ADD12C,0.120000*%
G04 APERTURE END LIST*
D10*
X134858333Y-125181009D02*
X135191666Y-125181009D01*
X135191666Y-125704819D02*
X135191666Y-124704819D01*
X135191666Y-124704819D02*
X134715476Y-124704819D01*
X134429761Y-124704819D02*
X133810714Y-124704819D01*
X133810714Y-124704819D02*
X134144047Y-125085771D01*
X134144047Y-125085771D02*
X134001190Y-125085771D01*
X134001190Y-125085771D02*
X133905952Y-125133390D01*
X133905952Y-125133390D02*
X133858333Y-125181009D01*
X133858333Y-125181009D02*
X133810714Y-125276247D01*
X133810714Y-125276247D02*
X133810714Y-125514342D01*
X133810714Y-125514342D02*
X133858333Y-125609580D01*
X133858333Y-125609580D02*
X133905952Y-125657200D01*
X133905952Y-125657200D02*
X134001190Y-125704819D01*
X134001190Y-125704819D02*
X134286904Y-125704819D01*
X134286904Y-125704819D02*
X134382142Y-125657200D01*
X134382142Y-125657200D02*
X134429761Y-125609580D01*
X160333333Y-122454819D02*
X160333333Y-123169104D01*
X160333333Y-123169104D02*
X160380952Y-123311961D01*
X160380952Y-123311961D02*
X160476190Y-123407200D01*
X160476190Y-123407200D02*
X160619047Y-123454819D01*
X160619047Y-123454819D02*
X160714285Y-123454819D01*
X159333333Y-123454819D02*
X159904761Y-123454819D01*
X159619047Y-123454819D02*
X159619047Y-122454819D01*
X159619047Y-122454819D02*
X159714285Y-122597676D01*
X159714285Y-122597676D02*
X159809523Y-122692914D01*
X159809523Y-122692914D02*
X159904761Y-122740533D01*
X134858333Y-113181009D02*
X135191666Y-113181009D01*
X135191666Y-113704819D02*
X135191666Y-112704819D01*
X135191666Y-112704819D02*
X134715476Y-112704819D01*
X134382142Y-112800057D02*
X134334523Y-112752438D01*
X134334523Y-112752438D02*
X134239285Y-112704819D01*
X134239285Y-112704819D02*
X134001190Y-112704819D01*
X134001190Y-112704819D02*
X133905952Y-112752438D01*
X133905952Y-112752438D02*
X133858333Y-112800057D01*
X133858333Y-112800057D02*
X133810714Y-112895295D01*
X133810714Y-112895295D02*
X133810714Y-112990533D01*
X133810714Y-112990533D02*
X133858333Y-113133390D01*
X133858333Y-113133390D02*
X134429761Y-113704819D01*
X134429761Y-113704819D02*
X133810714Y-113704819D01*
X152511904Y-130252438D02*
X152607142Y-130204819D01*
X152607142Y-130204819D02*
X152749999Y-130204819D01*
X152749999Y-130204819D02*
X152892856Y-130252438D01*
X152892856Y-130252438D02*
X152988094Y-130347676D01*
X152988094Y-130347676D02*
X153035713Y-130442914D01*
X153035713Y-130442914D02*
X153083332Y-130633390D01*
X153083332Y-130633390D02*
X153083332Y-130776247D01*
X153083332Y-130776247D02*
X153035713Y-130966723D01*
X153035713Y-130966723D02*
X152988094Y-131061961D01*
X152988094Y-131061961D02*
X152892856Y-131157200D01*
X152892856Y-131157200D02*
X152749999Y-131204819D01*
X152749999Y-131204819D02*
X152654761Y-131204819D01*
X152654761Y-131204819D02*
X152511904Y-131157200D01*
X152511904Y-131157200D02*
X152464285Y-131109580D01*
X152464285Y-131109580D02*
X152464285Y-130776247D01*
X152464285Y-130776247D02*
X152654761Y-130776247D01*
X152035713Y-131204819D02*
X152035713Y-130204819D01*
X152035713Y-130204819D02*
X151464285Y-131204819D01*
X151464285Y-131204819D02*
X151464285Y-130204819D01*
X150988094Y-131204819D02*
X150988094Y-130204819D01*
X150988094Y-130204819D02*
X150749999Y-130204819D01*
X150749999Y-130204819D02*
X150607142Y-130252438D01*
X150607142Y-130252438D02*
X150511904Y-130347676D01*
X150511904Y-130347676D02*
X150464285Y-130442914D01*
X150464285Y-130442914D02*
X150416666Y-130633390D01*
X150416666Y-130633390D02*
X150416666Y-130776247D01*
X150416666Y-130776247D02*
X150464285Y-130966723D01*
X150464285Y-130966723D02*
X150511904Y-131061961D01*
X150511904Y-131061961D02*
X150607142Y-131157200D01*
X150607142Y-131157200D02*
X150749999Y-131204819D01*
X150749999Y-131204819D02*
X150988094Y-131204819D01*
X153011904Y-127823866D02*
X152250000Y-127823866D01*
X152630952Y-128204819D02*
X152630952Y-127442914D01*
X151250000Y-128204819D02*
X151821428Y-128204819D01*
X151535714Y-128204819D02*
X151535714Y-127204819D01*
X151535714Y-127204819D02*
X151630952Y-127347676D01*
X151630952Y-127347676D02*
X151726190Y-127442914D01*
X151726190Y-127442914D02*
X151821428Y-127490533D01*
X150869047Y-127300057D02*
X150821428Y-127252438D01*
X150821428Y-127252438D02*
X150726190Y-127204819D01*
X150726190Y-127204819D02*
X150488095Y-127204819D01*
X150488095Y-127204819D02*
X150392857Y-127252438D01*
X150392857Y-127252438D02*
X150345238Y-127300057D01*
X150345238Y-127300057D02*
X150297619Y-127395295D01*
X150297619Y-127395295D02*
X150297619Y-127490533D01*
X150297619Y-127490533D02*
X150345238Y-127633390D01*
X150345238Y-127633390D02*
X150916666Y-128204819D01*
X150916666Y-128204819D02*
X150297619Y-128204819D01*
X150011904Y-127204819D02*
X149678571Y-128204819D01*
X149678571Y-128204819D02*
X149345238Y-127204819D01*
X135954819Y-117761905D02*
X134954819Y-117761905D01*
X134954819Y-117761905D02*
X134954819Y-118000000D01*
X134954819Y-118000000D02*
X135002438Y-118142857D01*
X135002438Y-118142857D02*
X135097676Y-118238095D01*
X135097676Y-118238095D02*
X135192914Y-118285714D01*
X135192914Y-118285714D02*
X135383390Y-118333333D01*
X135383390Y-118333333D02*
X135526247Y-118333333D01*
X135526247Y-118333333D02*
X135716723Y-118285714D01*
X135716723Y-118285714D02*
X135811961Y-118238095D01*
X135811961Y-118238095D02*
X135907200Y-118142857D01*
X135907200Y-118142857D02*
X135954819Y-118000000D01*
X135954819Y-118000000D02*
X135954819Y-117761905D01*
X134954819Y-119238095D02*
X134954819Y-118761905D01*
X134954819Y-118761905D02*
X135431009Y-118714286D01*
X135431009Y-118714286D02*
X135383390Y-118761905D01*
X135383390Y-118761905D02*
X135335771Y-118857143D01*
X135335771Y-118857143D02*
X135335771Y-119095238D01*
X135335771Y-119095238D02*
X135383390Y-119190476D01*
X135383390Y-119190476D02*
X135431009Y-119238095D01*
X135431009Y-119238095D02*
X135526247Y-119285714D01*
X135526247Y-119285714D02*
X135764342Y-119285714D01*
X135764342Y-119285714D02*
X135859580Y-119238095D01*
X135859580Y-119238095D02*
X135907200Y-119190476D01*
X135907200Y-119190476D02*
X135954819Y-119095238D01*
X135954819Y-119095238D02*
X135954819Y-118857143D01*
X135954819Y-118857143D02*
X135907200Y-118761905D01*
X135907200Y-118761905D02*
X135859580Y-118714286D01*
X135954819Y-105761905D02*
X134954819Y-105761905D01*
X134954819Y-105761905D02*
X134954819Y-106000000D01*
X134954819Y-106000000D02*
X135002438Y-106142857D01*
X135002438Y-106142857D02*
X135097676Y-106238095D01*
X135097676Y-106238095D02*
X135192914Y-106285714D01*
X135192914Y-106285714D02*
X135383390Y-106333333D01*
X135383390Y-106333333D02*
X135526247Y-106333333D01*
X135526247Y-106333333D02*
X135716723Y-106285714D01*
X135716723Y-106285714D02*
X135811961Y-106238095D01*
X135811961Y-106238095D02*
X135907200Y-106142857D01*
X135907200Y-106142857D02*
X135954819Y-106000000D01*
X135954819Y-106000000D02*
X135954819Y-105761905D01*
X135288152Y-107190476D02*
X135954819Y-107190476D01*
X134907200Y-106952381D02*
X135621485Y-106714286D01*
X135621485Y-106714286D02*
X135621485Y-107333333D01*
X156204819Y-118666666D02*
X156919104Y-118666666D01*
X156919104Y-118666666D02*
X157061961Y-118619047D01*
X157061961Y-118619047D02*
X157157200Y-118523809D01*
X157157200Y-118523809D02*
X157204819Y-118380952D01*
X157204819Y-118380952D02*
X157204819Y-118285714D01*
X156633390Y-119285714D02*
X156585771Y-119190476D01*
X156585771Y-119190476D02*
X156538152Y-119142857D01*
X156538152Y-119142857D02*
X156442914Y-119095238D01*
X156442914Y-119095238D02*
X156395295Y-119095238D01*
X156395295Y-119095238D02*
X156300057Y-119142857D01*
X156300057Y-119142857D02*
X156252438Y-119190476D01*
X156252438Y-119190476D02*
X156204819Y-119285714D01*
X156204819Y-119285714D02*
X156204819Y-119476190D01*
X156204819Y-119476190D02*
X156252438Y-119571428D01*
X156252438Y-119571428D02*
X156300057Y-119619047D01*
X156300057Y-119619047D02*
X156395295Y-119666666D01*
X156395295Y-119666666D02*
X156442914Y-119666666D01*
X156442914Y-119666666D02*
X156538152Y-119619047D01*
X156538152Y-119619047D02*
X156585771Y-119571428D01*
X156585771Y-119571428D02*
X156633390Y-119476190D01*
X156633390Y-119476190D02*
X156633390Y-119285714D01*
X156633390Y-119285714D02*
X156681009Y-119190476D01*
X156681009Y-119190476D02*
X156728628Y-119142857D01*
X156728628Y-119142857D02*
X156823866Y-119095238D01*
X156823866Y-119095238D02*
X157014342Y-119095238D01*
X157014342Y-119095238D02*
X157109580Y-119142857D01*
X157109580Y-119142857D02*
X157157200Y-119190476D01*
X157157200Y-119190476D02*
X157204819Y-119285714D01*
X157204819Y-119285714D02*
X157204819Y-119476190D01*
X157204819Y-119476190D02*
X157157200Y-119571428D01*
X157157200Y-119571428D02*
X157109580Y-119619047D01*
X157109580Y-119619047D02*
X157014342Y-119666666D01*
X157014342Y-119666666D02*
X156823866Y-119666666D01*
X156823866Y-119666666D02*
X156728628Y-119619047D01*
X156728628Y-119619047D02*
X156681009Y-119571428D01*
X156681009Y-119571428D02*
X156633390Y-119476190D01*
X145285713Y-116073866D02*
X144523809Y-116073866D01*
X144904761Y-116454819D02*
X144904761Y-115692914D01*
X143571428Y-115454819D02*
X144047618Y-115454819D01*
X144047618Y-115454819D02*
X144095237Y-115931009D01*
X144095237Y-115931009D02*
X144047618Y-115883390D01*
X144047618Y-115883390D02*
X143952380Y-115835771D01*
X143952380Y-115835771D02*
X143714285Y-115835771D01*
X143714285Y-115835771D02*
X143619047Y-115883390D01*
X143619047Y-115883390D02*
X143571428Y-115931009D01*
X143571428Y-115931009D02*
X143523809Y-116026247D01*
X143523809Y-116026247D02*
X143523809Y-116264342D01*
X143523809Y-116264342D02*
X143571428Y-116359580D01*
X143571428Y-116359580D02*
X143619047Y-116407200D01*
X143619047Y-116407200D02*
X143714285Y-116454819D01*
X143714285Y-116454819D02*
X143952380Y-116454819D01*
X143952380Y-116454819D02*
X144047618Y-116407200D01*
X144047618Y-116407200D02*
X144095237Y-116359580D01*
X143238094Y-115454819D02*
X142904761Y-116454819D01*
X142904761Y-116454819D02*
X142571428Y-115454819D01*
X138702380Y-116454819D02*
X138702380Y-115454819D01*
X138702380Y-115454819D02*
X138464285Y-115454819D01*
X138464285Y-115454819D02*
X138321428Y-115502438D01*
X138321428Y-115502438D02*
X138226190Y-115597676D01*
X138226190Y-115597676D02*
X138178571Y-115692914D01*
X138178571Y-115692914D02*
X138130952Y-115883390D01*
X138130952Y-115883390D02*
X138130952Y-116026247D01*
X138130952Y-116026247D02*
X138178571Y-116216723D01*
X138178571Y-116216723D02*
X138226190Y-116311961D01*
X138226190Y-116311961D02*
X138321428Y-116407200D01*
X138321428Y-116407200D02*
X138464285Y-116454819D01*
X138464285Y-116454819D02*
X138702380Y-116454819D01*
X137273809Y-116454819D02*
X137273809Y-115931009D01*
X137273809Y-115931009D02*
X137321428Y-115835771D01*
X137321428Y-115835771D02*
X137416666Y-115788152D01*
X137416666Y-115788152D02*
X137607142Y-115788152D01*
X137607142Y-115788152D02*
X137702380Y-115835771D01*
X137273809Y-116407200D02*
X137369047Y-116454819D01*
X137369047Y-116454819D02*
X137607142Y-116454819D01*
X137607142Y-116454819D02*
X137702380Y-116407200D01*
X137702380Y-116407200D02*
X137749999Y-116311961D01*
X137749999Y-116311961D02*
X137749999Y-116216723D01*
X137749999Y-116216723D02*
X137702380Y-116121485D01*
X137702380Y-116121485D02*
X137607142Y-116073866D01*
X137607142Y-116073866D02*
X137369047Y-116073866D01*
X137369047Y-116073866D02*
X137273809Y-116026247D01*
X136940475Y-115788152D02*
X136559523Y-115788152D01*
X136797618Y-115454819D02*
X136797618Y-116311961D01*
X136797618Y-116311961D02*
X136749999Y-116407200D01*
X136749999Y-116407200D02*
X136654761Y-116454819D01*
X136654761Y-116454819D02*
X136559523Y-116454819D01*
X135797618Y-116454819D02*
X135797618Y-115931009D01*
X135797618Y-115931009D02*
X135845237Y-115835771D01*
X135845237Y-115835771D02*
X135940475Y-115788152D01*
X135940475Y-115788152D02*
X136130951Y-115788152D01*
X136130951Y-115788152D02*
X136226189Y-115835771D01*
X135797618Y-116407200D02*
X135892856Y-116454819D01*
X135892856Y-116454819D02*
X136130951Y-116454819D01*
X136130951Y-116454819D02*
X136226189Y-116407200D01*
X136226189Y-116407200D02*
X136273808Y-116311961D01*
X136273808Y-116311961D02*
X136273808Y-116216723D01*
X136273808Y-116216723D02*
X136226189Y-116121485D01*
X136226189Y-116121485D02*
X136130951Y-116073866D01*
X136130951Y-116073866D02*
X135892856Y-116073866D01*
X135892856Y-116073866D02*
X135797618Y-116026247D01*
X134988094Y-115931009D02*
X134845237Y-115978628D01*
X134845237Y-115978628D02*
X134797618Y-116026247D01*
X134797618Y-116026247D02*
X134749999Y-116121485D01*
X134749999Y-116121485D02*
X134749999Y-116264342D01*
X134749999Y-116264342D02*
X134797618Y-116359580D01*
X134797618Y-116359580D02*
X134845237Y-116407200D01*
X134845237Y-116407200D02*
X134940475Y-116454819D01*
X134940475Y-116454819D02*
X135321427Y-116454819D01*
X135321427Y-116454819D02*
X135321427Y-115454819D01*
X135321427Y-115454819D02*
X134988094Y-115454819D01*
X134988094Y-115454819D02*
X134892856Y-115502438D01*
X134892856Y-115502438D02*
X134845237Y-115550057D01*
X134845237Y-115550057D02*
X134797618Y-115645295D01*
X134797618Y-115645295D02*
X134797618Y-115740533D01*
X134797618Y-115740533D02*
X134845237Y-115835771D01*
X134845237Y-115835771D02*
X134892856Y-115883390D01*
X134892856Y-115883390D02*
X134988094Y-115931009D01*
X134988094Y-115931009D02*
X135321427Y-115931009D01*
X152261904Y-113073866D02*
X151500000Y-113073866D01*
X151880952Y-113454819D02*
X151880952Y-112692914D01*
X151119047Y-112454819D02*
X150500000Y-112454819D01*
X150500000Y-112454819D02*
X150833333Y-112835771D01*
X150833333Y-112835771D02*
X150690476Y-112835771D01*
X150690476Y-112835771D02*
X150595238Y-112883390D01*
X150595238Y-112883390D02*
X150547619Y-112931009D01*
X150547619Y-112931009D02*
X150500000Y-113026247D01*
X150500000Y-113026247D02*
X150500000Y-113264342D01*
X150500000Y-113264342D02*
X150547619Y-113359580D01*
X150547619Y-113359580D02*
X150595238Y-113407200D01*
X150595238Y-113407200D02*
X150690476Y-113454819D01*
X150690476Y-113454819D02*
X150976190Y-113454819D01*
X150976190Y-113454819D02*
X151071428Y-113407200D01*
X151071428Y-113407200D02*
X151119047Y-113359580D01*
X150214285Y-112454819D02*
X149880952Y-113454819D01*
X149880952Y-113454819D02*
X149547619Y-112454819D01*
X149309523Y-112454819D02*
X148690476Y-112454819D01*
X148690476Y-112454819D02*
X149023809Y-112835771D01*
X149023809Y-112835771D02*
X148880952Y-112835771D01*
X148880952Y-112835771D02*
X148785714Y-112883390D01*
X148785714Y-112883390D02*
X148738095Y-112931009D01*
X148738095Y-112931009D02*
X148690476Y-113026247D01*
X148690476Y-113026247D02*
X148690476Y-113264342D01*
X148690476Y-113264342D02*
X148738095Y-113359580D01*
X148738095Y-113359580D02*
X148785714Y-113407200D01*
X148785714Y-113407200D02*
X148880952Y-113454819D01*
X148880952Y-113454819D02*
X149166666Y-113454819D01*
X149166666Y-113454819D02*
X149261904Y-113407200D01*
X149261904Y-113407200D02*
X149309523Y-113359580D01*
X131333333Y-89554819D02*
X131333333Y-90269104D01*
X131333333Y-90269104D02*
X131380952Y-90411961D01*
X131380952Y-90411961D02*
X131476190Y-90507200D01*
X131476190Y-90507200D02*
X131619047Y-90554819D01*
X131619047Y-90554819D02*
X131714285Y-90554819D01*
X130428571Y-89888152D02*
X130428571Y-90554819D01*
X130666666Y-89507200D02*
X130904761Y-90221485D01*
X130904761Y-90221485D02*
X130285714Y-90221485D01*
X125954819Y-123166666D02*
X126669104Y-123166666D01*
X126669104Y-123166666D02*
X126811961Y-123119047D01*
X126811961Y-123119047D02*
X126907200Y-123023809D01*
X126907200Y-123023809D02*
X126954819Y-122880952D01*
X126954819Y-122880952D02*
X126954819Y-122785714D01*
X125954819Y-123547619D02*
X125954819Y-124214285D01*
X125954819Y-124214285D02*
X126954819Y-123785714D01*
X144761904Y-118502438D02*
X144857142Y-118454819D01*
X144857142Y-118454819D02*
X144999999Y-118454819D01*
X144999999Y-118454819D02*
X145142856Y-118502438D01*
X145142856Y-118502438D02*
X145238094Y-118597676D01*
X145238094Y-118597676D02*
X145285713Y-118692914D01*
X145285713Y-118692914D02*
X145333332Y-118883390D01*
X145333332Y-118883390D02*
X145333332Y-119026247D01*
X145333332Y-119026247D02*
X145285713Y-119216723D01*
X145285713Y-119216723D02*
X145238094Y-119311961D01*
X145238094Y-119311961D02*
X145142856Y-119407200D01*
X145142856Y-119407200D02*
X144999999Y-119454819D01*
X144999999Y-119454819D02*
X144904761Y-119454819D01*
X144904761Y-119454819D02*
X144761904Y-119407200D01*
X144761904Y-119407200D02*
X144714285Y-119359580D01*
X144714285Y-119359580D02*
X144714285Y-119026247D01*
X144714285Y-119026247D02*
X144904761Y-119026247D01*
X144285713Y-119454819D02*
X144285713Y-118454819D01*
X144285713Y-118454819D02*
X143714285Y-119454819D01*
X143714285Y-119454819D02*
X143714285Y-118454819D01*
X143238094Y-119454819D02*
X143238094Y-118454819D01*
X143238094Y-118454819D02*
X142999999Y-118454819D01*
X142999999Y-118454819D02*
X142857142Y-118502438D01*
X142857142Y-118502438D02*
X142761904Y-118597676D01*
X142761904Y-118597676D02*
X142714285Y-118692914D01*
X142714285Y-118692914D02*
X142666666Y-118883390D01*
X142666666Y-118883390D02*
X142666666Y-119026247D01*
X142666666Y-119026247D02*
X142714285Y-119216723D01*
X142714285Y-119216723D02*
X142761904Y-119311961D01*
X142761904Y-119311961D02*
X142857142Y-119407200D01*
X142857142Y-119407200D02*
X142999999Y-119454819D01*
X142999999Y-119454819D02*
X143238094Y-119454819D01*
X131333333Y-96554819D02*
X131333333Y-97269104D01*
X131333333Y-97269104D02*
X131380952Y-97411961D01*
X131380952Y-97411961D02*
X131476190Y-97507200D01*
X131476190Y-97507200D02*
X131619047Y-97554819D01*
X131619047Y-97554819D02*
X131714285Y-97554819D01*
X130380952Y-96554819D02*
X130857142Y-96554819D01*
X130857142Y-96554819D02*
X130904761Y-97031009D01*
X130904761Y-97031009D02*
X130857142Y-96983390D01*
X130857142Y-96983390D02*
X130761904Y-96935771D01*
X130761904Y-96935771D02*
X130523809Y-96935771D01*
X130523809Y-96935771D02*
X130428571Y-96983390D01*
X130428571Y-96983390D02*
X130380952Y-97031009D01*
X130380952Y-97031009D02*
X130333333Y-97126247D01*
X130333333Y-97126247D02*
X130333333Y-97364342D01*
X130333333Y-97364342D02*
X130380952Y-97459580D01*
X130380952Y-97459580D02*
X130428571Y-97507200D01*
X130428571Y-97507200D02*
X130523809Y-97554819D01*
X130523809Y-97554819D02*
X130761904Y-97554819D01*
X130761904Y-97554819D02*
X130857142Y-97507200D01*
X130857142Y-97507200D02*
X130904761Y-97459580D01*
X125954819Y-111166666D02*
X126669104Y-111166666D01*
X126669104Y-111166666D02*
X126811961Y-111119047D01*
X126811961Y-111119047D02*
X126907200Y-111023809D01*
X126907200Y-111023809D02*
X126954819Y-110880952D01*
X126954819Y-110880952D02*
X126954819Y-110785714D01*
X125954819Y-112071428D02*
X125954819Y-111880952D01*
X125954819Y-111880952D02*
X126002438Y-111785714D01*
X126002438Y-111785714D02*
X126050057Y-111738095D01*
X126050057Y-111738095D02*
X126192914Y-111642857D01*
X126192914Y-111642857D02*
X126383390Y-111595238D01*
X126383390Y-111595238D02*
X126764342Y-111595238D01*
X126764342Y-111595238D02*
X126859580Y-111642857D01*
X126859580Y-111642857D02*
X126907200Y-111690476D01*
X126907200Y-111690476D02*
X126954819Y-111785714D01*
X126954819Y-111785714D02*
X126954819Y-111976190D01*
X126954819Y-111976190D02*
X126907200Y-112071428D01*
X126907200Y-112071428D02*
X126859580Y-112119047D01*
X126859580Y-112119047D02*
X126764342Y-112166666D01*
X126764342Y-112166666D02*
X126526247Y-112166666D01*
X126526247Y-112166666D02*
X126431009Y-112119047D01*
X126431009Y-112119047D02*
X126383390Y-112071428D01*
X126383390Y-112071428D02*
X126335771Y-111976190D01*
X126335771Y-111976190D02*
X126335771Y-111785714D01*
X126335771Y-111785714D02*
X126383390Y-111690476D01*
X126383390Y-111690476D02*
X126431009Y-111642857D01*
X126431009Y-111642857D02*
X126526247Y-111595238D01*
X137704819Y-85238096D02*
X136704819Y-85238096D01*
X137704819Y-85714286D02*
X136704819Y-85714286D01*
X136704819Y-85714286D02*
X137704819Y-86285714D01*
X137704819Y-86285714D02*
X136704819Y-86285714D01*
X137704819Y-87333333D02*
X137228628Y-87000000D01*
X137704819Y-86761905D02*
X136704819Y-86761905D01*
X136704819Y-86761905D02*
X136704819Y-87142857D01*
X136704819Y-87142857D02*
X136752438Y-87238095D01*
X136752438Y-87238095D02*
X136800057Y-87285714D01*
X136800057Y-87285714D02*
X136895295Y-87333333D01*
X136895295Y-87333333D02*
X137038152Y-87333333D01*
X137038152Y-87333333D02*
X137133390Y-87285714D01*
X137133390Y-87285714D02*
X137181009Y-87238095D01*
X137181009Y-87238095D02*
X137228628Y-87142857D01*
X137228628Y-87142857D02*
X137228628Y-86761905D01*
X137704819Y-87761905D02*
X136704819Y-87761905D01*
X136704819Y-87761905D02*
X136704819Y-88142857D01*
X136704819Y-88142857D02*
X136752438Y-88238095D01*
X136752438Y-88238095D02*
X136800057Y-88285714D01*
X136800057Y-88285714D02*
X136895295Y-88333333D01*
X136895295Y-88333333D02*
X137038152Y-88333333D01*
X137038152Y-88333333D02*
X137133390Y-88285714D01*
X137133390Y-88285714D02*
X137181009Y-88238095D01*
X137181009Y-88238095D02*
X137228628Y-88142857D01*
X137228628Y-88142857D02*
X137228628Y-87761905D01*
X137609580Y-88761905D02*
X137657200Y-88809524D01*
X137657200Y-88809524D02*
X137704819Y-88761905D01*
X137704819Y-88761905D02*
X137657200Y-88714286D01*
X137657200Y-88714286D02*
X137609580Y-88761905D01*
X137609580Y-88761905D02*
X137704819Y-88761905D01*
X137181009Y-89571428D02*
X137228628Y-89714285D01*
X137228628Y-89714285D02*
X137276247Y-89761904D01*
X137276247Y-89761904D02*
X137371485Y-89809523D01*
X137371485Y-89809523D02*
X137514342Y-89809523D01*
X137514342Y-89809523D02*
X137609580Y-89761904D01*
X137609580Y-89761904D02*
X137657200Y-89714285D01*
X137657200Y-89714285D02*
X137704819Y-89619047D01*
X137704819Y-89619047D02*
X137704819Y-89238095D01*
X137704819Y-89238095D02*
X136704819Y-89238095D01*
X136704819Y-89238095D02*
X136704819Y-89571428D01*
X136704819Y-89571428D02*
X136752438Y-89666666D01*
X136752438Y-89666666D02*
X136800057Y-89714285D01*
X136800057Y-89714285D02*
X136895295Y-89761904D01*
X136895295Y-89761904D02*
X136990533Y-89761904D01*
X136990533Y-89761904D02*
X137085771Y-89714285D01*
X137085771Y-89714285D02*
X137133390Y-89666666D01*
X137133390Y-89666666D02*
X137181009Y-89571428D01*
X137181009Y-89571428D02*
X137181009Y-89238095D01*
X150761904Y-115502438D02*
X150857142Y-115454819D01*
X150857142Y-115454819D02*
X150999999Y-115454819D01*
X150999999Y-115454819D02*
X151142856Y-115502438D01*
X151142856Y-115502438D02*
X151238094Y-115597676D01*
X151238094Y-115597676D02*
X151285713Y-115692914D01*
X151285713Y-115692914D02*
X151333332Y-115883390D01*
X151333332Y-115883390D02*
X151333332Y-116026247D01*
X151333332Y-116026247D02*
X151285713Y-116216723D01*
X151285713Y-116216723D02*
X151238094Y-116311961D01*
X151238094Y-116311961D02*
X151142856Y-116407200D01*
X151142856Y-116407200D02*
X150999999Y-116454819D01*
X150999999Y-116454819D02*
X150904761Y-116454819D01*
X150904761Y-116454819D02*
X150761904Y-116407200D01*
X150761904Y-116407200D02*
X150714285Y-116359580D01*
X150714285Y-116359580D02*
X150714285Y-116026247D01*
X150714285Y-116026247D02*
X150904761Y-116026247D01*
X150285713Y-116454819D02*
X150285713Y-115454819D01*
X150285713Y-115454819D02*
X149714285Y-116454819D01*
X149714285Y-116454819D02*
X149714285Y-115454819D01*
X149238094Y-116454819D02*
X149238094Y-115454819D01*
X149238094Y-115454819D02*
X148999999Y-115454819D01*
X148999999Y-115454819D02*
X148857142Y-115502438D01*
X148857142Y-115502438D02*
X148761904Y-115597676D01*
X148761904Y-115597676D02*
X148714285Y-115692914D01*
X148714285Y-115692914D02*
X148666666Y-115883390D01*
X148666666Y-115883390D02*
X148666666Y-116026247D01*
X148666666Y-116026247D02*
X148714285Y-116216723D01*
X148714285Y-116216723D02*
X148761904Y-116311961D01*
X148761904Y-116311961D02*
X148857142Y-116407200D01*
X148857142Y-116407200D02*
X148999999Y-116454819D01*
X148999999Y-116454819D02*
X149238094Y-116454819D01*
X141704819Y-85309524D02*
X140704819Y-85309524D01*
X141704819Y-85785714D02*
X140704819Y-85785714D01*
X140704819Y-85785714D02*
X141704819Y-86357142D01*
X141704819Y-86357142D02*
X140704819Y-86357142D01*
X141704819Y-87404761D02*
X141228628Y-87071428D01*
X141704819Y-86833333D02*
X140704819Y-86833333D01*
X140704819Y-86833333D02*
X140704819Y-87214285D01*
X140704819Y-87214285D02*
X140752438Y-87309523D01*
X140752438Y-87309523D02*
X140800057Y-87357142D01*
X140800057Y-87357142D02*
X140895295Y-87404761D01*
X140895295Y-87404761D02*
X141038152Y-87404761D01*
X141038152Y-87404761D02*
X141133390Y-87357142D01*
X141133390Y-87357142D02*
X141181009Y-87309523D01*
X141181009Y-87309523D02*
X141228628Y-87214285D01*
X141228628Y-87214285D02*
X141228628Y-86833333D01*
X141704819Y-87833333D02*
X140704819Y-87833333D01*
X140704819Y-87833333D02*
X140704819Y-88214285D01*
X140704819Y-88214285D02*
X140752438Y-88309523D01*
X140752438Y-88309523D02*
X140800057Y-88357142D01*
X140800057Y-88357142D02*
X140895295Y-88404761D01*
X140895295Y-88404761D02*
X141038152Y-88404761D01*
X141038152Y-88404761D02*
X141133390Y-88357142D01*
X141133390Y-88357142D02*
X141181009Y-88309523D01*
X141181009Y-88309523D02*
X141228628Y-88214285D01*
X141228628Y-88214285D02*
X141228628Y-87833333D01*
X141609580Y-88833333D02*
X141657200Y-88880952D01*
X141657200Y-88880952D02*
X141704819Y-88833333D01*
X141704819Y-88833333D02*
X141657200Y-88785714D01*
X141657200Y-88785714D02*
X141609580Y-88833333D01*
X141609580Y-88833333D02*
X141704819Y-88833333D01*
X141419104Y-89261904D02*
X141419104Y-89738094D01*
X141704819Y-89166666D02*
X140704819Y-89499999D01*
X140704819Y-89499999D02*
X141704819Y-89833332D01*
X137704819Y-107119047D02*
X136704819Y-107119047D01*
X136704819Y-107119047D02*
X136704819Y-107357142D01*
X136704819Y-107357142D02*
X136752438Y-107499999D01*
X136752438Y-107499999D02*
X136847676Y-107595237D01*
X136847676Y-107595237D02*
X136942914Y-107642856D01*
X136942914Y-107642856D02*
X137133390Y-107690475D01*
X137133390Y-107690475D02*
X137276247Y-107690475D01*
X137276247Y-107690475D02*
X137466723Y-107642856D01*
X137466723Y-107642856D02*
X137561961Y-107595237D01*
X137561961Y-107595237D02*
X137657200Y-107499999D01*
X137657200Y-107499999D02*
X137704819Y-107357142D01*
X137704819Y-107357142D02*
X137704819Y-107119047D01*
X137704819Y-108547618D02*
X137181009Y-108547618D01*
X137181009Y-108547618D02*
X137085771Y-108499999D01*
X137085771Y-108499999D02*
X137038152Y-108404761D01*
X137038152Y-108404761D02*
X137038152Y-108214285D01*
X137038152Y-108214285D02*
X137085771Y-108119047D01*
X137657200Y-108547618D02*
X137704819Y-108452380D01*
X137704819Y-108452380D02*
X137704819Y-108214285D01*
X137704819Y-108214285D02*
X137657200Y-108119047D01*
X137657200Y-108119047D02*
X137561961Y-108071428D01*
X137561961Y-108071428D02*
X137466723Y-108071428D01*
X137466723Y-108071428D02*
X137371485Y-108119047D01*
X137371485Y-108119047D02*
X137323866Y-108214285D01*
X137323866Y-108214285D02*
X137323866Y-108452380D01*
X137323866Y-108452380D02*
X137276247Y-108547618D01*
X137038152Y-108880952D02*
X137038152Y-109261904D01*
X136704819Y-109023809D02*
X137561961Y-109023809D01*
X137561961Y-109023809D02*
X137657200Y-109071428D01*
X137657200Y-109071428D02*
X137704819Y-109166666D01*
X137704819Y-109166666D02*
X137704819Y-109261904D01*
X137704819Y-110023809D02*
X137181009Y-110023809D01*
X137181009Y-110023809D02*
X137085771Y-109976190D01*
X137085771Y-109976190D02*
X137038152Y-109880952D01*
X137038152Y-109880952D02*
X137038152Y-109690476D01*
X137038152Y-109690476D02*
X137085771Y-109595238D01*
X137657200Y-110023809D02*
X137704819Y-109928571D01*
X137704819Y-109928571D02*
X137704819Y-109690476D01*
X137704819Y-109690476D02*
X137657200Y-109595238D01*
X137657200Y-109595238D02*
X137561961Y-109547619D01*
X137561961Y-109547619D02*
X137466723Y-109547619D01*
X137466723Y-109547619D02*
X137371485Y-109595238D01*
X137371485Y-109595238D02*
X137323866Y-109690476D01*
X137323866Y-109690476D02*
X137323866Y-109928571D01*
X137323866Y-109928571D02*
X137276247Y-110023809D01*
X137419104Y-110452381D02*
X137419104Y-110928571D01*
X137704819Y-110357143D02*
X136704819Y-110690476D01*
X136704819Y-110690476D02*
X137704819Y-111023809D01*
X150833332Y-106457200D02*
X150690475Y-106504819D01*
X150690475Y-106504819D02*
X150452380Y-106504819D01*
X150452380Y-106504819D02*
X150357142Y-106457200D01*
X150357142Y-106457200D02*
X150309523Y-106409580D01*
X150309523Y-106409580D02*
X150261904Y-106314342D01*
X150261904Y-106314342D02*
X150261904Y-106219104D01*
X150261904Y-106219104D02*
X150309523Y-106123866D01*
X150309523Y-106123866D02*
X150357142Y-106076247D01*
X150357142Y-106076247D02*
X150452380Y-106028628D01*
X150452380Y-106028628D02*
X150642856Y-105981009D01*
X150642856Y-105981009D02*
X150738094Y-105933390D01*
X150738094Y-105933390D02*
X150785713Y-105885771D01*
X150785713Y-105885771D02*
X150833332Y-105790533D01*
X150833332Y-105790533D02*
X150833332Y-105695295D01*
X150833332Y-105695295D02*
X150785713Y-105600057D01*
X150785713Y-105600057D02*
X150738094Y-105552438D01*
X150738094Y-105552438D02*
X150642856Y-105504819D01*
X150642856Y-105504819D02*
X150404761Y-105504819D01*
X150404761Y-105504819D02*
X150261904Y-105552438D01*
X149976189Y-105504819D02*
X149404761Y-105504819D01*
X149690475Y-106504819D02*
X149690475Y-105504819D01*
X149071427Y-106409580D02*
X149023808Y-106457200D01*
X149023808Y-106457200D02*
X149071427Y-106504819D01*
X149071427Y-106504819D02*
X149119046Y-106457200D01*
X149119046Y-106457200D02*
X149071427Y-106409580D01*
X149071427Y-106409580D02*
X149071427Y-106504819D01*
X148261904Y-105981009D02*
X148119047Y-106028628D01*
X148119047Y-106028628D02*
X148071428Y-106076247D01*
X148071428Y-106076247D02*
X148023809Y-106171485D01*
X148023809Y-106171485D02*
X148023809Y-106314342D01*
X148023809Y-106314342D02*
X148071428Y-106409580D01*
X148071428Y-106409580D02*
X148119047Y-106457200D01*
X148119047Y-106457200D02*
X148214285Y-106504819D01*
X148214285Y-106504819D02*
X148595237Y-106504819D01*
X148595237Y-106504819D02*
X148595237Y-105504819D01*
X148595237Y-105504819D02*
X148261904Y-105504819D01*
X148261904Y-105504819D02*
X148166666Y-105552438D01*
X148166666Y-105552438D02*
X148119047Y-105600057D01*
X148119047Y-105600057D02*
X148071428Y-105695295D01*
X148071428Y-105695295D02*
X148071428Y-105790533D01*
X148071428Y-105790533D02*
X148119047Y-105885771D01*
X148119047Y-105885771D02*
X148166666Y-105933390D01*
X148166666Y-105933390D02*
X148261904Y-105981009D01*
X148261904Y-105981009D02*
X148595237Y-105981009D01*
X147404761Y-105504819D02*
X147214285Y-105504819D01*
X147214285Y-105504819D02*
X147119047Y-105552438D01*
X147119047Y-105552438D02*
X147023809Y-105647676D01*
X147023809Y-105647676D02*
X146976190Y-105838152D01*
X146976190Y-105838152D02*
X146976190Y-106171485D01*
X146976190Y-106171485D02*
X147023809Y-106361961D01*
X147023809Y-106361961D02*
X147119047Y-106457200D01*
X147119047Y-106457200D02*
X147214285Y-106504819D01*
X147214285Y-106504819D02*
X147404761Y-106504819D01*
X147404761Y-106504819D02*
X147499999Y-106457200D01*
X147499999Y-106457200D02*
X147595237Y-106361961D01*
X147595237Y-106361961D02*
X147642856Y-106171485D01*
X147642856Y-106171485D02*
X147642856Y-105838152D01*
X147642856Y-105838152D02*
X147595237Y-105647676D01*
X147595237Y-105647676D02*
X147499999Y-105552438D01*
X147499999Y-105552438D02*
X147404761Y-105504819D01*
X146357142Y-105504819D02*
X146166666Y-105504819D01*
X146166666Y-105504819D02*
X146071428Y-105552438D01*
X146071428Y-105552438D02*
X145976190Y-105647676D01*
X145976190Y-105647676D02*
X145928571Y-105838152D01*
X145928571Y-105838152D02*
X145928571Y-106171485D01*
X145928571Y-106171485D02*
X145976190Y-106361961D01*
X145976190Y-106361961D02*
X146071428Y-106457200D01*
X146071428Y-106457200D02*
X146166666Y-106504819D01*
X146166666Y-106504819D02*
X146357142Y-106504819D01*
X146357142Y-106504819D02*
X146452380Y-106457200D01*
X146452380Y-106457200D02*
X146547618Y-106361961D01*
X146547618Y-106361961D02*
X146595237Y-106171485D01*
X146595237Y-106171485D02*
X146595237Y-105838152D01*
X146595237Y-105838152D02*
X146547618Y-105647676D01*
X146547618Y-105647676D02*
X146452380Y-105552438D01*
X146452380Y-105552438D02*
X146357142Y-105504819D01*
X145642856Y-105504819D02*
X145071428Y-105504819D01*
X145357142Y-106504819D02*
X145357142Y-105504819D01*
%TO.C,U6*%
D11*
X148500000Y-79750000D02*
X153500000Y-79750000D01*
X153500000Y-84750000D01*
X148500000Y-84750000D01*
X148500000Y-79750000D01*
%TO.C,U8*%
X153840000Y-100380000D02*
X174160000Y-100380000D01*
X174160000Y-115620000D01*
X153840000Y-115620000D01*
X153840000Y-100380000D01*
%TO.C,F3*%
D12*
X134786252Y-122790000D02*
X134263748Y-122790000D01*
X134786252Y-124210000D02*
X134263748Y-124210000D01*
%TO.C,J1*%
X156565000Y-123910000D02*
X156565000Y-133030000D01*
X156565000Y-123910000D02*
X158990000Y-123910000D01*
X156565000Y-133030000D02*
X157565000Y-134030000D01*
X157565000Y-134030000D02*
X165435000Y-134030000D01*
X161010000Y-123910000D02*
X162348233Y-123910000D01*
X165435000Y-134030000D02*
X166435000Y-133030000D01*
X166435000Y-123910000D02*
X163651767Y-123910000D01*
X166435000Y-133030000D02*
X166435000Y-123910000D01*
%TO.C,F2*%
X134786252Y-110790000D02*
X134263748Y-110790000D01*
X134786252Y-112210000D02*
X134263748Y-112210000D01*
%TO.C,TP2*%
X153550000Y-130050000D02*
X153550000Y-131450000D01*
X153550000Y-131450000D02*
X154950000Y-131450000D01*
X154950000Y-130050000D02*
X153550000Y-130050000D01*
X154950000Y-131450000D02*
X154950000Y-130050000D01*
%TO.C,TP1*%
X153550000Y-127050000D02*
X153550000Y-128450000D01*
X153550000Y-128450000D02*
X154950000Y-128450000D01*
X154950000Y-127050000D02*
X153550000Y-127050000D01*
X154950000Y-128450000D02*
X154950000Y-127050000D01*
%TO.C,D5*%
X132500000Y-117390000D02*
X132500000Y-121250000D01*
X132500000Y-117390000D02*
X134500000Y-117390000D01*
X134500000Y-117390000D02*
X134500000Y-121250000D01*
%TO.C,D4*%
X132500000Y-105390000D02*
X132500000Y-109250000D01*
X132500000Y-105390000D02*
X134500000Y-105390000D01*
X134500000Y-105390000D02*
X134500000Y-109250000D01*
%TO.C,J8*%
X157640000Y-119510000D02*
X158640000Y-119510000D01*
X158140000Y-117490000D02*
X158140000Y-118700000D01*
X158140000Y-118700000D02*
X157640000Y-118700000D01*
X158640000Y-119510000D02*
X158640000Y-121010000D01*
X169360000Y-119510000D02*
X169360000Y-121010000D01*
X169860000Y-117490000D02*
X158140000Y-117490000D01*
X169860000Y-118700000D02*
X169860000Y-117490000D01*
X170360000Y-118700000D02*
X169860000Y-118700000D01*
X170360000Y-119510000D02*
X169360000Y-119510000D01*
X170660000Y-118810000D02*
X170660000Y-121310000D01*
X170660000Y-121310000D02*
X168160000Y-121310000D01*
X157640000Y-116990000D02*
X170360000Y-116990000D01*
X170360000Y-121010000D01*
X157640000Y-121010000D01*
X157640000Y-116990000D01*
%TO.C,TP3*%
X140800000Y-115300000D02*
X140800000Y-116700000D01*
X140800000Y-116700000D02*
X142200000Y-116700000D01*
X142200000Y-115300000D02*
X140800000Y-115300000D01*
X142200000Y-116700000D02*
X142200000Y-115300000D01*
%TO.C,TP9*%
X132800000Y-115300000D02*
X132800000Y-116700000D01*
X132800000Y-116700000D02*
X134200000Y-116700000D01*
X134200000Y-115300000D02*
X132800000Y-115300000D01*
X134200000Y-116700000D02*
X134200000Y-115300000D01*
%TO.C,TP5*%
X146800000Y-112300000D02*
X146800000Y-113700000D01*
X146800000Y-113700000D02*
X148200000Y-113700000D01*
X148200000Y-112300000D02*
X146800000Y-112300000D01*
X148200000Y-113700000D02*
X148200000Y-112300000D01*
%TO.C,J4*%
X127940000Y-92500000D02*
X128550000Y-92500000D01*
X127940000Y-93800000D02*
X128550000Y-93800000D01*
X128550000Y-91800000D02*
X130500000Y-91800000D01*
X128550000Y-95300000D02*
X128550000Y-91800000D01*
X130500000Y-91800000D02*
X130500000Y-91190000D01*
X130900000Y-94800000D02*
X130900000Y-95300000D01*
X131000000Y-95300000D02*
X131000000Y-94800000D01*
X131100000Y-94800000D02*
X130900000Y-94800000D01*
X131100000Y-95300000D02*
X131100000Y-94800000D01*
X131500000Y-91190000D02*
X131500000Y-91800000D01*
X131500000Y-91800000D02*
X133450000Y-91800000D01*
X132300000Y-90990000D02*
X132600000Y-90990000D01*
X132300000Y-91090000D02*
X132600000Y-91090000D01*
X132300000Y-91190000D02*
X132300000Y-90990000D01*
X132600000Y-90990000D02*
X132600000Y-91190000D01*
X133110000Y-90890000D02*
X134360000Y-90890000D01*
X133450000Y-91800000D02*
X133450000Y-95300000D01*
X133450000Y-95300000D02*
X128550000Y-95300000D01*
X134060000Y-92500000D02*
X133450000Y-92500000D01*
X134060000Y-93800000D02*
X133450000Y-93800000D01*
X134360000Y-90890000D02*
X134360000Y-92140000D01*
X127940000Y-91190000D02*
X134060000Y-91190000D01*
X134060000Y-95910000D01*
X127940000Y-95910000D01*
X127940000Y-91190000D01*
%TO.C,J7*%
X127390000Y-126410000D02*
X127390000Y-123910000D01*
X129190000Y-115890000D02*
X129190000Y-116890000D01*
X129190000Y-116890000D02*
X127690000Y-116890000D01*
X129190000Y-125110000D02*
X127690000Y-125110000D01*
X129190000Y-126110000D02*
X129190000Y-125110000D01*
X129890000Y-126410000D02*
X127390000Y-126410000D01*
X130000000Y-116390000D02*
X130000000Y-115890000D01*
X130000000Y-125610000D02*
X131210000Y-125610000D01*
X130000000Y-126110000D02*
X130000000Y-125610000D01*
X131210000Y-116390000D02*
X130000000Y-116390000D01*
X131210000Y-125610000D02*
X131210000Y-116390000D01*
X127690000Y-115890000D02*
X131710000Y-115890000D01*
X131710000Y-126110000D01*
X127690000Y-126110000D01*
X127690000Y-115890000D01*
%TO.C,TP4*%
X140800000Y-118300000D02*
X140800000Y-119700000D01*
X140800000Y-119700000D02*
X142200000Y-119700000D01*
X142200000Y-118300000D02*
X140800000Y-118300000D01*
X142200000Y-119700000D02*
X142200000Y-118300000D01*
%TO.C,J5*%
X127940000Y-99500000D02*
X128550000Y-99500000D01*
X127940000Y-100800000D02*
X128550000Y-100800000D01*
X128550000Y-98800000D02*
X130500000Y-98800000D01*
X128550000Y-102300000D02*
X128550000Y-98800000D01*
X130500000Y-98800000D02*
X130500000Y-98190000D01*
X130900000Y-101800000D02*
X130900000Y-102300000D01*
X131000000Y-102300000D02*
X131000000Y-101800000D01*
X131100000Y-101800000D02*
X130900000Y-101800000D01*
X131100000Y-102300000D02*
X131100000Y-101800000D01*
X131500000Y-98190000D02*
X131500000Y-98800000D01*
X131500000Y-98800000D02*
X133450000Y-98800000D01*
X132300000Y-97990000D02*
X132600000Y-97990000D01*
X132300000Y-98090000D02*
X132600000Y-98090000D01*
X132300000Y-98190000D02*
X132300000Y-97990000D01*
X132600000Y-97990000D02*
X132600000Y-98190000D01*
X133110000Y-97890000D02*
X134360000Y-97890000D01*
X133450000Y-98800000D02*
X133450000Y-102300000D01*
X133450000Y-102300000D02*
X128550000Y-102300000D01*
X134060000Y-99500000D02*
X133450000Y-99500000D01*
X134060000Y-100800000D02*
X133450000Y-100800000D01*
X134360000Y-97890000D02*
X134360000Y-99140000D01*
X127940000Y-98190000D02*
X134060000Y-98190000D01*
X134060000Y-102910000D01*
X127940000Y-102910000D01*
X127940000Y-98190000D01*
%TO.C,J6*%
X127390000Y-114410000D02*
X127390000Y-111910000D01*
X129190000Y-103890000D02*
X129190000Y-104890000D01*
X129190000Y-104890000D02*
X127690000Y-104890000D01*
X129190000Y-113110000D02*
X127690000Y-113110000D01*
X129190000Y-114110000D02*
X129190000Y-113110000D01*
X129890000Y-114410000D02*
X127390000Y-114410000D01*
X130000000Y-104390000D02*
X130000000Y-103890000D01*
X130000000Y-113610000D02*
X131210000Y-113610000D01*
X130000000Y-114110000D02*
X130000000Y-113610000D01*
X131210000Y-104390000D02*
X130000000Y-104390000D01*
X131210000Y-113610000D02*
X131210000Y-104390000D01*
X127690000Y-103890000D02*
X131710000Y-103890000D01*
X131710000Y-114110000D01*
X127690000Y-114110000D01*
X127690000Y-103890000D01*
%TO.C,TP11*%
X136300000Y-90300000D02*
X136300000Y-92200000D01*
X136300000Y-92200000D02*
X138200000Y-92200000D01*
X138200000Y-90300000D02*
X136300000Y-90300000D01*
X138200000Y-92200000D02*
X138200000Y-90300000D01*
%TO.C,TP6*%
X146800000Y-115300000D02*
X146800000Y-116700000D01*
X146800000Y-116700000D02*
X148200000Y-116700000D01*
X148200000Y-115300000D02*
X146800000Y-115300000D01*
X148200000Y-116700000D02*
X148200000Y-115300000D01*
%TO.C,TP10*%
X140300000Y-90300000D02*
X140300000Y-92200000D01*
X140300000Y-92200000D02*
X142200000Y-92200000D01*
X142200000Y-90300000D02*
X140300000Y-90300000D01*
X142200000Y-92200000D02*
X142200000Y-90300000D01*
%TO.C,TP8*%
X135050000Y-108300000D02*
X135050000Y-109700000D01*
X135050000Y-109700000D02*
X136450000Y-109700000D01*
X136450000Y-108300000D02*
X135050000Y-108300000D01*
X136450000Y-109700000D02*
X136450000Y-108300000D01*
%TO.C,TP7*%
X147300000Y-103800000D02*
X147300000Y-105200000D01*
X147300000Y-105200000D02*
X148700000Y-105200000D01*
X148700000Y-103800000D02*
X147300000Y-103800000D01*
X148700000Y-105200000D02*
X148700000Y-103800000D01*
%TD*%
M02*
