%TF.GenerationSoftware,KiCad,Pcbnew,10.0.6*%
%TF.CreationDate,2026-09-19T16:41:32-04:00*%
%TF.ProjectId,EPICS_Connect4,45504943-535f-4436-9f6e-6e656374342e,rev?*%
%TF.SameCoordinates,Original*%
%TF.FileFunction,Paste,Top*%
%TF.FilePolarity,Positive*%
%FSLAX46Y46*%
G04 Gerber Fmt 4.6, Leading zero omitted, Abs format (unit mm)*
G04 Created by KiCad (PCBNEW 10.0.6) date 2026-09-19 16:41:32*
%MOMM*%
%LPD*%
G01*
G04 APERTURE LIST*
G04 Aperture macros list*
%AMRoundRect*
0 Rectangle with rounded corners*
0 $1 Rounding radius*
0 $2 $3 $4 $5 $6 $7 $8 $9 X,Y pos of 4 corners*
0 Add a 4 corners polygon primitive as box body*
4,1,4,$2,$3,$4,$5,$6,$7,$8,$9,$2,$3,0*
0 Add four circle primitives for the rounded corners*
1,1,$1+$1,$2,$3*
1,1,$1+$1,$4,$5*
1,1,$1+$1,$6,$7*
1,1,$1+$1,$8,$9*
0 Add four rect primitives between the rounded corners*
20,1,$1+$1,$2,$3,$4,$5,0*
20,1,$1+$1,$4,$5,$6,$7,0*
20,1,$1+$1,$6,$7,$8,$9,0*
20,1,$1+$1,$8,$9,$2,$3,0*%
G04 Aperture macros list end*
%ADD10R,1.500000X0.900000*%
%ADD11RoundRect,0.225000X-0.250000X0.225000X-0.250000X-0.225000X0.250000X-0.225000X0.250000X0.225000X0*%
%ADD12RoundRect,0.243750X0.243750X0.456250X-0.243750X0.456250X-0.243750X-0.456250X0.243750X-0.456250X0*%
%ADD13RoundRect,0.200000X-0.200000X-0.275000X0.200000X-0.275000X0.200000X0.275000X-0.200000X0.275000X0*%
%ADD14RoundRect,0.225000X0.250000X-0.225000X0.250000X0.225000X-0.250000X0.225000X-0.250000X-0.225000X0*%
%ADD15RoundRect,0.200000X0.200000X0.275000X-0.200000X0.275000X-0.200000X-0.275000X0.200000X-0.275000X0*%
%ADD16RoundRect,0.200000X-0.275000X0.200000X-0.275000X-0.200000X0.275000X-0.200000X0.275000X0.200000X0*%
%ADD17RoundRect,0.225000X0.225000X0.250000X-0.225000X0.250000X-0.225000X-0.250000X0.225000X-0.250000X0*%
%ADD18RoundRect,0.225000X-0.225000X-0.250000X0.225000X-0.250000X0.225000X0.250000X-0.225000X0.250000X0*%
%ADD19RoundRect,0.250000X-0.250000X-0.475000X0.250000X-0.475000X0.250000X0.475000X-0.250000X0.475000X0*%
%ADD20R,1.000000X0.900000*%
%ADD21RoundRect,0.249999X1.464501X-0.956501X1.464501X0.956501X-1.464501X0.956501X-1.464501X-0.956501X0*%
%ADD22RoundRect,0.250000X-0.475000X0.250000X-0.475000X-0.250000X0.475000X-0.250000X0.475000X0.250000X0*%
%ADD23RoundRect,0.243750X-0.243750X-0.456250X0.243750X-0.456250X0.243750X0.456250X-0.243750X0.456250X0*%
%ADD24RoundRect,0.200000X0.275000X-0.200000X0.275000X0.200000X-0.275000X0.200000X-0.275000X-0.200000X0*%
%ADD25RoundRect,0.250000X-0.650000X1.000000X-0.650000X-1.000000X0.650000X-1.000000X0.650000X1.000000X0*%
%ADD26RoundRect,0.162500X0.617500X0.162500X-0.617500X0.162500X-0.617500X-0.162500X0.617500X-0.162500X0*%
%ADD27RoundRect,0.150000X-0.512500X-0.150000X0.512500X-0.150000X0.512500X0.150000X-0.512500X0.150000X0*%
%ADD28RoundRect,0.150000X-0.150000X0.512500X-0.150000X-0.512500X0.150000X-0.512500X0.150000X0.512500X0*%
%ADD29RoundRect,0.250000X0.550000X-1.500000X0.550000X1.500000X-0.550000X1.500000X-0.550000X-1.500000X0*%
%ADD30RoundRect,0.250001X-0.624999X0.462499X-0.624999X-0.462499X0.624999X-0.462499X0.624999X0.462499X0*%
%ADD31RoundRect,0.150000X0.425000X-0.150000X0.425000X0.150000X-0.425000X0.150000X-0.425000X-0.150000X0*%
%ADD32RoundRect,0.075000X0.500000X-0.075000X0.500000X0.075000X-0.500000X0.075000X-0.500000X-0.075000X0*%
%ADD33RoundRect,0.250000X0.750000X-0.840000X0.750000X0.840000X-0.750000X0.840000X-0.750000X-0.840000X0*%
%ADD34RoundRect,0.243750X0.456250X-0.243750X0.456250X0.243750X-0.456250X0.243750X-0.456250X-0.243750X0*%
%ADD35RoundRect,0.075000X0.662500X0.075000X-0.662500X0.075000X-0.662500X-0.075000X0.662500X-0.075000X0*%
%ADD36RoundRect,0.075000X0.075000X0.662500X-0.075000X0.662500X-0.075000X-0.662500X0.075000X-0.662500X0*%
G04 APERTURE END LIST*
D10*
%TO.C,U6*%
X141250000Y-76000000D03*
X141250000Y-77500000D03*
X141250000Y-79000000D03*
X141250000Y-80500000D03*
X141250000Y-82000000D03*
X141250000Y-83500000D03*
X141250000Y-85000000D03*
X141250000Y-86500000D03*
X141250000Y-88000000D03*
X158750000Y-88000000D03*
X158750000Y-86500000D03*
X158750000Y-85000000D03*
X158750000Y-83500000D03*
X158750000Y-82000000D03*
X158750000Y-80500000D03*
X158750000Y-79000000D03*
X158750000Y-77500000D03*
X158750000Y-76000000D03*
%TD*%
D11*
%TO.C,C16*%
X138500000Y-93475000D03*
X138500000Y-95025000D03*
%TD*%
D12*
%TO.C,D3*%
X158750000Y-92000000D03*
X156875000Y-92000000D03*
%TD*%
D13*
%TO.C,R17*%
X137100000Y-85000000D03*
X138750000Y-85000000D03*
%TD*%
D14*
%TO.C,C8*%
X138250000Y-113775000D03*
X138250000Y-112225000D03*
%TD*%
D15*
%TO.C,R9*%
X166920000Y-99500000D03*
X165270000Y-99500000D03*
%TD*%
D16*
%TO.C,R3*%
X145050000Y-130500000D03*
X145050000Y-132150000D03*
%TD*%
%TO.C,R10*%
X145750000Y-92425000D03*
X145750000Y-94075000D03*
%TD*%
D17*
%TO.C,C20*%
X138525000Y-79000000D03*
X136975000Y-79000000D03*
%TD*%
D18*
%TO.C,C22*%
X156100000Y-117000000D03*
X157650000Y-117000000D03*
%TD*%
D19*
%TO.C,C2*%
X141550000Y-126500000D03*
X143450000Y-126500000D03*
%TD*%
D14*
%TO.C,C7*%
X132250000Y-113775000D03*
X132250000Y-112225000D03*
%TD*%
D11*
%TO.C,C15*%
X140000000Y-93475000D03*
X140000000Y-95025000D03*
%TD*%
D20*
%TO.C,SW1*%
X127200000Y-89050000D03*
X127200000Y-84950000D03*
X128800000Y-89050000D03*
X128800000Y-84950000D03*
%TD*%
D14*
%TO.C,C3*%
X148750000Y-126775000D03*
X148750000Y-125225000D03*
%TD*%
D21*
%TO.C,L1*%
X146000000Y-123921000D03*
X146000000Y-118079000D03*
%TD*%
D15*
%TO.C,R12*%
X134075000Y-121000000D03*
X132425000Y-121000000D03*
%TD*%
D22*
%TO.C,C1*%
X157500000Y-129812500D03*
X157500000Y-131712500D03*
%TD*%
D13*
%TO.C,R15*%
X137100000Y-86500000D03*
X138750000Y-86500000D03*
%TD*%
D15*
%TO.C,R11*%
X134325000Y-109000000D03*
X132675000Y-109000000D03*
%TD*%
%TO.C,R22*%
X135650000Y-124000000D03*
X134000000Y-124000000D03*
%TD*%
D19*
%TO.C,C5*%
X143300000Y-115500000D03*
X145200000Y-115500000D03*
%TD*%
D23*
%TO.C,D2*%
X147312500Y-92000000D03*
X149187500Y-92000000D03*
%TD*%
D14*
%TO.C,C13*%
X142250000Y-94025000D03*
X142250000Y-92475000D03*
%TD*%
D13*
%TO.C,R14*%
X136875000Y-82000000D03*
X138525000Y-82000000D03*
%TD*%
D24*
%TO.C,R13*%
X155250000Y-93650000D03*
X155250000Y-92000000D03*
%TD*%
D25*
%TO.C,D1*%
X154500000Y-125262500D03*
X154500000Y-129262500D03*
%TD*%
D17*
%TO.C,C11*%
X139000000Y-102750000D03*
X137450000Y-102750000D03*
%TD*%
D26*
%TO.C,U7*%
X164850000Y-91950000D03*
X164850000Y-91000000D03*
X164850000Y-90050000D03*
X162150000Y-90050000D03*
X162150000Y-91000000D03*
X162150000Y-91950000D03*
%TD*%
D15*
%TO.C,R21*%
X162825000Y-82000000D03*
X161175000Y-82000000D03*
%TD*%
D19*
%TO.C,C6*%
X143300000Y-113500000D03*
X145200000Y-113500000D03*
%TD*%
D27*
%TO.C,U2*%
X134112500Y-112050000D03*
X134112500Y-113000000D03*
X134112500Y-113950000D03*
X136387500Y-113950000D03*
X136387500Y-112050000D03*
%TD*%
D15*
%TO.C,R20*%
X162825000Y-83500000D03*
X161175000Y-83500000D03*
%TD*%
D16*
%TO.C,R4*%
X140000000Y-90425000D03*
X140000000Y-92075000D03*
%TD*%
D11*
%TO.C,C10*%
X147750000Y-106000000D03*
X147750000Y-107550000D03*
%TD*%
D16*
%TO.C,R1*%
X143500000Y-128850000D03*
X143500000Y-130500000D03*
%TD*%
D28*
%TO.C,U5*%
X134200000Y-116862500D03*
X133250000Y-116862500D03*
X132300000Y-116862500D03*
X132300000Y-119137500D03*
X134200000Y-119137500D03*
%TD*%
D29*
%TO.C,C23*%
X167000000Y-110800000D03*
X167000000Y-105200000D03*
%TD*%
D17*
%TO.C,C4*%
X148750000Y-115500000D03*
X147200000Y-115500000D03*
%TD*%
D30*
%TO.C,F1*%
X157500000Y-125012500D03*
X157500000Y-127987500D03*
%TD*%
D13*
%TO.C,R23*%
X134000000Y-130000000D03*
X135650000Y-130000000D03*
%TD*%
D31*
%TO.C,J3*%
X167320000Y-94200000D03*
X167320000Y-93400000D03*
D32*
X167320000Y-92250000D03*
X167320000Y-91250000D03*
X167320000Y-90750000D03*
X167320000Y-89750000D03*
D31*
X167320000Y-88600000D03*
X167320000Y-87800000D03*
X167320000Y-87800000D03*
X167320000Y-88600000D03*
D32*
X167320000Y-89250000D03*
X167320000Y-90250000D03*
X167320000Y-91750000D03*
X167320000Y-92750000D03*
D31*
X167320000Y-93400000D03*
X167320000Y-94200000D03*
D33*
X167895000Y-96110000D03*
X171825000Y-96110000D03*
X167895000Y-85890000D03*
X171825000Y-85890000D03*
%TD*%
D28*
%TO.C,U4*%
X134450000Y-104862500D03*
X133500000Y-104862500D03*
X132550000Y-104862500D03*
X132550000Y-107137500D03*
X134450000Y-107137500D03*
%TD*%
D14*
%TO.C,C12*%
X144250000Y-94025000D03*
X144250000Y-92475000D03*
%TD*%
D28*
%TO.C,U1*%
X146950000Y-126362500D03*
X146000000Y-126362500D03*
X145050000Y-126362500D03*
X145050000Y-128637500D03*
X146000000Y-128637500D03*
X146950000Y-128637500D03*
%TD*%
D18*
%TO.C,C14*%
X151000000Y-99750000D03*
X152550000Y-99750000D03*
%TD*%
D13*
%TO.C,R2*%
X147100000Y-113500000D03*
X148750000Y-113500000D03*
%TD*%
D15*
%TO.C,R16*%
X162825000Y-79000000D03*
X161175000Y-79000000D03*
%TD*%
D18*
%TO.C,C9*%
X151000000Y-102750000D03*
X152550000Y-102750000D03*
%TD*%
D13*
%TO.C,R7*%
X133600000Y-100000000D03*
X135250000Y-100000000D03*
%TD*%
D15*
%TO.C,R19*%
X164325000Y-93750000D03*
X162675000Y-93750000D03*
%TD*%
D17*
%TO.C,C17*%
X135250000Y-94500000D03*
X133700000Y-94500000D03*
%TD*%
D16*
%TO.C,R5*%
X138500000Y-90425000D03*
X138500000Y-92075000D03*
%TD*%
D17*
%TO.C,C18*%
X135250000Y-98500000D03*
X133700000Y-98500000D03*
%TD*%
D34*
%TO.C,D6*%
X134000000Y-127875000D03*
X134000000Y-126000000D03*
%TD*%
D13*
%TO.C,R6*%
X133600000Y-93000000D03*
X135250000Y-93000000D03*
%TD*%
D17*
%TO.C,C21*%
X138525000Y-77500000D03*
X136975000Y-77500000D03*
%TD*%
%TO.C,C19*%
X138525000Y-80500000D03*
X136975000Y-80500000D03*
%TD*%
D15*
%TO.C,R18*%
X164325000Y-88250000D03*
X162675000Y-88250000D03*
%TD*%
D13*
%TO.C,R8*%
X147675000Y-109500000D03*
X149325000Y-109500000D03*
%TD*%
D20*
%TO.C,SW2*%
X132200000Y-89050000D03*
X132200000Y-84950000D03*
X133800000Y-89050000D03*
X133800000Y-84950000D03*
%TD*%
D35*
%TO.C,U3*%
X149162500Y-102750000D03*
X149162500Y-102250000D03*
X149162500Y-101750000D03*
X149162500Y-101250000D03*
X149162500Y-100750000D03*
X149162500Y-100250000D03*
X149162500Y-99750000D03*
X149162500Y-99250000D03*
X149162500Y-98750000D03*
X149162500Y-98250000D03*
X149162500Y-97750000D03*
X149162500Y-97250000D03*
D36*
X147750000Y-95837500D03*
X147250000Y-95837500D03*
X146750000Y-95837500D03*
X146250000Y-95837500D03*
X145750000Y-95837500D03*
X145250000Y-95837500D03*
X144750000Y-95837500D03*
X144250000Y-95837500D03*
X143750000Y-95837500D03*
X143250000Y-95837500D03*
X142750000Y-95837500D03*
X142250000Y-95837500D03*
D35*
X140837500Y-97250000D03*
X140837500Y-97750000D03*
X140837500Y-98250000D03*
X140837500Y-98750000D03*
X140837500Y-99250000D03*
X140837500Y-99750000D03*
X140837500Y-100250000D03*
X140837500Y-100750000D03*
X140837500Y-101250000D03*
X140837500Y-101750000D03*
X140837500Y-102250000D03*
X140837500Y-102750000D03*
D36*
X142250000Y-104162500D03*
X142750000Y-104162500D03*
X143250000Y-104162500D03*
X143750000Y-104162500D03*
X144250000Y-104162500D03*
X144750000Y-104162500D03*
X145250000Y-104162500D03*
X145750000Y-104162500D03*
X146250000Y-104162500D03*
X146750000Y-104162500D03*
X147250000Y-104162500D03*
X147750000Y-104162500D03*
%TD*%
M02*
