%TF.GenerationSoftware,KiCad,Pcbnew,10.0.6*%
%TF.CreationDate,2026-09-19T16:41:32-04:00*%
%TF.ProjectId,EPICS_Connect4,45504943-535f-4436-9f6e-6e656374342e,rev?*%
%TF.SameCoordinates,Original*%
%TF.FileFunction,Copper,L1,Top*%
%TF.FilePolarity,Positive*%
%FSLAX46Y46*%
G04 Gerber Fmt 4.6, Leading zero omitted, Abs format (unit mm)*
G04 Created by KiCad (PCBNEW 10.0.6) date 2026-09-19 16:41:32*
%MOMM*%
%LPD*%
G01*
G04 APERTURE LIST*
G04 Aperture macros list*
%AMRoundRect*
0 Rectangle with rounded corners*
0 $1 Rounding radius*
0 $2 $3 $4 $5 $6 $7 $8 $9 X,Y pos of 4 corners*
0 Add a 4 corners polygon primitive as box body*
4,1,4,$2,$3,$4,$5,$6,$7,$8,$9,$2,$3,0*
0 Add four circle primitives for the rounded corners*
1,1,$1+$1,$2,$3*
1,1,$1+$1,$4,$5*
1,1,$1+$1,$6,$7*
1,1,$1+$1,$8,$9*
0 Add four rect primitives between the rounded corners*
20,1,$1+$1,$2,$3,$4,$5,0*
20,1,$1+$1,$4,$5,$6,$7,0*
20,1,$1+$1,$6,$7,$8,$9,0*
20,1,$1+$1,$8,$9,$2,$3,0*%
G04 Aperture macros list end*
%TA.AperFunction,HeatsinkPad*%
%ADD10C,0.800000*%
%TD*%
%TA.AperFunction,HeatsinkPad*%
%ADD11R,2.995000X3.000000*%
%TD*%
%TA.AperFunction,SMDPad,CuDef*%
%ADD12R,1.500000X0.900000*%
%TD*%
%TA.AperFunction,ComponentPad*%
%ADD13RoundRect,0.250000X-0.600000X0.600000X-0.600000X-0.600000X0.600000X-0.600000X0.600000X0.600000X0*%
%TD*%
%TA.AperFunction,ComponentPad*%
%ADD14C,1.700000*%
%TD*%
%TA.AperFunction,SMDPad,CuDef*%
%ADD15RoundRect,0.225000X-0.250000X0.225000X-0.250000X-0.225000X0.250000X-0.225000X0.250000X0.225000X0*%
%TD*%
%TA.AperFunction,SMDPad,CuDef*%
%ADD16RoundRect,0.243750X0.243750X0.456250X-0.243750X0.456250X-0.243750X-0.456250X0.243750X-0.456250X0*%
%TD*%
%TA.AperFunction,SMDPad,CuDef*%
%ADD17RoundRect,0.200000X-0.200000X-0.275000X0.200000X-0.275000X0.200000X0.275000X-0.200000X0.275000X0*%
%TD*%
%TA.AperFunction,SMDPad,CuDef*%
%ADD18RoundRect,0.225000X0.250000X-0.225000X0.250000X0.225000X-0.250000X0.225000X-0.250000X-0.225000X0*%
%TD*%
%TA.AperFunction,SMDPad,CuDef*%
%ADD19RoundRect,0.200000X0.200000X0.275000X-0.200000X0.275000X-0.200000X-0.275000X0.200000X-0.275000X0*%
%TD*%
%TA.AperFunction,SMDPad,CuDef*%
%ADD20RoundRect,0.200000X-0.275000X0.200000X-0.275000X-0.200000X0.275000X-0.200000X0.275000X0.200000X0*%
%TD*%
%TA.AperFunction,SMDPad,CuDef*%
%ADD21RoundRect,0.225000X0.225000X0.250000X-0.225000X0.250000X-0.225000X-0.250000X0.225000X-0.250000X0*%
%TD*%
%TA.AperFunction,SMDPad,CuDef*%
%ADD22RoundRect,0.225000X-0.225000X-0.250000X0.225000X-0.250000X0.225000X0.250000X-0.225000X0.250000X0*%
%TD*%
%TA.AperFunction,SMDPad,CuDef*%
%ADD23RoundRect,0.250000X-0.250000X-0.475000X0.250000X-0.475000X0.250000X0.475000X-0.250000X0.475000X0*%
%TD*%
%TA.AperFunction,SMDPad,CuDef*%
%ADD24R,1.000000X0.900000*%
%TD*%
%TA.AperFunction,SMDPad,CuDef*%
%ADD25RoundRect,0.249999X1.464501X-0.956501X1.464501X0.956501X-1.464501X0.956501X-1.464501X-0.956501X0*%
%TD*%
%TA.AperFunction,SMDPad,CuDef*%
%ADD26RoundRect,0.250000X-0.475000X0.250000X-0.475000X-0.250000X0.475000X-0.250000X0.475000X0.250000X0*%
%TD*%
%TA.AperFunction,SMDPad,CuDef*%
%ADD27RoundRect,0.243750X-0.243750X-0.456250X0.243750X-0.456250X0.243750X0.456250X-0.243750X0.456250X0*%
%TD*%
%TA.AperFunction,SMDPad,CuDef*%
%ADD28RoundRect,0.200000X0.275000X-0.200000X0.275000X0.200000X-0.275000X0.200000X-0.275000X-0.200000X0*%
%TD*%
%TA.AperFunction,SMDPad,CuDef*%
%ADD29RoundRect,0.250000X-0.650000X1.000000X-0.650000X-1.000000X0.650000X-1.000000X0.650000X1.000000X0*%
%TD*%
%TA.AperFunction,SMDPad,CuDef*%
%ADD30RoundRect,0.162500X0.617500X0.162500X-0.617500X0.162500X-0.617500X-0.162500X0.617500X-0.162500X0*%
%TD*%
%TA.AperFunction,SMDPad,CuDef*%
%ADD31RoundRect,0.150000X-0.512500X-0.150000X0.512500X-0.150000X0.512500X0.150000X-0.512500X0.150000X0*%
%TD*%
%TA.AperFunction,ConnectorPad*%
%ADD32C,0.787400*%
%TD*%
%TA.AperFunction,SMDPad,CuDef*%
%ADD33RoundRect,0.150000X-0.150000X0.512500X-0.150000X-0.512500X0.150000X-0.512500X0.150000X0.512500X0*%
%TD*%
%TA.AperFunction,SMDPad,CuDef*%
%ADD34RoundRect,0.250000X0.550000X-1.500000X0.550000X1.500000X-0.550000X1.500000X-0.550000X-1.500000X0*%
%TD*%
%TA.AperFunction,SMDPad,CuDef*%
%ADD35RoundRect,0.250001X-0.624999X0.462499X-0.624999X-0.462499X0.624999X-0.462499X0.624999X0.462499X0*%
%TD*%
%TA.AperFunction,SMDPad,CuDef*%
%ADD36RoundRect,0.150000X0.425000X-0.150000X0.425000X0.150000X-0.425000X0.150000X-0.425000X-0.150000X0*%
%TD*%
%TA.AperFunction,SMDPad,CuDef*%
%ADD37RoundRect,0.075000X0.500000X-0.075000X0.500000X0.075000X-0.500000X0.075000X-0.500000X-0.075000X0*%
%TD*%
%TA.AperFunction,SMDPad,CuDef*%
%ADD38RoundRect,0.250000X0.750000X-0.840000X0.750000X0.840000X-0.750000X0.840000X-0.750000X-0.840000X0*%
%TD*%
%TA.AperFunction,SMDPad,CuDef*%
%ADD39RoundRect,0.243750X0.456250X-0.243750X0.456250X0.243750X-0.456250X0.243750X-0.456250X-0.243750X0*%
%TD*%
%TA.AperFunction,SMDPad,CuDef*%
%ADD40RoundRect,0.075000X0.662500X0.075000X-0.662500X0.075000X-0.662500X-0.075000X0.662500X-0.075000X0*%
%TD*%
%TA.AperFunction,SMDPad,CuDef*%
%ADD41RoundRect,0.075000X0.075000X0.662500X-0.075000X0.662500X-0.075000X-0.662500X0.075000X-0.662500X0*%
%TD*%
%TA.AperFunction,ComponentPad*%
%ADD42RoundRect,0.250001X-0.499999X-0.759999X0.499999X-0.759999X0.499999X0.759999X-0.499999X0.759999X0*%
%TD*%
%TA.AperFunction,ComponentPad*%
%ADD43O,1.500000X2.020000*%
%TD*%
%TA.AperFunction,ComponentPad*%
%ADD44RoundRect,0.250000X0.600000X0.725000X-0.600000X0.725000X-0.600000X-0.725000X0.600000X-0.725000X0*%
%TD*%
%TA.AperFunction,ComponentPad*%
%ADD45O,1.700000X1.950000*%
%TD*%
%TA.AperFunction,ComponentPad*%
%ADD46RoundRect,0.250000X0.350000X0.625000X-0.350000X0.625000X-0.350000X-0.625000X0.350000X-0.625000X0*%
%TD*%
%TA.AperFunction,ComponentPad*%
%ADD47O,1.200000X1.750000*%
%TD*%
%TA.AperFunction,ComponentPad*%
%ADD48RoundRect,0.250000X0.725000X-0.600000X0.725000X0.600000X-0.725000X0.600000X-0.725000X-0.600000X0*%
%TD*%
%TA.AperFunction,ComponentPad*%
%ADD49O,1.950000X1.700000*%
%TD*%
%TA.AperFunction,ViaPad*%
%ADD50C,0.600000*%
%TD*%
%TA.AperFunction,Conductor*%
%ADD51C,0.200000*%
%TD*%
%TA.AperFunction,Conductor*%
%ADD52C,1.000000*%
%TD*%
%TA.AperFunction,Conductor*%
%ADD53C,0.600000*%
%TD*%
%TA.AperFunction,Conductor*%
%ADD54C,0.500000*%
%TD*%
G04 APERTURE END LIST*
D10*
%TO.P,U6,19,GND_19*%
%TO.N,GND*%
X152000000Y-83250000D03*
X151000000Y-83250000D03*
X151000000Y-82250000D03*
X151000000Y-81250000D03*
X150000000Y-81250000D03*
X152000000Y-81250000D03*
X152000000Y-82250000D03*
X150000000Y-83250000D03*
X150000000Y-82250000D03*
D11*
X151000000Y-82250000D03*
D12*
%TO.P,U6,1,3V3_1*%
%TO.N,+3V3*%
X141250000Y-76000000D03*
%TO.P,U6,2,EN_2*%
%TO.N,/ESP32 Weblink/EN*%
X141250000Y-77500000D03*
%TO.P,U6,3,IO4_3*%
%TO.N,unconnected-(U6-IO4-Pad3)*%
X141250000Y-79000000D03*
%TO.P,U6,4,IO5_4*%
%TO.N,/STM32 Controller/BOOT*%
X141250000Y-80500000D03*
%TO.P,U6,5,IO6_5*%
%TO.N,/STM32 Controller/NRST*%
X141250000Y-82000000D03*
%TO.P,U6,6,IO7_6*%
%TO.N,unconnected-(U6-IO7-Pad6)*%
X141250000Y-83500000D03*
%TO.P,U6,7,IO8_7*%
%TO.N,/ESP32 Weblink/IO8*%
X141250000Y-85000000D03*
%TO.P,U6,8,IO9_8*%
%TO.N,/ESP32 Weblink/IO9*%
X141250000Y-86500000D03*
%TO.P,U6,9,GND_9*%
%TO.N,GND*%
X141250000Y-88000000D03*
%TO.P,U6,10,IO10_10*%
%TO.N,/ESP32 Weblink/LED*%
X158750000Y-88000000D03*
%TO.P,U6,11,IO20/RXD_11*%
%TO.N,/ESP32 Weblink/IO20{slash}RXD*%
X158750000Y-86500000D03*
%TO.P,U6,12,IO21/TXD_12*%
%TO.N,/ESP32 Weblink/IO21{slash}TXD*%
X158750000Y-85000000D03*
%TO.P,U6,13,IO18_13*%
%TO.N,/ESP32 Weblink/D-*%
X158750000Y-83500000D03*
%TO.P,U6,14,IO19_14*%
%TO.N,/ESP32 Weblink/D+*%
X158750000Y-82000000D03*
%TO.P,U6,15,IO3_15*%
%TO.N,unconnected-(U6-IO3-Pad15)*%
X158750000Y-80500000D03*
%TO.P,U6,16,IO2_16*%
%TO.N,/ESP32 Weblink/IO2*%
X158750000Y-79000000D03*
%TO.P,U6,17,IO1_17*%
%TO.N,unconnected-(U6-IO1-Pad17)*%
X158750000Y-77500000D03*
%TO.P,U6,18,IO0_18*%
%TO.N,unconnected-(U6-IO0-Pad18)*%
X158750000Y-76000000D03*
%TD*%
D13*
%TO.P,U8,1,EN_1*%
%TO.N,/Motor Acuator/TMC.EN*%
X172890000Y-101650000D03*
D14*
%TO.P,U8,2,MS1_2*%
%TO.N,GND*%
X170350000Y-101650000D03*
%TO.P,U8,3,MS2_3*%
X167810000Y-101650000D03*
%TO.P,U8,4,PDN_4*%
%TO.N,/Motor Acuator/TMC.PDN*%
X165270000Y-101650000D03*
%TO.P,U8,5,PDN_5*%
%TO.N,unconnected-(U8-PDN-Pad5)*%
X162730000Y-101650000D03*
%TO.P,U8,6,CLK_6*%
%TO.N,GND*%
X160190000Y-101650000D03*
%TO.P,U8,7,STEP_7*%
%TO.N,/Motor Acuator/TMC.STEP*%
X157650000Y-101650000D03*
%TO.P,U8,8,DIR_8*%
%TO.N,/Motor Acuator/TMC.DIR*%
X155110000Y-101650000D03*
%TO.P,U8,9,VM_9*%
%TO.N,+12V*%
X172890000Y-114350000D03*
%TO.P,U8,10,GND_10*%
%TO.N,GND*%
X170350000Y-114350000D03*
%TO.P,U8,11,A1_11*%
%TO.N,/Motor Acuator/M10*%
X167810000Y-114350000D03*
%TO.P,U8,12,A2_12*%
%TO.N,/Motor Acuator/M11*%
X165270000Y-114350000D03*
%TO.P,U8,13,B1_13*%
%TO.N,/Motor Acuator/M12*%
X162730000Y-114350000D03*
%TO.P,U8,14,B2_14*%
%TO.N,/Motor Acuator/M13*%
X160190000Y-114350000D03*
%TO.P,U8,15,VIO_15*%
%TO.N,+3V3*%
X157650000Y-114350000D03*
%TO.P,U8,16,GND_16*%
%TO.N,GND*%
X155110000Y-114350000D03*
%TO.P,U8,L,VREF_L*%
%TO.N,unconnected-(U8-VREF-PadL)*%
X172890000Y-104190000D03*
%TO.P,U8,R,DIAG_R*%
%TO.N,/Motor Acuator/TMC.DIAG*%
X172890000Y-106730000D03*
%TD*%
D15*
%TO.P,C16,1*%
%TO.N,/STM32 Controller/INRP.B\u002A*%
X138500000Y-93475000D03*
%TO.P,C16,2*%
%TO.N,GND*%
X138500000Y-95025000D03*
%TD*%
D16*
%TO.P,D3,1,K_1*%
%TO.N,/ESP32 Weblink/LED*%
X158750000Y-92000000D03*
%TO.P,D3,2,A_2*%
%TO.N,Net-(D3-A)*%
X156875000Y-92000000D03*
%TD*%
D17*
%TO.P,R17,1*%
%TO.N,+3V3*%
X137100000Y-85000000D03*
%TO.P,R17,2*%
%TO.N,/ESP32 Weblink/IO8*%
X138750000Y-85000000D03*
%TD*%
D18*
%TO.P,C8,1*%
%TO.N,GND*%
X138250000Y-113775000D03*
%TO.P,C8,2*%
%TO.N,+5V*%
X138250000Y-112225000D03*
%TD*%
D19*
%TO.P,R9,1*%
%TO.N,+3V3*%
X166920000Y-99500000D03*
%TO.P,R9,2*%
%TO.N,/Motor Acuator/TMC.PDN*%
X165270000Y-99500000D03*
%TD*%
D20*
%TO.P,R3,1*%
%TO.N,Net-(U1-FB)*%
X145050000Y-130500000D03*
%TO.P,R3,2*%
%TO.N,GND*%
X145050000Y-132150000D03*
%TD*%
%TO.P,R10,1*%
%TO.N,Net-(D2-K)*%
X145750000Y-92425000D03*
%TO.P,R10,2*%
%TO.N,/STM32 Controller/U_LED*%
X145750000Y-94075000D03*
%TD*%
D21*
%TO.P,C20,1*%
%TO.N,+3V3*%
X138525000Y-79000000D03*
%TO.P,C20,2*%
%TO.N,GND*%
X136975000Y-79000000D03*
%TD*%
D22*
%TO.P,C22,1*%
%TO.N,GND*%
X156100000Y-117000000D03*
%TO.P,C22,2*%
%TO.N,+3V3*%
X157650000Y-117000000D03*
%TD*%
D23*
%TO.P,C2,1*%
%TO.N,GND*%
X141550000Y-126500000D03*
%TO.P,C2,2*%
%TO.N,+12V*%
X143450000Y-126500000D03*
%TD*%
D18*
%TO.P,C7,1*%
%TO.N,GND*%
X132250000Y-113775000D03*
%TO.P,C7,2*%
%TO.N,+12V*%
X132250000Y-112225000D03*
%TD*%
D15*
%TO.P,C15,1*%
%TO.N,/STM32 Controller/INRP.A\u002A*%
X140000000Y-93475000D03*
%TO.P,C15,2*%
%TO.N,GND*%
X140000000Y-95025000D03*
%TD*%
D24*
%TO.P,SW1,1,1_1*%
%TO.N,GND*%
X127200000Y-89050000D03*
X127200000Y-84950000D03*
%TO.P,SW1,2,2_2*%
%TO.N,/ESP32 Weblink/EN*%
X128800000Y-89050000D03*
X128800000Y-84950000D03*
%TD*%
D18*
%TO.P,C3,1*%
%TO.N,Net-(U1-BOOT)*%
X148750000Y-126775000D03*
%TO.P,C3,2*%
%TO.N,Net-(U1-SW)*%
X148750000Y-125225000D03*
%TD*%
D25*
%TO.P,L1,1,1_1*%
%TO.N,Net-(U1-SW)*%
X146000000Y-123921000D03*
%TO.P,L1,2,2_2*%
%TO.N,+3V3*%
X146000000Y-118079000D03*
%TD*%
D19*
%TO.P,R12,1*%
%TO.N,Net-(U5-Y)*%
X134075000Y-121000000D03*
%TO.P,R12,2*%
%TO.N,/STM32 Controller/ledDataB*%
X132425000Y-121000000D03*
%TD*%
D26*
%TO.P,C1,1*%
%TO.N,+12V*%
X157500000Y-129812500D03*
%TO.P,C1,2*%
%TO.N,GND*%
X157500000Y-131712500D03*
%TD*%
D17*
%TO.P,R15,1*%
%TO.N,+3V3*%
X137100000Y-86500000D03*
%TO.P,R15,2*%
%TO.N,/ESP32 Weblink/IO9*%
X138750000Y-86500000D03*
%TD*%
D19*
%TO.P,R11,1*%
%TO.N,Net-(U4-Y)*%
X134325000Y-109000000D03*
%TO.P,R11,2*%
%TO.N,/STM32 Controller/ledDataA*%
X132675000Y-109000000D03*
%TD*%
%TO.P,R22,1*%
%TO.N,+12V*%
X135650000Y-124000000D03*
%TO.P,R22,2*%
%TO.N,Net-(D6-A)*%
X134000000Y-124000000D03*
%TD*%
D23*
%TO.P,C5,1*%
%TO.N,GND*%
X143300000Y-115500000D03*
%TO.P,C5,2*%
%TO.N,+3V3*%
X145200000Y-115500000D03*
%TD*%
D27*
%TO.P,D2,1,K_1*%
%TO.N,Net-(D2-K)*%
X147312500Y-92000000D03*
%TO.P,D2,2,A_2*%
%TO.N,+3V3*%
X149187500Y-92000000D03*
%TD*%
D18*
%TO.P,C13,1*%
%TO.N,+3V3*%
X142250000Y-94025000D03*
%TO.P,C13,2*%
%TO.N,GND*%
X142250000Y-92475000D03*
%TD*%
D17*
%TO.P,R14,1*%
%TO.N,+3V3*%
X136875000Y-82000000D03*
%TO.P,R14,2*%
%TO.N,/ESP32 Weblink/EN*%
X138525000Y-82000000D03*
%TD*%
D28*
%TO.P,R13,1*%
%TO.N,+3V3*%
X155250000Y-93650000D03*
%TO.P,R13,2*%
%TO.N,Net-(D3-A)*%
X155250000Y-92000000D03*
%TD*%
D29*
%TO.P,D1,1,A1_1*%
%TO.N,GND*%
X154500000Y-125262500D03*
%TO.P,D1,2,A2_2*%
%TO.N,+12V*%
X154500000Y-129262500D03*
%TD*%
D21*
%TO.P,C11,1*%
%TO.N,+3V3*%
X139000000Y-102750000D03*
%TO.P,C11,2*%
%TO.N,GND*%
X137450000Y-102750000D03*
%TD*%
D30*
%TO.P,U7,1,I/O1_1*%
%TO.N,Net-(J3-D--PadA7)*%
X164850000Y-91950000D03*
%TO.P,U7,2,GND_2*%
%TO.N,GND*%
X164850000Y-91000000D03*
%TO.P,U7,3,I/O2_3*%
%TO.N,Net-(J3-D+-PadA6)*%
X164850000Y-90050000D03*
%TO.P,U7,4,I/O2_4*%
%TO.N,/ESP32 Weblink/D.+*%
X162150000Y-90050000D03*
%TO.P,U7,5,VBUS_5*%
%TO.N,Net-(U7-VBUS)*%
X162150000Y-91000000D03*
%TO.P,U7,6,I/O1_6*%
%TO.N,/ESP32 Weblink/D.-*%
X162150000Y-91950000D03*
%TD*%
D19*
%TO.P,R21,1*%
%TO.N,/ESP32 Weblink/D.+*%
X162825000Y-82000000D03*
%TO.P,R21,2*%
%TO.N,/ESP32 Weblink/D+*%
X161175000Y-82000000D03*
%TD*%
D23*
%TO.P,C6,1*%
%TO.N,GND*%
X143300000Y-113500000D03*
%TO.P,C6,2*%
%TO.N,+3V3*%
X145200000Y-113500000D03*
%TD*%
D31*
%TO.P,U2,1,VIN_1*%
%TO.N,+12V*%
X134112500Y-112050000D03*
%TO.P,U2,2,GND_2*%
%TO.N,GND*%
X134112500Y-113000000D03*
%TO.P,U2,3,EN_3*%
%TO.N,+12V*%
X134112500Y-113950000D03*
%TO.P,U2,4,NC_4*%
%TO.N,unconnected-(U2-NC-Pad4)*%
X136387500Y-113950000D03*
%TO.P,U2,5,VOUT_5*%
%TO.N,+5V*%
X136387500Y-112050000D03*
%TD*%
D19*
%TO.P,R20,1*%
%TO.N,/ESP32 Weblink/D.-*%
X162825000Y-83500000D03*
%TO.P,R20,2*%
%TO.N,/ESP32 Weblink/D-*%
X161175000Y-83500000D03*
%TD*%
D32*
%TO.P,J2,1*%
%TO.N,+3V3*%
X141480000Y-109385000D03*
%TO.P,J2,2*%
%TO.N,/STM32 Controller/SWDIO*%
X141480000Y-108115000D03*
%TO.P,J2,3*%
%TO.N,/STM32 Controller/NRST*%
X142750000Y-109385000D03*
%TO.P,J2,4*%
%TO.N,/STM32 Controller/SWCLK*%
X142750000Y-108115000D03*
%TO.P,J2,5*%
%TO.N,GND*%
X144020000Y-109385000D03*
%TO.P,J2,6*%
%TO.N,unconnected-(J2-Pad6)*%
X144020000Y-108115000D03*
%TD*%
D20*
%TO.P,R4,1*%
%TO.N,/STM32 Controller/INRP.A*%
X140000000Y-90425000D03*
%TO.P,R4,2*%
%TO.N,/STM32 Controller/INRP.A\u002A*%
X140000000Y-92075000D03*
%TD*%
D15*
%TO.P,C10,1*%
%TO.N,+3V3*%
X147750000Y-106000000D03*
%TO.P,C10,2*%
%TO.N,GND*%
X147750000Y-107550000D03*
%TD*%
D20*
%TO.P,R1,1*%
%TO.N,+12V*%
X143500000Y-128850000D03*
%TO.P,R1,2*%
%TO.N,Net-(U1-EN)*%
X143500000Y-130500000D03*
%TD*%
D33*
%TO.P,U5,1,~{OE}_1*%
%TO.N,GND*%
X134200000Y-116862500D03*
%TO.P,U5,2,A_2*%
%TO.N,/STM32 Controller/LED.B*%
X133250000Y-116862500D03*
%TO.P,U5,3,GND_3*%
%TO.N,GND*%
X132300000Y-116862500D03*
%TO.P,U5,4,Y_4*%
%TO.N,Net-(U5-Y)*%
X132300000Y-119137500D03*
%TO.P,U5,5,VCC_5*%
%TO.N,+5V*%
X134200000Y-119137500D03*
%TD*%
D34*
%TO.P,C23,1*%
%TO.N,+12V*%
X167000000Y-110800000D03*
%TO.P,C23,2*%
%TO.N,GND*%
X167000000Y-105200000D03*
%TD*%
D21*
%TO.P,C4,1*%
%TO.N,Net-(U1-FB)*%
X148750000Y-115500000D03*
%TO.P,C4,2*%
%TO.N,+3V3*%
X147200000Y-115500000D03*
%TD*%
D35*
%TO.P,F1,1*%
%TO.N,Net-(J1-Pin_1)*%
X157500000Y-125012500D03*
%TO.P,F1,2*%
%TO.N,+12V*%
X157500000Y-127987500D03*
%TD*%
D17*
%TO.P,R23,1*%
%TO.N,Net-(D6-K)*%
X134000000Y-130000000D03*
%TO.P,R23,2*%
%TO.N,GND*%
X135650000Y-130000000D03*
%TD*%
D36*
%TO.P,J3,A1,GND_A1*%
%TO.N,GND*%
X167320000Y-94200000D03*
%TO.P,J3,A4,VBUS_A4*%
%TO.N,Net-(U7-VBUS)*%
X167320000Y-93400000D03*
D37*
%TO.P,J3,A5,CC1_A5*%
%TO.N,Net-(J3-CC1)*%
X167320000Y-92250000D03*
%TO.P,J3,A6,D+_A6*%
%TO.N,Net-(J3-D+-PadA6)*%
X167320000Y-91250000D03*
%TO.P,J3,A7,D-_A7*%
%TO.N,Net-(J3-D--PadA7)*%
X167320000Y-90750000D03*
%TO.P,J3,A8*%
%TO.N,N/C*%
X167320000Y-89750000D03*
D36*
%TO.P,J3,A9,VBUS_A9*%
%TO.N,Net-(U7-VBUS)*%
X167320000Y-88600000D03*
%TO.P,J3,A12,GND_A12*%
%TO.N,GND*%
X167320000Y-87800000D03*
%TO.P,J3,B1,GND_B1*%
X167320000Y-87800000D03*
%TO.P,J3,B4,VBUS_B4*%
%TO.N,Net-(U7-VBUS)*%
X167320000Y-88600000D03*
D37*
%TO.P,J3,B5,CC2_B5*%
%TO.N,Net-(J3-CC2)*%
X167320000Y-89250000D03*
%TO.P,J3,B6,D+_B6*%
%TO.N,Net-(J3-D+-PadA6)*%
X167320000Y-90250000D03*
%TO.P,J3,B7,D-_B7*%
%TO.N,Net-(J3-D--PadA7)*%
X167320000Y-91750000D03*
%TO.P,J3,B8*%
%TO.N,N/C*%
X167320000Y-92750000D03*
D36*
%TO.P,J3,B9,VBUS_B9*%
%TO.N,Net-(U7-VBUS)*%
X167320000Y-93400000D03*
%TO.P,J3,B12,GND_B12*%
%TO.N,GND*%
X167320000Y-94200000D03*
D38*
%TO.P,J3,SH,SHIELD_SH*%
X167895000Y-96110000D03*
X171825000Y-96110000D03*
X167895000Y-85890000D03*
X171825000Y-85890000D03*
%TD*%
D33*
%TO.P,U4,1,~{OE}_1*%
%TO.N,GND*%
X134450000Y-104862500D03*
%TO.P,U4,2,A_2*%
%TO.N,/STM32 Controller/LED.A*%
X133500000Y-104862500D03*
%TO.P,U4,3,GND_3*%
%TO.N,GND*%
X132550000Y-104862500D03*
%TO.P,U4,4,Y_4*%
%TO.N,Net-(U4-Y)*%
X132550000Y-107137500D03*
%TO.P,U4,5,VCC_5*%
%TO.N,+5V*%
X134450000Y-107137500D03*
%TD*%
D18*
%TO.P,C12,1*%
%TO.N,+3V3*%
X144250000Y-94025000D03*
%TO.P,C12,2*%
%TO.N,GND*%
X144250000Y-92475000D03*
%TD*%
D33*
%TO.P,U1,1,GND_1*%
%TO.N,GND*%
X146950000Y-126362500D03*
%TO.P,U1,2,SW_2*%
%TO.N,Net-(U1-SW)*%
X146000000Y-126362500D03*
%TO.P,U1,3,VIN_3*%
%TO.N,+12V*%
X145050000Y-126362500D03*
%TO.P,U1,4,FB_4*%
%TO.N,Net-(U1-FB)*%
X145050000Y-128637500D03*
%TO.P,U1,5,EN_5*%
%TO.N,Net-(U1-EN)*%
X146000000Y-128637500D03*
%TO.P,U1,6,BOOT_6*%
%TO.N,Net-(U1-BOOT)*%
X146950000Y-128637500D03*
%TD*%
D22*
%TO.P,C14,1*%
%TO.N,/STM32 Controller/NRST*%
X151000000Y-99750000D03*
%TO.P,C14,2*%
%TO.N,GND*%
X152550000Y-99750000D03*
%TD*%
D17*
%TO.P,R2,1*%
%TO.N,+3V3*%
X147100000Y-113500000D03*
%TO.P,R2,2*%
%TO.N,Net-(U1-FB)*%
X148750000Y-113500000D03*
%TD*%
D19*
%TO.P,R16,1*%
%TO.N,+3V3*%
X162825000Y-79000000D03*
%TO.P,R16,2*%
%TO.N,/ESP32 Weblink/IO2*%
X161175000Y-79000000D03*
%TD*%
D22*
%TO.P,C9,1*%
%TO.N,+3V3*%
X151000000Y-102750000D03*
%TO.P,C9,2*%
%TO.N,GND*%
X152550000Y-102750000D03*
%TD*%
D17*
%TO.P,R7,1*%
%TO.N,/STM32 Controller/END.B*%
X133600000Y-100000000D03*
%TO.P,R7,2*%
%TO.N,/STM32 Controller/END.B\u002A*%
X135250000Y-100000000D03*
%TD*%
D19*
%TO.P,R19,1*%
%TO.N,Net-(J3-CC1)*%
X164325000Y-93750000D03*
%TO.P,R19,2*%
%TO.N,GND*%
X162675000Y-93750000D03*
%TD*%
D21*
%TO.P,C17,1*%
%TO.N,/STM32 Controller/END.A\u002A*%
X135250000Y-94500000D03*
%TO.P,C17,2*%
%TO.N,GND*%
X133700000Y-94500000D03*
%TD*%
D20*
%TO.P,R5,1*%
%TO.N,/STM32 Controller/INRP.B*%
X138500000Y-90425000D03*
%TO.P,R5,2*%
%TO.N,/STM32 Controller/INRP.B\u002A*%
X138500000Y-92075000D03*
%TD*%
D21*
%TO.P,C18,1*%
%TO.N,/STM32 Controller/END.B\u002A*%
X135250000Y-98500000D03*
%TO.P,C18,2*%
%TO.N,GND*%
X133700000Y-98500000D03*
%TD*%
D39*
%TO.P,D6,1,K_1*%
%TO.N,Net-(D6-K)*%
X134000000Y-127875000D03*
%TO.P,D6,2,A_2*%
%TO.N,Net-(D6-A)*%
X134000000Y-126000000D03*
%TD*%
D17*
%TO.P,R6,1*%
%TO.N,/STM32 Controller/END.A*%
X133600000Y-93000000D03*
%TO.P,R6,2*%
%TO.N,/STM32 Controller/END.A\u002A*%
X135250000Y-93000000D03*
%TD*%
D21*
%TO.P,C21,1*%
%TO.N,+3V3*%
X138525000Y-77500000D03*
%TO.P,C21,2*%
%TO.N,GND*%
X136975000Y-77500000D03*
%TD*%
%TO.P,C19,1*%
%TO.N,/ESP32 Weblink/EN*%
X138525000Y-80500000D03*
%TO.P,C19,2*%
%TO.N,GND*%
X136975000Y-80500000D03*
%TD*%
D19*
%TO.P,R18,1*%
%TO.N,Net-(J3-CC2)*%
X164325000Y-88250000D03*
%TO.P,R18,2*%
%TO.N,GND*%
X162675000Y-88250000D03*
%TD*%
D17*
%TO.P,R8,1*%
%TO.N,/STM32 Controller/BOOT*%
X147675000Y-109500000D03*
%TO.P,R8,2*%
%TO.N,GND*%
X149325000Y-109500000D03*
%TD*%
D24*
%TO.P,SW2,1,1_1*%
%TO.N,GND*%
X132200000Y-89050000D03*
X132200000Y-84950000D03*
%TO.P,SW2,2,2_2*%
%TO.N,/ESP32 Weblink/IO9*%
X133800000Y-89050000D03*
X133800000Y-84950000D03*
%TD*%
D40*
%TO.P,U3,1,VBAT_1*%
%TO.N,+3V3*%
X149162500Y-102750000D03*
%TO.P,U3,2,PC13_2*%
%TO.N,unconnected-(U3-PC13-Pad2)*%
X149162500Y-102250000D03*
%TO.P,U3,3,PC14_3*%
%TO.N,unconnected-(U3-PC14-Pad3)*%
X149162500Y-101750000D03*
%TO.P,U3,4,PC15_4*%
%TO.N,unconnected-(U3-PC15-Pad4)*%
X149162500Y-101250000D03*
%TO.P,U3,5,PF0_5*%
%TO.N,unconnected-(U3-PF0-Pad5)*%
X149162500Y-100750000D03*
%TO.P,U3,6,PF1_6*%
%TO.N,unconnected-(U3-PF1-Pad6)*%
X149162500Y-100250000D03*
%TO.P,U3,7,PG10_7*%
%TO.N,/STM32 Controller/NRST*%
X149162500Y-99750000D03*
%TO.P,U3,8,PA0_8*%
%TO.N,unconnected-(U3-PA0-Pad8)*%
X149162500Y-99250000D03*
%TO.P,U3,9,PA1_9*%
%TO.N,unconnected-(U3-PA1-Pad9)*%
X149162500Y-98750000D03*
%TO.P,U3,10,PA2_10*%
%TO.N,/Motor Acuator/TMC.PDN*%
X149162500Y-98250000D03*
%TO.P,U3,11,PA3_11*%
%TO.N,/Motor Acuator/TMC.DIAG*%
X149162500Y-97750000D03*
%TO.P,U3,12,PA4_12*%
%TO.N,/Motor Acuator/TMC.EN*%
X149162500Y-97250000D03*
D41*
%TO.P,U3,13,PA5_13*%
%TO.N,/Motor Acuator/TMC.STEP*%
X147750000Y-95837500D03*
%TO.P,U3,14,PA6_14*%
%TO.N,/Motor Acuator/TMC.DIR*%
X147250000Y-95837500D03*
%TO.P,U3,15,PA7_15*%
%TO.N,unconnected-(U3-PA7-Pad15)*%
X146750000Y-95837500D03*
%TO.P,U3,16,PB0_16*%
%TO.N,unconnected-(U3-PB0-Pad16)*%
X146250000Y-95837500D03*
%TO.P,U3,17,PB1_17*%
%TO.N,/STM32 Controller/U_LED*%
X145750000Y-95837500D03*
%TO.P,U3,18,PB2_18*%
%TO.N,unconnected-(U3-PB2-Pad18)*%
X145250000Y-95837500D03*
%TO.P,U3,19,VSSA_19*%
%TO.N,GND*%
X144750000Y-95837500D03*
%TO.P,U3,20,VREF+_20*%
%TO.N,+3V3*%
X144250000Y-95837500D03*
%TO.P,U3,21,VDDA_21*%
X143750000Y-95837500D03*
%TO.P,U3,22,PB10_22*%
%TO.N,unconnected-(U3-PB10-Pad22)*%
X143250000Y-95837500D03*
%TO.P,U3,23,VSS_23*%
%TO.N,GND*%
X142750000Y-95837500D03*
%TO.P,U3,24,VDD_24*%
%TO.N,+3V3*%
X142250000Y-95837500D03*
D40*
%TO.P,U3,25,PB11_25*%
%TO.N,/STM32 Controller/INRP.A\u002A*%
X140837500Y-97250000D03*
%TO.P,U3,26,PB12_26*%
%TO.N,/STM32 Controller/INRP.B\u002A*%
X140837500Y-97750000D03*
%TO.P,U3,27,PB13_27*%
%TO.N,/STM32 Controller/END.A\u002A*%
X140837500Y-98250000D03*
%TO.P,U3,28,PB14_28*%
%TO.N,/STM32 Controller/END.B\u002A*%
X140837500Y-98750000D03*
%TO.P,U3,29,PB15_29*%
%TO.N,unconnected-(U3-PB15-Pad29)*%
X140837500Y-99250000D03*
%TO.P,U3,30,PA8_30*%
%TO.N,/STM32 Controller/LED.A*%
X140837500Y-99750000D03*
%TO.P,U3,31,PA9_31*%
%TO.N,/STM32 Controller/LED.B*%
X140837500Y-100250000D03*
%TO.P,U3,32,PA10_32*%
%TO.N,unconnected-(U3-PA10-Pad32)*%
X140837500Y-100750000D03*
%TO.P,U3,33,PA11_33*%
%TO.N,unconnected-(U3-PA11-Pad33)*%
X140837500Y-101250000D03*
%TO.P,U3,34,PA12_34*%
%TO.N,unconnected-(U3-PA12-Pad34)*%
X140837500Y-101750000D03*
%TO.P,U3,35,VSS_35*%
%TO.N,GND*%
X140837500Y-102250000D03*
%TO.P,U3,36,VDD_36*%
%TO.N,+3V3*%
X140837500Y-102750000D03*
D41*
%TO.P,U3,37,PA13_37*%
%TO.N,/STM32 Controller/SWDIO*%
X142250000Y-104162500D03*
%TO.P,U3,38,PA14_38*%
%TO.N,/STM32 Controller/SWCLK*%
X142750000Y-104162500D03*
%TO.P,U3,39,PA15_39*%
%TO.N,unconnected-(U3-PA15-Pad39)*%
X143250000Y-104162500D03*
%TO.P,U3,40,PB3_40*%
%TO.N,unconnected-(U3-PB3-Pad40)*%
X143750000Y-104162500D03*
%TO.P,U3,41,PB4_41*%
%TO.N,unconnected-(U3-PB4-Pad41)*%
X144250000Y-104162500D03*
%TO.P,U3,42,PB5_42*%
%TO.N,unconnected-(U3-PB5-Pad42)*%
X144750000Y-104162500D03*
%TO.P,U3,43,PB6_43*%
%TO.N,/ESP32 Weblink/IO20{slash}RXD*%
X145250000Y-104162500D03*
%TO.P,U3,44,PB7_44*%
%TO.N,/ESP32 Weblink/IO21{slash}TXD*%
X145750000Y-104162500D03*
%TO.P,U3,45,PB8_45*%
%TO.N,/STM32 Controller/BOOT*%
X146250000Y-104162500D03*
%TO.P,U3,46,PB9_46*%
%TO.N,unconnected-(U3-PB9-Pad46)*%
X146750000Y-104162500D03*
%TO.P,U3,47,VSS_47*%
%TO.N,GND*%
X147250000Y-104162500D03*
%TO.P,U3,48,VDD_48*%
%TO.N,+3V3*%
X147750000Y-104162500D03*
%TD*%
D42*
%TO.P,J1,1,Pin_1_1*%
%TO.N,Net-(J1-Pin_1)*%
X160000000Y-125000000D03*
D43*
%TO.P,J1,2,Pin_2_2*%
%TO.N,GND*%
X163000000Y-125000000D03*
%TD*%
D44*
%TO.P,J8,1,Pin_1_1*%
%TO.N,/Motor Acuator/M10*%
X167750000Y-118700000D03*
D45*
%TO.P,J8,2,Pin_2_2*%
%TO.N,/Motor Acuator/M11*%
X165250000Y-118700000D03*
%TO.P,J8,3,Pin_3_3*%
%TO.N,/Motor Acuator/M12*%
X162750000Y-118700000D03*
%TO.P,J8,4,Pin_4_4*%
%TO.N,/Motor Acuator/M13*%
X160250000Y-118700000D03*
%TD*%
D46*
%TO.P,J4,1,Pin_1_1*%
%TO.N,/STM32 Controller/END.A*%
X132000000Y-93000000D03*
D47*
%TO.P,J4,2,Pin_2_2*%
%TO.N,GND*%
X130000000Y-93000000D03*
%TD*%
D48*
%TO.P,J7,1,Pin_1_1*%
%TO.N,Net-(J7-Pin_1)*%
X130000000Y-123500000D03*
D49*
%TO.P,J7,2,Pin_2_2*%
%TO.N,/STM32 Controller/ledDataB*%
X130000000Y-121000000D03*
%TO.P,J7,3,Pin_3_3*%
%TO.N,GND*%
X130000000Y-118500000D03*
%TD*%
D46*
%TO.P,J5,1,Pin_1_1*%
%TO.N,/STM32 Controller/END.B*%
X132000000Y-100000000D03*
D47*
%TO.P,J5,2,Pin_2_2*%
%TO.N,GND*%
X130000000Y-100000000D03*
%TD*%
D48*
%TO.P,J6,1,Pin_1_1*%
%TO.N,Net-(J6-Pin_1)*%
X130000000Y-111500000D03*
D49*
%TO.P,J6,2,Pin_2_2*%
%TO.N,/STM32 Controller/ledDataA*%
X130000000Y-109000000D03*
%TO.P,J6,3,Pin_3_3*%
%TO.N,GND*%
X130000000Y-106500000D03*
%TD*%
D50*
%TO.N,Net-(U7-VBUS)*%
X160750000Y-91000000D03*
%TO.N,GND*%
X140000000Y-95750000D03*
X142250000Y-127500000D03*
X150000000Y-126500000D03*
X165750000Y-106750000D03*
X132000000Y-115500000D03*
X145050000Y-133050000D03*
X142750000Y-101250000D03*
X140000000Y-88500000D03*
X132250000Y-114500000D03*
X147650000Y-126850000D03*
X144020000Y-110400001D03*
X157000000Y-132500000D03*
X141250000Y-125500000D03*
X132250000Y-103750000D03*
X147250000Y-98750000D03*
X150000000Y-129500000D03*
X168250000Y-106000000D03*
X150000000Y-123500000D03*
X150000000Y-125000000D03*
X137000000Y-130000000D03*
X140000000Y-87500000D03*
X143750000Y-102250000D03*
X143750000Y-97750000D03*
X138500000Y-95750000D03*
X165750000Y-104500000D03*
X137750000Y-101750000D03*
X136000000Y-79000000D03*
X141250000Y-127500000D03*
X163500000Y-91000000D03*
X155000000Y-123500000D03*
X138250000Y-114500000D03*
X135250000Y-116500000D03*
X142750000Y-98750000D03*
X142500000Y-114000000D03*
X153008949Y-100747017D03*
X142500000Y-91500000D03*
X158000000Y-132500000D03*
X161750000Y-93750000D03*
X142250000Y-125500000D03*
X142500000Y-115000000D03*
X133000000Y-98500000D03*
X136000000Y-77500000D03*
X147650000Y-125900000D03*
X133000000Y-86250000D03*
X169750000Y-96750000D03*
X144000000Y-91500000D03*
X134750000Y-103750000D03*
X154000000Y-123500000D03*
X165750000Y-105250000D03*
X132750000Y-94500000D03*
X147250000Y-101250000D03*
X166250000Y-94750000D03*
X147750000Y-108250000D03*
X136000000Y-80500000D03*
X143750000Y-101250000D03*
X165750000Y-106000000D03*
X150000000Y-109500000D03*
X142500000Y-113000000D03*
X128000000Y-87750000D03*
X150000000Y-128000000D03*
X168250000Y-105250000D03*
X168250000Y-106750000D03*
X160000000Y-85000000D03*
X169750000Y-86500000D03*
X160000000Y-86500000D03*
X155250000Y-117000000D03*
X166250000Y-87250000D03*
X169750000Y-95500000D03*
X128000000Y-86250000D03*
X169750000Y-85250000D03*
X161750000Y-88250000D03*
X168250000Y-104500000D03*
X142750000Y-97750000D03*
X142500000Y-116000000D03*
X142750000Y-102250000D03*
X147250000Y-97750000D03*
X153250000Y-103500000D03*
X133000000Y-113000000D03*
X147250000Y-102250000D03*
X143750000Y-98750000D03*
X133000000Y-87750000D03*
X150000000Y-122250000D03*
%TO.N,/Motor Acuator/TMC.STEP*%
X157000000Y-97500000D03*
%TO.N,/Motor Acuator/TMC.DIR*%
X154500000Y-96500000D03*
%TO.N,+12V*%
X137000000Y-116500000D03*
X141250000Y-128750000D03*
X132250000Y-110500000D03*
X156000000Y-130750000D03*
X138000000Y-120000000D03*
X142250000Y-128750000D03*
X156000000Y-128500000D03*
X137000000Y-120000000D03*
X138000000Y-124000000D03*
X156000000Y-130000000D03*
X156000000Y-129250000D03*
X137000000Y-122000000D03*
X137000000Y-124000000D03*
X138000000Y-116500000D03*
X137000000Y-118500000D03*
X156000000Y-127750000D03*
X138000000Y-122000000D03*
X138000000Y-118500000D03*
%TO.N,+3V3*%
X157650000Y-118000000D03*
X148750000Y-106000000D03*
X150000000Y-92000000D03*
X136250000Y-85000000D03*
X146000000Y-113000000D03*
X139000000Y-101750000D03*
X136250000Y-86500000D03*
X168000000Y-99500000D03*
X155250000Y-94500000D03*
X139250000Y-79000000D03*
X143250000Y-94250000D03*
X143250000Y-93500000D03*
X141480000Y-110500000D03*
X146000000Y-114000000D03*
X151000000Y-101750000D03*
X139250000Y-77500000D03*
X146000000Y-115000000D03*
X163750000Y-79000000D03*
X136000000Y-82000000D03*
X146000000Y-116000000D03*
%TO.N,/Motor Acuator/TMC.DIAG*%
X154250000Y-103000000D03*
X152250000Y-97750000D03*
X153750000Y-100250000D03*
%TO.N,+5V*%
X139500000Y-114500000D03*
X139500000Y-116250000D03*
%TO.N,Net-(U5-Y)*%
X135000000Y-121000000D03*
%TO.N,Net-(U4-Y)*%
X134005241Y-110023760D03*
%TO.N,Net-(U7-VBUS)*%
X160750000Y-92750000D03*
%TO.N,/STM32 Controller/NRST*%
X144500000Y-82000000D03*
X152250000Y-101250000D03*
X143000000Y-82000000D03*
X151000000Y-89000000D03*
X152250000Y-104000000D03*
%TO.N,/STM32 Controller/INRP.A*%
X141250000Y-90000000D03*
%TO.N,Net-(U1-EN)*%
X143500000Y-131250000D03*
X146000000Y-129750000D03*
%TO.N,/STM32 Controller/BOOT*%
X146750000Y-105750000D03*
X146750000Y-89250000D03*
%TO.N,/ESP32 Weblink/IO20{slash}RXD*%
X144750000Y-90750000D03*
X144750000Y-105750000D03*
%TO.N,/ESP32 Weblink/IO21{slash}TXD*%
X145750000Y-90000000D03*
X145750000Y-105750000D03*
%TO.N,/STM32 Controller/INRP.B*%
X137250000Y-90000000D03*
%TD*%
%TO.N,Net-(U7-VBUS)*%
D51*
X162150000Y-91000000D02*
X160750000Y-91000000D01*
%TO.N,/ESP32 Weblink/D.-*%
X160450000Y-91950000D02*
X162150000Y-91950000D01*
X160075000Y-91575000D02*
X160450000Y-91950000D01*
X160075000Y-88177512D02*
X160075000Y-91575000D01*
X162427512Y-85825000D02*
X160075000Y-88177512D01*
X165325000Y-83572488D02*
X165325000Y-85177512D01*
X164677512Y-82925000D02*
X165325000Y-83572488D01*
X165325000Y-85177512D02*
X164677512Y-85825000D01*
X164112501Y-82925000D02*
X164677512Y-82925000D01*
X163537501Y-83500000D02*
X164112501Y-82925000D01*
X164677512Y-85825000D02*
X162427512Y-85825000D01*
X162825000Y-83500000D02*
X163537501Y-83500000D01*
%TO.N,/ESP32 Weblink/D.+*%
X160744975Y-90050000D02*
X162150000Y-90050000D01*
X160425000Y-89730025D02*
X160744975Y-90050000D01*
X160425000Y-88322488D02*
X160425000Y-89730025D01*
X162572488Y-86175000D02*
X160425000Y-88322488D01*
X164822488Y-86175000D02*
X162572488Y-86175000D01*
X164822488Y-82575000D02*
X165675000Y-83427512D01*
X164112501Y-82575000D02*
X164822488Y-82575000D01*
X162825000Y-82000000D02*
X163537501Y-82000000D01*
X165675000Y-83427512D02*
X165675000Y-85322488D01*
X165675000Y-85322488D02*
X164822488Y-86175000D01*
X163537501Y-82000000D02*
X164112501Y-82575000D01*
%TO.N,Net-(U7-VBUS)*%
X167930406Y-88600000D02*
X167320000Y-88600000D01*
X168580406Y-89250000D02*
X167930406Y-88600000D01*
X169500000Y-89250000D02*
X168580406Y-89250000D01*
X169500000Y-93000000D02*
X170000000Y-92500000D01*
X170000000Y-89750000D02*
X169500000Y-89250000D01*
X170000000Y-92500000D02*
X170000000Y-89750000D01*
X168294999Y-93000000D02*
X169500000Y-93000000D01*
X167320000Y-93400000D02*
X167894999Y-93400000D01*
X167894999Y-93400000D02*
X168294999Y-93000000D01*
%TO.N,/STM32 Controller/INRP.B\u002A*%
X137750000Y-96000000D02*
X137250000Y-95500000D01*
X138500000Y-92075000D02*
X138500000Y-92500000D01*
X138500000Y-93475000D02*
X138500000Y-93000000D01*
X137250000Y-95500000D02*
X137250000Y-93250000D01*
X138500000Y-92500000D02*
X138250000Y-92750000D01*
X140837500Y-97750000D02*
X138250000Y-97750000D01*
X138250000Y-97750000D02*
X137750000Y-97250000D01*
X137250000Y-93250000D02*
X137750000Y-92750000D01*
X138500000Y-93000000D02*
X138250000Y-92750000D01*
X138250000Y-92750000D02*
X137750000Y-92750000D01*
X137750000Y-97250000D02*
X137750000Y-96000000D01*
%TO.N,GND*%
X145050000Y-133050000D02*
X145050000Y-132150000D01*
X152550000Y-102800000D02*
X153250000Y-103500000D01*
X136975000Y-77500000D02*
X136000000Y-77500000D01*
X138250000Y-113775000D02*
X138250000Y-114500000D01*
X149325000Y-109500000D02*
X150000000Y-109500000D01*
X133700000Y-98500000D02*
X133000000Y-98500000D01*
X166800000Y-94200000D02*
X166250000Y-94750000D01*
X163500000Y-91000000D02*
X164850000Y-91000000D01*
X147750000Y-107550000D02*
X147750000Y-108250000D01*
X136975000Y-80500000D02*
X136000000Y-80500000D01*
X132250000Y-113775000D02*
X132250000Y-114500000D01*
X134112500Y-113000000D02*
X133000000Y-113000000D01*
X140000000Y-95025000D02*
X140000000Y-95750000D01*
X142250000Y-92475000D02*
X142250000Y-91750000D01*
X134200000Y-116862500D02*
X134887500Y-116862500D01*
X144750000Y-97500000D02*
X144500000Y-97750000D01*
X133000000Y-85750000D02*
X133000000Y-86250000D01*
X127200000Y-84950000D02*
X128000000Y-85750000D01*
X153008949Y-100208949D02*
X152550000Y-99750000D01*
X144750000Y-95837500D02*
X144750000Y-97500000D01*
X137450000Y-102750000D02*
X137450000Y-102050000D01*
X128000000Y-87750000D02*
X128000000Y-88250000D01*
X162675000Y-88250000D02*
X161750000Y-88250000D01*
X138500000Y-95025000D02*
X138500000Y-95750000D01*
X134887500Y-116862500D02*
X135250000Y-116500000D01*
X132550000Y-104862500D02*
X132550000Y-104050000D01*
X144250000Y-91750000D02*
X144000000Y-91500000D01*
X156100000Y-117000000D02*
X155250000Y-117000000D01*
X133000000Y-88250000D02*
X132200000Y-89050000D01*
X153008949Y-100747017D02*
X153008949Y-100208949D01*
X132200000Y-84950000D02*
X133000000Y-85750000D01*
X142750000Y-95837500D02*
X142750000Y-97750000D01*
X144020000Y-110400001D02*
X144020000Y-109385000D01*
X132550000Y-104050000D02*
X132250000Y-103750000D01*
X135650000Y-130000000D02*
X137000000Y-130000000D01*
X132000000Y-115500000D02*
X132300000Y-115800000D01*
X137450000Y-102050000D02*
X137750000Y-101750000D01*
X134450000Y-104050000D02*
X134750000Y-103750000D01*
X133700000Y-94500000D02*
X132750000Y-94500000D01*
X167320000Y-87800000D02*
X166800000Y-87800000D01*
X134450000Y-104862500D02*
X134450000Y-104050000D01*
X167320000Y-94200000D02*
X166800000Y-94200000D01*
X144250000Y-92475000D02*
X144250000Y-91750000D01*
X166800000Y-87800000D02*
X166250000Y-87250000D01*
X133000000Y-87750000D02*
X133000000Y-88250000D01*
X128000000Y-88250000D02*
X127200000Y-89050000D01*
X128000000Y-85750000D02*
X128000000Y-86250000D01*
X152550000Y-102750000D02*
X152550000Y-102800000D01*
X136975000Y-79000000D02*
X136000000Y-79000000D01*
X142250000Y-91750000D02*
X142500000Y-91500000D01*
X147250000Y-104162500D02*
X147250000Y-102250000D01*
X140837500Y-102250000D02*
X142750000Y-102250000D01*
X132300000Y-115800000D02*
X132300000Y-116862500D01*
X144500000Y-97750000D02*
X143750000Y-97750000D01*
X162675000Y-93750000D02*
X161750000Y-93750000D01*
%TO.N,/ESP32 Weblink/LED*%
X158750000Y-92000000D02*
X158750000Y-88000000D01*
%TO.N,Net-(D3-A)*%
X155250000Y-92000000D02*
X156875000Y-92000000D01*
%TO.N,/Motor Acuator/TMC.EN*%
X172890000Y-99390000D02*
X172890000Y-101650000D01*
X151000000Y-97250000D02*
X151250000Y-97000000D01*
X154562500Y-98500000D02*
X172000000Y-98500000D01*
X153062500Y-97000000D02*
X154562500Y-98500000D01*
X172000000Y-98500000D02*
X172890000Y-99390000D01*
X151250000Y-97000000D02*
X153062500Y-97000000D01*
X149162500Y-97250000D02*
X151000000Y-97250000D01*
%TO.N,/Motor Acuator/TMC.PDN*%
X165270000Y-99500000D02*
X165270000Y-101650000D01*
X151250000Y-98500000D02*
X153500000Y-98500000D01*
X151000000Y-98250000D02*
X151250000Y-98500000D01*
X149162500Y-98250000D02*
X151000000Y-98250000D01*
X165270000Y-99500000D02*
X154500000Y-99500000D01*
X153500000Y-98500000D02*
X154500000Y-99500000D01*
%TO.N,/Motor Acuator/TMC.DIR*%
X154500000Y-96500000D02*
X151250000Y-93250000D01*
X151250000Y-93250000D02*
X147750000Y-93250000D01*
X147750000Y-93250000D02*
X147250000Y-93750000D01*
X147250000Y-93750000D02*
X147250000Y-95837500D01*
%TO.N,+12V*%
D52*
X171800000Y-110800000D02*
X172890000Y-111890000D01*
D51*
X135250000Y-112750000D02*
X134550000Y-112050000D01*
X134800000Y-113950000D02*
X135250000Y-113500000D01*
D52*
X167000000Y-110800000D02*
X171800000Y-110800000D01*
D51*
X134112500Y-112050000D02*
X132425000Y-112050000D01*
X135250000Y-113500000D02*
X135250000Y-112750000D01*
X132425000Y-112050000D02*
X132250000Y-112225000D01*
X134550000Y-112050000D02*
X134112500Y-112050000D01*
D52*
X172890000Y-111890000D02*
X172890000Y-114350000D01*
D51*
X135650000Y-124000000D02*
X137000000Y-124000000D01*
X134112500Y-113950000D02*
X134800000Y-113950000D01*
X132250000Y-112225000D02*
X132250000Y-110500000D01*
%TO.N,/Motor Acuator/M10*%
D53*
X167810000Y-114350000D02*
X167810000Y-118640000D01*
X167810000Y-118640000D02*
X167750000Y-118700000D01*
%TO.N,/Motor Acuator/M11*%
X165270000Y-114350000D02*
X165270000Y-118680000D01*
X165270000Y-118680000D02*
X165250000Y-118700000D01*
%TO.N,/Motor Acuator/M12*%
X162730000Y-114350000D02*
X162730000Y-118680000D01*
X162730000Y-118680000D02*
X162750000Y-118700000D01*
%TO.N,/Motor Acuator/M13*%
X160190000Y-114350000D02*
X160190000Y-118640000D01*
X160190000Y-118640000D02*
X160250000Y-118700000D01*
%TO.N,+3V3*%
D51*
X138525000Y-79000000D02*
X139250000Y-79000000D01*
X151000000Y-102750000D02*
X151000000Y-101750000D01*
X139000000Y-76000000D02*
X141250000Y-76000000D01*
X137100000Y-86500000D02*
X136250000Y-86500000D01*
X166920000Y-99500000D02*
X168000000Y-99500000D01*
X139000000Y-102750000D02*
X140837500Y-102750000D01*
X137100000Y-85000000D02*
X136250000Y-85000000D01*
X149187500Y-92000000D02*
X150000000Y-92000000D01*
X155250000Y-93650000D02*
X155250000Y-94500000D01*
X143250000Y-94250000D02*
X143524999Y-94524999D01*
X157650000Y-117000000D02*
X157650000Y-114350000D01*
X151000000Y-102750000D02*
X149162500Y-102750000D01*
X143750001Y-94524999D02*
X144250000Y-94025000D01*
X157650000Y-117000000D02*
X157650000Y-118000000D01*
X143524999Y-94524999D02*
X143750001Y-94524999D01*
X147750000Y-106000000D02*
X147750000Y-104162500D01*
X138525000Y-77500000D02*
X138525000Y-76475000D01*
X138525000Y-76475000D02*
X139000000Y-76000000D01*
X143250000Y-93500000D02*
X142775000Y-93500000D01*
X142250000Y-95837500D02*
X142250000Y-94025000D01*
X162825000Y-79000000D02*
X163750000Y-79000000D01*
X142775000Y-93500000D02*
X142250000Y-94025000D01*
X143750001Y-95837500D02*
X143750001Y-94524999D01*
X139000000Y-102750000D02*
X139000000Y-101750000D01*
X138525000Y-77500000D02*
X139250000Y-77500000D01*
X144250000Y-94025000D02*
X144250000Y-95837500D01*
X136875000Y-82000000D02*
X136000000Y-82000000D01*
X138525000Y-79000000D02*
X138525000Y-77500000D01*
X141480000Y-110500000D02*
X141480000Y-109385000D01*
X147750000Y-106000000D02*
X148750000Y-106000000D01*
%TO.N,/Motor Acuator/TMC.DIAG*%
X149162500Y-97750000D02*
X152250000Y-97750000D01*
X154250000Y-103000000D02*
X153750000Y-102500000D01*
X153750000Y-102500000D02*
X153750000Y-100250000D01*
%TO.N,/ESP32 Weblink/IO8*%
X138750000Y-85000000D02*
X141250000Y-85000000D01*
%TO.N,+5V*%
X139500000Y-116250000D02*
X139500000Y-118500000D01*
X138250000Y-111500000D02*
X137750000Y-111000000D01*
X135500000Y-107500000D02*
X135137500Y-107137500D01*
X135500000Y-110500000D02*
X135500000Y-107500000D01*
X139225000Y-112225000D02*
X139500000Y-112500000D01*
X138862500Y-119137500D02*
X134200000Y-119137500D01*
X138250000Y-112225000D02*
X139225000Y-112225000D01*
X139500000Y-118500000D02*
X138862500Y-119137500D01*
X139500000Y-112500000D02*
X139500000Y-114500000D01*
X136000000Y-111000000D02*
X135500000Y-110500000D01*
X138075000Y-112050000D02*
X138250000Y-112225000D01*
X136387500Y-112050000D02*
X138075000Y-112050000D01*
X138250000Y-112225000D02*
X138250000Y-111500000D01*
X137750000Y-111000000D02*
X136000000Y-111000000D01*
X135137500Y-107137500D02*
X134450000Y-107137500D01*
%TO.N,Net-(U1-FB)*%
X151000000Y-115000000D02*
X151000000Y-130000000D01*
X148750000Y-115500000D02*
X148750000Y-114750000D01*
X145050000Y-130500000D02*
X145050000Y-128637500D01*
X149000000Y-114500000D02*
X150500000Y-114500000D01*
X150500000Y-130500000D02*
X145050000Y-130500000D01*
X148750000Y-114750000D02*
X149000000Y-114500000D01*
X150500000Y-114500000D02*
X151000000Y-115000000D01*
X151000000Y-130000000D02*
X150500000Y-130500000D01*
X148750000Y-114250000D02*
X148750000Y-113500000D01*
X149000000Y-114500000D02*
X148750000Y-114250000D01*
%TO.N,Net-(D2-K)*%
X147312500Y-92000000D02*
X146175000Y-92000000D01*
X146175000Y-92000000D02*
X145750000Y-92425000D01*
%TO.N,/STM32 Controller/U_LED*%
X145750000Y-94075000D02*
X145750000Y-95837500D01*
%TO.N,/STM32 Controller/INRP.A\u002A*%
X140000000Y-92075000D02*
X140000000Y-92500000D01*
X140000000Y-93000000D02*
X140250000Y-92750000D01*
X139500000Y-97250000D02*
X140837500Y-97250000D01*
X140000000Y-93475000D02*
X140000000Y-93000000D01*
X139250000Y-96750000D02*
X139250000Y-97000000D01*
X141000000Y-93000000D02*
X141000000Y-96250000D01*
X139500000Y-96500000D02*
X139250000Y-96750000D01*
X139250000Y-97000000D02*
X139500000Y-97250000D01*
X140750000Y-92750000D02*
X141000000Y-93000000D01*
X141000000Y-96250000D02*
X140750000Y-96500000D01*
X140000000Y-92500000D02*
X140250000Y-92750000D01*
X140750000Y-96500000D02*
X139500000Y-96500000D01*
X140250000Y-92750000D02*
X140750000Y-92750000D01*
%TO.N,/ESP32 Weblink/EN*%
X140000000Y-77750000D02*
X140250000Y-77500000D01*
X140250000Y-77500000D02*
X141250000Y-77500000D01*
X128800000Y-84950000D02*
X129750000Y-85900000D01*
X138000000Y-83500000D02*
X138525000Y-82975000D01*
X129750000Y-85900000D02*
X129750000Y-88100000D01*
X139750000Y-80500000D02*
X140000000Y-80250000D01*
X140000000Y-80250000D02*
X140000000Y-77750000D01*
X138525000Y-80500000D02*
X138525000Y-82000000D01*
X128800000Y-84950000D02*
X128800000Y-83950000D01*
X129750000Y-88100000D02*
X128800000Y-89050000D01*
X138525000Y-80500000D02*
X139750000Y-80500000D01*
X129250000Y-83500000D02*
X138000000Y-83500000D01*
X138525000Y-82975000D02*
X138525000Y-82000000D01*
X128800000Y-83950000D02*
X129250000Y-83500000D01*
%TO.N,Net-(U1-BOOT)*%
X148237500Y-128637500D02*
X146950000Y-128637500D01*
X148750000Y-128125000D02*
X148237500Y-128637500D01*
X148750000Y-126775000D02*
X148750000Y-128125000D01*
%TO.N,Net-(U1-SW)*%
D54*
X146000000Y-123921000D02*
X146000000Y-126362500D01*
D51*
X148750000Y-125225000D02*
X148750000Y-124500000D01*
X148750000Y-124500000D02*
X148171000Y-123921000D01*
X148171000Y-123921000D02*
X146000000Y-123921000D01*
%TO.N,Net-(U5-Y)*%
X132300000Y-119137500D02*
X134075000Y-120912500D01*
X134075000Y-120912500D02*
X134075000Y-121000000D01*
X134075000Y-121000000D02*
X135000000Y-121000000D01*
%TO.N,/STM32 Controller/ledDataB*%
X132425000Y-121000000D02*
X130000000Y-121000000D01*
%TO.N,/ESP32 Weblink/IO9*%
X138750000Y-88500000D02*
X138200000Y-89050000D01*
X133800000Y-84950000D02*
X134750000Y-85900000D01*
X138750000Y-86500000D02*
X138750000Y-88500000D01*
X138750000Y-86500000D02*
X141250000Y-86500000D01*
X134750000Y-85900000D02*
X134750000Y-88100000D01*
X134750000Y-88100000D02*
X133800000Y-89050000D01*
X138200000Y-89050000D02*
X133800000Y-89050000D01*
%TO.N,Net-(U4-Y)*%
X134325000Y-109704001D02*
X134005241Y-110023760D01*
X132550000Y-107137500D02*
X134325000Y-108912500D01*
X134325000Y-108912500D02*
X134325000Y-109000000D01*
X134325000Y-109000000D02*
X134325000Y-109704001D01*
%TO.N,/STM32 Controller/ledDataA*%
X132675000Y-109000000D02*
X130000000Y-109000000D01*
%TO.N,Net-(D6-A)*%
X134000000Y-124000000D02*
X134000000Y-126000000D01*
%TO.N,Net-(J3-D--PadA7)*%
X166250000Y-91000000D02*
X166250000Y-91750000D01*
X166050000Y-91950000D02*
X166250000Y-91750000D01*
X164850000Y-91950000D02*
X166050000Y-91950000D01*
X166500000Y-90750000D02*
X166250000Y-91000000D01*
X166250000Y-91750000D02*
X167320000Y-91750000D01*
X167320000Y-90750000D02*
X166500000Y-90750000D01*
%TO.N,Net-(J3-D+-PadA6)*%
X166250000Y-90250000D02*
X167320000Y-90250000D01*
X168500000Y-91000000D02*
X168250000Y-91250000D01*
X166050000Y-90050000D02*
X166250000Y-90250000D01*
X168250000Y-91250000D02*
X167320000Y-91250000D01*
X164850000Y-90050000D02*
X166050000Y-90050000D01*
X168250000Y-90250000D02*
X168500000Y-90500000D01*
X167320000Y-90250000D02*
X168250000Y-90250000D01*
X168500000Y-90500000D02*
X168500000Y-91000000D01*
%TO.N,Net-(U7-VBUS)*%
X160750000Y-94750000D02*
X161250000Y-95250000D01*
X160750000Y-92750000D02*
X160750000Y-94750000D01*
X161250000Y-95250000D02*
X164750000Y-95250000D01*
X166600000Y-93400000D02*
X167320000Y-93400000D01*
X164750000Y-95250000D02*
X166600000Y-93400000D01*
%TO.N,/ESP32 Weblink/D+*%
X161175000Y-82000000D02*
X158750000Y-82000000D01*
%TO.N,/ESP32 Weblink/D-*%
X158750000Y-83500000D02*
X161175000Y-83500000D01*
%TO.N,/STM32 Controller/SWDIO*%
X142250000Y-106250000D02*
X141480000Y-107020000D01*
X142250000Y-104162500D02*
X142250000Y-106250000D01*
X141480000Y-107020000D02*
X141480000Y-108115000D01*
%TO.N,/STM32 Controller/NRST*%
X151500000Y-101250000D02*
X151000000Y-100750000D01*
X144500000Y-82000000D02*
X145000000Y-82500000D01*
X149162500Y-99750000D02*
X151000000Y-99750000D01*
X145500000Y-88500000D02*
X150500000Y-88500000D01*
X150500000Y-88500000D02*
X151000000Y-89000000D01*
X152250000Y-110250000D02*
X152250000Y-104000000D01*
X151000000Y-100750000D02*
X151000000Y-99750000D01*
X152250000Y-101250000D02*
X151500000Y-101250000D01*
X145000000Y-88000000D02*
X145500000Y-88500000D01*
X145000000Y-82500000D02*
X145000000Y-88000000D01*
X142750000Y-110250000D02*
X143500000Y-111000000D01*
X142750000Y-109385000D02*
X142750000Y-110250000D01*
X141250000Y-82000000D02*
X143000000Y-82000000D01*
X151500000Y-111000000D02*
X152250000Y-110250000D01*
X143500000Y-111000000D02*
X151500000Y-111000000D01*
%TO.N,/STM32 Controller/SWCLK*%
X142750000Y-108115000D02*
X142750000Y-104162500D01*
%TO.N,/STM32 Controller/INRP.A*%
X140825000Y-90425000D02*
X141250000Y-90000000D01*
X140000000Y-90425000D02*
X140825000Y-90425000D01*
%TO.N,Net-(U1-EN)*%
X146000000Y-128637500D02*
X146000000Y-129750000D01*
X143500000Y-131250000D02*
X143500000Y-130500000D01*
%TO.N,/STM32 Controller/LED.B*%
X138250000Y-100250000D02*
X140837500Y-100250000D01*
X139250000Y-109750000D02*
X137000000Y-109750000D01*
X136500000Y-109250000D02*
X136500000Y-102000000D01*
X140250000Y-115000000D02*
X140250000Y-110750000D01*
X137000000Y-109750000D02*
X136500000Y-109250000D01*
X133250000Y-116000000D02*
X133750000Y-115500000D01*
X133250000Y-116862500D02*
X133250000Y-116000000D01*
X133750000Y-115500000D02*
X139750000Y-115500000D01*
X136500000Y-102000000D02*
X138250000Y-100250000D01*
X139750000Y-115500000D02*
X140250000Y-115000000D01*
X140250000Y-110750000D02*
X139250000Y-109750000D01*
%TO.N,Net-(J1-Pin_1)*%
D52*
X157500000Y-125012500D02*
X159987500Y-125012500D01*
D51*
X159987500Y-125012500D02*
X160000000Y-125000000D01*
%TO.N,Net-(D6-K)*%
X134000000Y-127875000D02*
X134000000Y-130000000D01*
%TO.N,Net-(J3-CC1)*%
X165000000Y-93750000D02*
X164325000Y-93750000D01*
X167320000Y-92250000D02*
X166500000Y-92250000D01*
X166500000Y-92250000D02*
X165000000Y-93750000D01*
%TO.N,Net-(J3-CC2)*%
X167320000Y-89250000D02*
X166500000Y-89250000D01*
X165500000Y-88250000D02*
X164325000Y-88250000D01*
X166500000Y-89250000D02*
X165500000Y-88250000D01*
%TO.N,/STM32 Controller/LED.A*%
X136500000Y-101000000D02*
X137750000Y-99750000D01*
X134500000Y-101000000D02*
X136500000Y-101000000D01*
X137750000Y-99750000D02*
X140837500Y-99750000D01*
X133500000Y-104862500D02*
X133500000Y-102000000D01*
X133500000Y-102000000D02*
X134500000Y-101000000D01*
%TO.N,/STM32 Controller/BOOT*%
X143750000Y-81000000D02*
X143750000Y-88750000D01*
X146249999Y-104162500D02*
X146249999Y-105249999D01*
X141250000Y-80500000D02*
X143250000Y-80500000D01*
X143250000Y-80500000D02*
X143750000Y-81000000D01*
X146249999Y-105249999D02*
X146750000Y-105750000D01*
X143750000Y-88750000D02*
X144250000Y-89250000D01*
X144250000Y-89250000D02*
X146750000Y-89250000D01*
X147675000Y-109500000D02*
X146750000Y-108575000D01*
X146750000Y-108575000D02*
X146750000Y-105750000D01*
%TO.N,/ESP32 Weblink/IO20{slash}RXD*%
X145250000Y-105250000D02*
X144750000Y-105750000D01*
X145250000Y-104162500D02*
X145250000Y-105250000D01*
X154250000Y-86500000D02*
X158750000Y-86500000D01*
X153750000Y-90250000D02*
X153750000Y-87000000D01*
X144750000Y-90750000D02*
X153250000Y-90750000D01*
X153250000Y-90750000D02*
X153750000Y-90250000D01*
X153750000Y-87000000D02*
X154250000Y-86500000D01*
%TO.N,/ESP32 Weblink/IO21{slash}TXD*%
X145750000Y-104162500D02*
X145750000Y-105750000D01*
X153000000Y-85000000D02*
X152500000Y-85500000D01*
X152500000Y-89500000D02*
X152000000Y-90000000D01*
X158750000Y-85000000D02*
X153000000Y-85000000D01*
X152000000Y-90000000D02*
X145750000Y-90000000D01*
X152500000Y-85500000D02*
X152500000Y-89500000D01*
%TO.N,/ESP32 Weblink/IO2*%
X161175000Y-79000000D02*
X158750000Y-79000000D01*
%TO.N,/STM32 Controller/END.B*%
X132000000Y-100000000D02*
X133600000Y-100000000D01*
%TO.N,/STM32 Controller/END.B\u002A*%
X135250000Y-100000000D02*
X136250000Y-100000000D01*
X137499999Y-98750001D02*
X140837500Y-98750001D01*
X135250000Y-98500000D02*
X135250000Y-100000000D01*
X136250000Y-100000000D02*
X137499999Y-98750001D01*
%TO.N,/STM32 Controller/END.A\u002A*%
X137100000Y-97850000D02*
X137500000Y-98250000D01*
X137500000Y-98250000D02*
X140837500Y-98250000D01*
X135750000Y-96250000D02*
X136500000Y-96250000D01*
X135250000Y-93000000D02*
X135250000Y-94500000D01*
X136500000Y-96250000D02*
X137100000Y-96850000D01*
X137100000Y-96850000D02*
X137100000Y-97850000D01*
X135250000Y-94500000D02*
X135250000Y-95750000D01*
X135250000Y-95750000D02*
X135750000Y-96250000D01*
%TO.N,/STM32 Controller/INRP.B*%
X138500000Y-90425000D02*
X137675000Y-90425000D01*
X137675000Y-90425000D02*
X137250000Y-90000000D01*
%TO.N,/STM32 Controller/END.A*%
X133600000Y-93000000D02*
X132000000Y-93000000D01*
%TO.N,/Motor Acuator/TMC.STEP*%
X157000000Y-97500000D02*
X154500000Y-97500000D01*
X154500000Y-97500000D02*
X151000000Y-94000000D01*
X151000000Y-94000000D02*
X148250000Y-94000000D01*
X147750000Y-94500000D02*
X147750000Y-95837500D01*
X148250000Y-94000000D02*
X147750000Y-94500000D01*
%TD*%
%TA.AperFunction,Conductor*%
%TO.N,GND*%
G36*
X158443039Y-131019685D02*
G01*
X158488794Y-131072489D01*
X158500000Y-131124000D01*
X158500000Y-132876000D01*
X158480315Y-132943039D01*
X158427511Y-132988794D01*
X158376000Y-133000000D01*
X156624000Y-133000000D01*
X156556961Y-132980315D01*
X156511206Y-132927511D01*
X156500000Y-132876000D01*
X156500000Y-131551362D01*
X156519685Y-131484323D01*
X156536319Y-131463681D01*
X156963681Y-131036319D01*
X157025004Y-131002834D01*
X157051362Y-131000000D01*
X158376000Y-131000000D01*
X158443039Y-131019685D01*
G37*
%TD.AperFunction*%
%TD*%
%TA.AperFunction,Conductor*%
%TO.N,+12V*%
G36*
X158393106Y-127267523D02*
G01*
X158408104Y-127271927D01*
X158466855Y-127309672D01*
X158468042Y-127311041D01*
X158495518Y-127365902D01*
X158497163Y-127373460D01*
X158500000Y-127399831D01*
X158500000Y-130620670D01*
X158494975Y-130655614D01*
X158490570Y-130670612D01*
X158452827Y-130729355D01*
X158451458Y-130730542D01*
X158396597Y-130758018D01*
X158389039Y-130759663D01*
X158362668Y-130762500D01*
X156749998Y-130762500D01*
X155798926Y-131713573D01*
X155770675Y-131734722D01*
X155747587Y-131747330D01*
X155688157Y-131762500D01*
X153641830Y-131762500D01*
X153606889Y-131757475D01*
X153591890Y-131753070D01*
X153533144Y-131715327D01*
X153531957Y-131713958D01*
X153504477Y-131659083D01*
X153502832Y-131651521D01*
X153500000Y-131625168D01*
X153500000Y-127404329D01*
X153505023Y-127369393D01*
X153509427Y-127354395D01*
X153547172Y-127295644D01*
X153548541Y-127294457D01*
X153603420Y-127266977D01*
X153610979Y-127265333D01*
X153637332Y-127262500D01*
X158358170Y-127262500D01*
X158393106Y-127267523D01*
G37*
%TD.AperFunction*%
%TD*%
%TA.AperFunction,Conductor*%
%TO.N,GND*%
G36*
X142443039Y-125269685D02*
G01*
X142488794Y-125322489D01*
X142500000Y-125374000D01*
X142500000Y-125698638D01*
X142480315Y-125765677D01*
X142463681Y-125786319D01*
X142250000Y-125999999D01*
X142250000Y-127000000D01*
X142463681Y-127213681D01*
X142497166Y-127275004D01*
X142500000Y-127301362D01*
X142500000Y-127626000D01*
X142480315Y-127693039D01*
X142427511Y-127738794D01*
X142376000Y-127750000D01*
X141124000Y-127750000D01*
X141056961Y-127730315D01*
X141011206Y-127677511D01*
X141000000Y-127626000D01*
X141000000Y-125374000D01*
X141019685Y-125306961D01*
X141072489Y-125261206D01*
X141124000Y-125250000D01*
X142376000Y-125250000D01*
X142443039Y-125269685D01*
G37*
%TD.AperFunction*%
%TD*%
%TA.AperFunction,Conductor*%
%TO.N,+12V*%
G36*
X145143106Y-125755023D02*
G01*
X145158104Y-125759427D01*
X145216855Y-125797172D01*
X145218042Y-125798541D01*
X145245518Y-125853402D01*
X145247163Y-125860960D01*
X145250000Y-125887331D01*
X145250000Y-126858170D01*
X145244975Y-126893114D01*
X145240570Y-126908112D01*
X145202827Y-126966855D01*
X145201458Y-126968042D01*
X145146597Y-126995518D01*
X145139039Y-126997163D01*
X145112668Y-127000000D01*
X144499998Y-127000000D01*
X144000000Y-127499998D01*
X144000000Y-129108170D01*
X143994975Y-129143114D01*
X143990570Y-129158112D01*
X143952827Y-129216855D01*
X143951458Y-129218042D01*
X143896597Y-129245518D01*
X143889039Y-129247163D01*
X143862668Y-129250000D01*
X140891830Y-129250000D01*
X140856889Y-129244975D01*
X140841890Y-129240570D01*
X140783144Y-129202827D01*
X140781957Y-129201458D01*
X140754477Y-129146583D01*
X140752832Y-129139021D01*
X140750000Y-129112668D01*
X140750000Y-128391829D01*
X140755023Y-128356893D01*
X140759427Y-128341895D01*
X140797172Y-128283144D01*
X140798541Y-128281957D01*
X140853420Y-128254477D01*
X140860979Y-128252833D01*
X140887332Y-128250000D01*
X142650000Y-128250000D01*
X142950000Y-127950000D01*
X142950000Y-125891829D01*
X142955023Y-125856893D01*
X142959427Y-125841895D01*
X142997172Y-125783144D01*
X142998541Y-125781957D01*
X143053420Y-125754477D01*
X143060979Y-125752833D01*
X143087332Y-125750000D01*
X145108170Y-125750000D01*
X145143106Y-125755023D01*
G37*
%TD.AperFunction*%
%TD*%
%TA.AperFunction,Conductor*%
%TO.N,+3V3*%
G36*
X147643106Y-112505023D02*
G01*
X147658104Y-112509427D01*
X147716855Y-112547172D01*
X147718042Y-112548541D01*
X147745518Y-112603402D01*
X147747163Y-112610960D01*
X147750000Y-112637331D01*
X147750000Y-119358170D01*
X147744975Y-119393114D01*
X147740570Y-119408112D01*
X147702827Y-119466855D01*
X147701458Y-119468042D01*
X147646597Y-119495518D01*
X147639039Y-119497163D01*
X147612668Y-119500000D01*
X144391830Y-119500000D01*
X144356889Y-119494975D01*
X144341890Y-119490570D01*
X144283144Y-119452827D01*
X144281957Y-119451458D01*
X144254477Y-119396583D01*
X144252832Y-119389021D01*
X144250000Y-119362668D01*
X144250000Y-115995760D01*
X144251262Y-115978113D01*
X144251312Y-115977764D01*
X144255500Y-115948638D01*
X144255500Y-113051362D01*
X144254036Y-113024048D01*
X144251202Y-112997690D01*
X144250711Y-112993122D01*
X144250000Y-112979865D01*
X144250000Y-112641829D01*
X144255023Y-112606893D01*
X144259427Y-112591895D01*
X144297172Y-112533144D01*
X144298541Y-112531957D01*
X144353420Y-112504477D01*
X144360979Y-112502833D01*
X144387332Y-112500000D01*
X147608170Y-112500000D01*
X147643106Y-112505023D01*
G37*
%TD.AperFunction*%
%TD*%
%TA.AperFunction,Conductor*%
%TO.N,GND*%
G36*
X155443039Y-123019685D02*
G01*
X155488794Y-123072489D01*
X155500000Y-123124000D01*
X155500000Y-126626000D01*
X155480315Y-126693039D01*
X155427511Y-126738794D01*
X155376000Y-126750000D01*
X153624000Y-126750000D01*
X153556961Y-126730315D01*
X153511206Y-126677511D01*
X153500000Y-126626000D01*
X153500000Y-123124000D01*
X153519685Y-123056961D01*
X153572489Y-123011206D01*
X153624000Y-123000000D01*
X155376000Y-123000000D01*
X155443039Y-123019685D01*
G37*
%TD.AperFunction*%
%TD*%
%TA.AperFunction,Conductor*%
%TO.N,GND*%
G36*
X140265677Y-87269685D02*
G01*
X140286319Y-87286319D01*
X140500000Y-87500000D01*
X141876000Y-87500000D01*
X141943039Y-87519685D01*
X141988794Y-87572489D01*
X142000000Y-87624000D01*
X142000000Y-88376000D01*
X141980315Y-88443039D01*
X141927511Y-88488794D01*
X141876000Y-88500000D01*
X140499999Y-88500000D01*
X140286319Y-88713681D01*
X140224996Y-88747166D01*
X140198638Y-88750000D01*
X139874000Y-88750000D01*
X139806961Y-88730315D01*
X139761206Y-88677511D01*
X139750000Y-88626000D01*
X139750000Y-87374000D01*
X139769685Y-87306961D01*
X139822489Y-87261206D01*
X139874000Y-87250000D01*
X140198638Y-87250000D01*
X140265677Y-87269685D01*
G37*
%TD.AperFunction*%
%TD*%
%TA.AperFunction,Conductor*%
%TO.N,GND*%
G36*
X147943039Y-125519685D02*
G01*
X147988794Y-125572489D01*
X148000000Y-125624000D01*
X148000000Y-127126000D01*
X147980315Y-127193039D01*
X147927511Y-127238794D01*
X147876000Y-127250000D01*
X147051362Y-127250000D01*
X146984323Y-127230315D01*
X146963681Y-127213681D01*
X146786319Y-127036319D01*
X146752834Y-126974996D01*
X146750000Y-126948638D01*
X146750000Y-125801362D01*
X146769685Y-125734323D01*
X146786319Y-125713681D01*
X146963681Y-125536319D01*
X147025004Y-125502834D01*
X147051362Y-125500000D01*
X147876000Y-125500000D01*
X147943039Y-125519685D01*
G37*
%TD.AperFunction*%
%TD*%
%TA.AperFunction,Conductor*%
%TO.N,GND*%
G36*
X172943039Y-95019685D02*
G01*
X172988794Y-95072489D01*
X173000000Y-95124000D01*
X173000000Y-97126000D01*
X172980315Y-97193039D01*
X172927511Y-97238794D01*
X172876000Y-97250000D01*
X166874000Y-97250000D01*
X166806961Y-97230315D01*
X166761206Y-97177511D01*
X166750000Y-97126000D01*
X166750000Y-95124000D01*
X166769685Y-95056961D01*
X166822489Y-95011206D01*
X166874000Y-95000000D01*
X172876000Y-95000000D01*
X172943039Y-95019685D01*
G37*
%TD.AperFunction*%
%TD*%
%TA.AperFunction,Conductor*%
%TO.N,GND*%
G36*
X168693039Y-103269685D02*
G01*
X168738794Y-103322489D01*
X168750000Y-103374000D01*
X168750000Y-107126000D01*
X168730315Y-107193039D01*
X168677511Y-107238794D01*
X168626000Y-107250000D01*
X165374000Y-107250000D01*
X165306961Y-107230315D01*
X165261206Y-107177511D01*
X165250000Y-107126000D01*
X165250000Y-103374000D01*
X165269685Y-103306961D01*
X165322489Y-103261206D01*
X165374000Y-103250000D01*
X168626000Y-103250000D01*
X168693039Y-103269685D01*
G37*
%TD.AperFunction*%
%TD*%
%TA.AperFunction,Conductor*%
%TO.N,GND*%
G36*
X143515677Y-112519685D02*
G01*
X143536319Y-112536319D01*
X143963681Y-112963681D01*
X143997166Y-113025004D01*
X144000000Y-113051362D01*
X144000000Y-115948638D01*
X143980315Y-116015677D01*
X143963681Y-116036319D01*
X143536319Y-116463681D01*
X143474996Y-116497166D01*
X143448638Y-116500000D01*
X142124000Y-116500000D01*
X142056961Y-116480315D01*
X142011206Y-116427511D01*
X142000000Y-116376000D01*
X142000000Y-112624000D01*
X142019685Y-112556961D01*
X142072489Y-112511206D01*
X142124000Y-112500000D01*
X143448638Y-112500000D01*
X143515677Y-112519685D01*
G37*
%TD.AperFunction*%
%TD*%
%TA.AperFunction,Conductor*%
%TO.N,GND*%
G36*
X172943039Y-84769685D02*
G01*
X172988794Y-84822489D01*
X173000000Y-84874000D01*
X173000000Y-86876000D01*
X172980315Y-86943039D01*
X172927511Y-86988794D01*
X172876000Y-87000000D01*
X166874000Y-87000000D01*
X166806961Y-86980315D01*
X166761206Y-86927511D01*
X166750000Y-86876000D01*
X166750000Y-84874000D01*
X166769685Y-84806961D01*
X166822489Y-84761206D01*
X166874000Y-84750000D01*
X172876000Y-84750000D01*
X172943039Y-84769685D01*
G37*
%TD.AperFunction*%
%TD*%
%TA.AperFunction,Conductor*%
%TO.N,GND*%
G36*
X147693039Y-97269685D02*
G01*
X147738794Y-97322489D01*
X147750000Y-97374000D01*
X147750000Y-102626000D01*
X147730315Y-102693039D01*
X147677511Y-102738794D01*
X147626000Y-102750000D01*
X142374000Y-102750000D01*
X142306961Y-102730315D01*
X142261206Y-102677511D01*
X142250000Y-102626000D01*
X142250000Y-97374000D01*
X142269685Y-97306961D01*
X142322489Y-97261206D01*
X142374000Y-97250000D01*
X147626000Y-97250000D01*
X147693039Y-97269685D01*
G37*
%TD.AperFunction*%
%TD*%
%TA.AperFunction,Conductor*%
%TO.N,GND*%
G36*
X145057747Y-132155844D02*
G01*
X145442328Y-132495615D01*
X145446259Y-132503661D01*
X145444300Y-132510897D01*
X145153476Y-132944814D01*
X145146023Y-132949778D01*
X145143757Y-132950000D01*
X144956243Y-132950000D01*
X144947970Y-132946573D01*
X144946524Y-132944814D01*
X144655698Y-132510895D01*
X144653940Y-132502117D01*
X144657670Y-132495616D01*
X145042253Y-132155843D01*
X145050722Y-132152934D01*
X145057747Y-132155844D01*
G37*
%TD.AperFunction*%
%TD*%
%TA.AperFunction,Conductor*%
%TO.N,GND*%
G36*
X136658429Y-77058776D02*
G01*
X136971080Y-77493165D01*
X136973132Y-77501882D01*
X136971080Y-77506835D01*
X136658429Y-77941223D01*
X136650815Y-77945936D01*
X136642866Y-77944392D01*
X136080633Y-77603416D01*
X136075336Y-77596196D01*
X136075000Y-77593412D01*
X136075000Y-77406587D01*
X136078427Y-77398314D01*
X136080628Y-77396586D01*
X136642868Y-77055606D01*
X136651717Y-77054247D01*
X136658429Y-77058776D01*
G37*
%TD.AperFunction*%
%TD*%
%TA.AperFunction,Conductor*%
%TO.N,GND*%
G36*
X138258017Y-113781547D02*
G01*
X138492106Y-114001902D01*
X138650736Y-114151227D01*
X138654412Y-114159393D01*
X138651385Y-114167605D01*
X138353483Y-114496159D01*
X138345387Y-114499986D01*
X138344815Y-114500000D01*
X138155185Y-114500000D01*
X138146912Y-114496573D01*
X138146517Y-114496159D01*
X137848614Y-114167605D01*
X137845596Y-114159174D01*
X137849262Y-114151227D01*
X138241981Y-113781547D01*
X138250353Y-113778372D01*
X138258017Y-113781547D01*
G37*
%TD.AperFunction*%
%TD*%
%TA.AperFunction,Conductor*%
%TO.N,GND*%
G36*
X149685961Y-109107973D02*
G01*
X149686181Y-109108173D01*
X149866756Y-109276093D01*
X149996267Y-109396529D01*
X149999992Y-109404671D01*
X150000000Y-109405096D01*
X150000000Y-109594903D01*
X149996573Y-109603176D01*
X149996267Y-109603471D01*
X149686181Y-109891826D01*
X149677789Y-109894950D01*
X149669646Y-109891225D01*
X149669446Y-109891005D01*
X149330844Y-109507747D01*
X149327934Y-109499278D01*
X149330844Y-109492253D01*
X149407846Y-109405096D01*
X149669447Y-109108993D01*
X149677492Y-109105063D01*
X149685961Y-109107973D01*
G37*
%TD.AperFunction*%
%TD*%
%TA.AperFunction,Conductor*%
%TO.N,GND*%
G36*
X133323921Y-98099422D02*
G01*
X133324027Y-98099534D01*
X133522631Y-98310515D01*
X133693451Y-98491981D01*
X133696627Y-98500353D01*
X133693451Y-98508019D01*
X133324077Y-98900413D01*
X133315911Y-98904089D01*
X133307539Y-98900913D01*
X133307375Y-98900757D01*
X133307023Y-98900413D01*
X133003517Y-98603441D01*
X133000001Y-98595205D01*
X133000000Y-98595078D01*
X133000000Y-98404921D01*
X133003427Y-98396648D01*
X133003483Y-98396591D01*
X133307377Y-98099241D01*
X133315685Y-98095906D01*
X133323921Y-98099422D01*
G37*
%TD.AperFunction*%
%TD*%
%TA.AperFunction,Conductor*%
%TO.N,GND*%
G36*
X147758017Y-107556547D02*
G01*
X148150413Y-107925922D01*
X148154089Y-107934088D01*
X148150913Y-107942460D01*
X148150757Y-107942624D01*
X147853441Y-108246483D01*
X147845205Y-108249999D01*
X147845078Y-108250000D01*
X147654922Y-108250000D01*
X147646649Y-108246573D01*
X147646559Y-108246483D01*
X147349242Y-107942624D01*
X147345906Y-107934314D01*
X147349422Y-107926078D01*
X147349433Y-107926067D01*
X147741981Y-107556547D01*
X147750353Y-107553372D01*
X147758017Y-107556547D01*
G37*
%TD.AperFunction*%
%TD*%
%TA.AperFunction,Conductor*%
%TO.N,GND*%
G36*
X136655509Y-80056805D02*
G01*
X136656698Y-80057608D01*
X136659648Y-80060470D01*
X136910440Y-80408914D01*
X136969720Y-80491275D01*
X136971613Y-80495431D01*
X136972267Y-80498211D01*
X136971695Y-80505350D01*
X136971608Y-80505561D01*
X136970287Y-80507936D01*
X136659787Y-80939335D01*
X136656446Y-80942450D01*
X136654705Y-80943527D01*
X136646323Y-80945063D01*
X136644920Y-80944791D01*
X136641080Y-80943309D01*
X136637640Y-80941223D01*
X136082622Y-80604622D01*
X136079256Y-80601539D01*
X136077267Y-80598828D01*
X136075000Y-80591907D01*
X136075000Y-80408914D01*
X136075890Y-80404438D01*
X136077178Y-80401328D01*
X136081919Y-80395802D01*
X136640881Y-80056810D01*
X136645166Y-80055253D01*
X136647195Y-80054941D01*
X136655509Y-80056805D01*
G37*
%TD.AperFunction*%
%TD*%
%TA.AperFunction,Conductor*%
%TO.N,GND*%
G36*
X132258017Y-113781547D02*
G01*
X132492106Y-114001902D01*
X132650736Y-114151227D01*
X132654412Y-114159393D01*
X132651385Y-114167605D01*
X132353483Y-114496159D01*
X132345387Y-114499986D01*
X132344815Y-114500000D01*
X132155185Y-114500000D01*
X132146912Y-114496573D01*
X132146517Y-114496159D01*
X131848614Y-114167605D01*
X131845596Y-114159174D01*
X131849262Y-114151227D01*
X132241981Y-113781547D01*
X132250353Y-113778372D01*
X132258017Y-113781547D01*
G37*
%TD.AperFunction*%
%TD*%
%TA.AperFunction,Conductor*%
%TO.N,GND*%
G36*
X140008017Y-95031547D02*
G01*
X140242106Y-95251902D01*
X140400736Y-95401227D01*
X140404412Y-95409393D01*
X140401385Y-95417605D01*
X140103483Y-95746159D01*
X140095387Y-95749986D01*
X140094815Y-95750000D01*
X139905185Y-95750000D01*
X139896912Y-95746573D01*
X139896517Y-95746159D01*
X139598614Y-95417605D01*
X139595596Y-95409174D01*
X139599262Y-95401227D01*
X139991981Y-95031547D01*
X140000353Y-95028372D01*
X140008017Y-95031547D01*
G37*
%TD.AperFunction*%
%TD*%
%TA.AperFunction,Conductor*%
%TO.N,GND*%
G36*
X142311305Y-91563818D02*
G01*
X142433537Y-91686050D01*
X142436964Y-91694323D01*
X142433537Y-91702596D01*
X142430992Y-91704525D01*
X142350000Y-91749999D01*
X142350000Y-91750000D01*
X142651386Y-92082394D01*
X142654404Y-92090825D01*
X142650737Y-92098772D01*
X142258019Y-92468451D01*
X142249647Y-92471627D01*
X142241981Y-92468451D01*
X142058893Y-92296105D01*
X141849261Y-92098771D01*
X141845586Y-92090606D01*
X141848612Y-92082396D01*
X142150000Y-91750000D01*
X142150000Y-91749998D01*
X142150002Y-91749997D01*
X142169635Y-91702596D01*
X142178399Y-91681437D01*
X142180931Y-91677646D01*
X142294762Y-91563816D01*
X142303032Y-91560391D01*
X142311305Y-91563818D01*
G37*
%TD.AperFunction*%
%TD*%
%TA.AperFunction,Conductor*%
%TO.N,GND*%
G36*
X134507966Y-116567810D02*
G01*
X134794790Y-116759027D01*
X134799773Y-116766466D01*
X134800000Y-116768761D01*
X134800000Y-116956238D01*
X134796573Y-116964511D01*
X134794790Y-116965973D01*
X134507967Y-117157188D01*
X134499182Y-117158926D01*
X134493218Y-117155740D01*
X134293050Y-116956238D01*
X134207313Y-116870785D01*
X134203873Y-116862519D01*
X134207285Y-116854241D01*
X134493218Y-116569258D01*
X134501496Y-116565846D01*
X134507966Y-116567810D01*
G37*
%TD.AperFunction*%
%TD*%
%TA.AperFunction,Conductor*%
%TO.N,GND*%
G36*
X137546660Y-101828463D02*
G01*
X137669817Y-101951620D01*
X137673244Y-101959893D01*
X137669817Y-101968166D01*
X137668129Y-101969564D01*
X137550000Y-102049999D01*
X137550000Y-102050000D01*
X137779221Y-102284709D01*
X137826280Y-102332895D01*
X137829609Y-102341208D01*
X137826449Y-102349068D01*
X137458539Y-102741882D01*
X137450383Y-102745578D01*
X137442002Y-102742423D01*
X137441461Y-102741882D01*
X137073550Y-102349068D01*
X137070395Y-102340687D01*
X137073718Y-102332896D01*
X137350000Y-102050000D01*
X137378399Y-101981437D01*
X137380931Y-101977646D01*
X137530117Y-101828461D01*
X137538387Y-101825036D01*
X137546660Y-101828463D01*
G37*
%TD.AperFunction*%
%TD*%
%TA.AperFunction,Conductor*%
%TO.N,GND*%
G36*
X162329384Y-87857671D02*
G01*
X162669155Y-88242253D01*
X162672065Y-88250722D01*
X162669155Y-88257747D01*
X162329384Y-88642328D01*
X162321338Y-88646259D01*
X162314102Y-88644300D01*
X161880186Y-88353475D01*
X161875222Y-88346022D01*
X161875000Y-88343756D01*
X161875000Y-88156243D01*
X161878427Y-88147970D01*
X161880186Y-88146524D01*
X162314104Y-87855698D01*
X162322882Y-87853940D01*
X162329384Y-87857671D01*
G37*
%TD.AperFunction*%
%TD*%
%TA.AperFunction,Conductor*%
%TO.N,GND*%
G36*
X138508017Y-95031547D02*
G01*
X138742106Y-95251902D01*
X138900736Y-95401227D01*
X138904412Y-95409393D01*
X138901385Y-95417605D01*
X138603483Y-95746159D01*
X138595387Y-95749986D01*
X138594815Y-95750000D01*
X138405185Y-95750000D01*
X138396912Y-95746573D01*
X138396517Y-95746159D01*
X138098614Y-95417605D01*
X138095596Y-95409174D01*
X138099262Y-95401227D01*
X138491981Y-95031547D01*
X138500353Y-95028372D01*
X138508017Y-95031547D01*
G37*
%TD.AperFunction*%
%TD*%
%TA.AperFunction,Conductor*%
%TO.N,GND*%
G36*
X132522916Y-103881495D02*
G01*
X132619065Y-103977643D01*
X132621601Y-103981439D01*
X132649997Y-104049996D01*
X132649998Y-104049998D01*
X132801720Y-104238534D01*
X132804237Y-104247128D01*
X132803418Y-104250338D01*
X132560813Y-104837337D01*
X132554486Y-104843674D01*
X132545531Y-104843681D01*
X132539194Y-104837354D01*
X132539187Y-104837337D01*
X132296581Y-104250338D01*
X132296588Y-104241383D01*
X132298277Y-104238536D01*
X132450000Y-104050000D01*
X132449999Y-104049999D01*
X132388478Y-104021669D01*
X132382397Y-104015096D01*
X132382745Y-104006148D01*
X132385096Y-104002772D01*
X132506373Y-103881495D01*
X132514645Y-103878069D01*
X132522916Y-103881495D01*
G37*
%TD.AperFunction*%
%TD*%
%TA.AperFunction,Conductor*%
%TO.N,GND*%
G36*
X144294266Y-91464681D02*
G01*
X144298671Y-91472478D01*
X144298691Y-91472656D01*
X144320710Y-91679288D01*
X144320712Y-91679293D01*
X144333622Y-91710459D01*
X144349109Y-91747850D01*
X144350000Y-91752325D01*
X144350000Y-91982180D01*
X144346573Y-91990453D01*
X144338300Y-91993880D01*
X144163845Y-91993880D01*
X144155572Y-91990453D01*
X144152145Y-91982180D01*
X144152309Y-91980229D01*
X144179289Y-91820711D01*
X143972656Y-91798691D01*
X143964793Y-91794407D01*
X143962262Y-91785817D01*
X143962282Y-91785639D01*
X143996368Y-91506564D01*
X144000773Y-91498767D01*
X144006563Y-91496368D01*
X144285640Y-91462282D01*
X144294266Y-91464681D01*
G37*
%TD.AperFunction*%
%TD*%
%TA.AperFunction,Conductor*%
%TO.N,GND*%
G36*
X155783694Y-116559144D02*
G01*
X156096080Y-116993165D01*
X156098132Y-117001882D01*
X156096080Y-117006835D01*
X155783694Y-117440855D01*
X155776080Y-117445568D01*
X155767726Y-117443767D01*
X155255228Y-117103471D01*
X155250231Y-117096040D01*
X155250000Y-117093724D01*
X155250000Y-116906275D01*
X155253427Y-116898002D01*
X155255223Y-116896531D01*
X155767727Y-116556231D01*
X155776514Y-116554510D01*
X155783694Y-116559144D01*
G37*
%TD.AperFunction*%
%TD*%
%TA.AperFunction,Conductor*%
%TO.N,GND*%
G36*
X137485028Y-101640089D02*
G01*
X137747884Y-101745616D01*
X137754285Y-101751879D01*
X137754383Y-101752115D01*
X137859907Y-102014964D01*
X137859809Y-102023918D01*
X137853408Y-102030181D01*
X137852118Y-102030613D01*
X137520710Y-102120710D01*
X137520710Y-102120711D01*
X137545736Y-102208253D01*
X137544715Y-102217150D01*
X137537703Y-102222718D01*
X137534487Y-102223169D01*
X137361700Y-102223169D01*
X137353427Y-102219742D01*
X137350000Y-102211469D01*
X137350000Y-102052325D01*
X137350891Y-102047848D01*
X137359459Y-102027164D01*
X137379289Y-101979289D01*
X137469387Y-101647878D01*
X137474863Y-101640796D01*
X137483745Y-101639660D01*
X137485028Y-101640089D01*
G37*
%TD.AperFunction*%
%TD*%
%TA.AperFunction,Conductor*%
%TO.N,GND*%
G36*
X133383429Y-94058776D02*
G01*
X133696080Y-94493165D01*
X133698132Y-94501882D01*
X133696080Y-94506835D01*
X133383429Y-94941223D01*
X133375815Y-94945936D01*
X133367866Y-94944392D01*
X132805633Y-94603416D01*
X132800336Y-94596196D01*
X132800000Y-94593412D01*
X132800000Y-94406587D01*
X132803427Y-94398314D01*
X132805628Y-94396586D01*
X133367868Y-94055606D01*
X133376717Y-94054247D01*
X133383429Y-94058776D01*
G37*
%TD.AperFunction*%
%TD*%
%TA.AperFunction,Conductor*%
%TO.N,GND*%
G36*
X134493627Y-103881496D02*
G01*
X134614900Y-104002769D01*
X134618327Y-104011042D01*
X134614900Y-104019315D01*
X134611521Y-104021669D01*
X134550000Y-104049999D01*
X134549999Y-104050000D01*
X134701720Y-104238534D01*
X134704237Y-104247128D01*
X134703418Y-104250338D01*
X134460813Y-104837337D01*
X134454486Y-104843674D01*
X134445531Y-104843681D01*
X134439194Y-104837354D01*
X134439187Y-104837337D01*
X134196581Y-104250338D01*
X134196588Y-104241383D01*
X134198277Y-104238536D01*
X134350000Y-104050000D01*
X134378399Y-103981437D01*
X134380931Y-103977646D01*
X134477084Y-103881494D01*
X134485354Y-103878069D01*
X134493627Y-103881496D01*
G37*
%TD.AperFunction*%
%TD*%
%TA.AperFunction,Conductor*%
%TO.N,GND*%
G36*
X144205238Y-91563817D02*
G01*
X144319065Y-91677643D01*
X144321601Y-91681439D01*
X144349997Y-91749997D01*
X144651386Y-92082394D01*
X144654404Y-92090825D01*
X144650737Y-92098772D01*
X144258019Y-92468451D01*
X144249647Y-92471627D01*
X144241981Y-92468451D01*
X144058893Y-92296105D01*
X143849261Y-92098771D01*
X143845586Y-92090606D01*
X143848612Y-92082396D01*
X144150000Y-91750000D01*
X144149998Y-91749999D01*
X144149999Y-91749999D01*
X144069007Y-91704525D01*
X144063471Y-91697487D01*
X144064533Y-91688595D01*
X144066458Y-91686054D01*
X144188695Y-91563817D01*
X144196967Y-91560391D01*
X144205238Y-91563817D01*
G37*
%TD.AperFunction*%
%TD*%
%TA.AperFunction,Conductor*%
%TO.N,GND*%
G36*
X136658429Y-78558776D02*
G01*
X136971080Y-78993165D01*
X136973132Y-79001882D01*
X136971080Y-79006835D01*
X136658429Y-79441223D01*
X136650815Y-79445936D01*
X136642866Y-79444392D01*
X136080633Y-79103416D01*
X136075336Y-79096196D01*
X136075000Y-79093412D01*
X136075000Y-78906587D01*
X136078427Y-78898314D01*
X136080628Y-78896586D01*
X136642868Y-78555606D01*
X136651717Y-78554247D01*
X136658429Y-78558776D01*
G37*
%TD.AperFunction*%
%TD*%
%TA.AperFunction,Conductor*%
%TO.N,GND*%
G36*
X142214321Y-91462277D02*
G01*
X142493435Y-91496368D01*
X142501232Y-91500773D01*
X142503631Y-91506564D01*
X142537717Y-91785639D01*
X142535318Y-91794266D01*
X142527521Y-91798671D01*
X142527343Y-91798691D01*
X142320711Y-91820711D01*
X142320710Y-91820711D01*
X142347691Y-91980229D01*
X142345692Y-91988958D01*
X142338106Y-91993716D01*
X142336155Y-91993880D01*
X142161700Y-91993880D01*
X142153427Y-91990453D01*
X142150000Y-91982180D01*
X142150000Y-91752325D01*
X142150890Y-91747850D01*
X142179289Y-91679289D01*
X142201308Y-91472655D01*
X142205592Y-91464793D01*
X142214182Y-91462262D01*
X142214321Y-91462277D01*
G37*
%TD.AperFunction*%
%TD*%
%TA.AperFunction,Conductor*%
%TO.N,GND*%
G36*
X132400914Y-115903427D02*
G01*
X132403187Y-115906634D01*
X132586084Y-116287398D01*
X132586578Y-116296339D01*
X132585980Y-116297742D01*
X132310442Y-116842842D01*
X132303651Y-116848680D01*
X132294722Y-116848006D01*
X132289558Y-116842842D01*
X132014019Y-116297742D01*
X132013345Y-116288813D01*
X132013915Y-116287398D01*
X132196813Y-115906634D01*
X132203484Y-115900660D01*
X132207359Y-115900000D01*
X132392641Y-115900000D01*
X132400914Y-115903427D01*
G37*
%TD.AperFunction*%
%TD*%
%TA.AperFunction,Conductor*%
%TO.N,GND*%
G36*
X162329384Y-93357671D02*
G01*
X162669155Y-93742253D01*
X162672065Y-93750722D01*
X162669155Y-93757747D01*
X162329384Y-94142328D01*
X162321338Y-94146259D01*
X162314102Y-94144300D01*
X161880186Y-93853475D01*
X161875222Y-93846022D01*
X161875000Y-93843756D01*
X161875000Y-93656243D01*
X161878427Y-93647970D01*
X161880186Y-93646524D01*
X162314104Y-93355698D01*
X162322882Y-93353940D01*
X162329384Y-93357671D01*
G37*
%TD.AperFunction*%
%TD*%
%TA.AperFunction,Conductor*%
%TO.N,+12V*%
G36*
X136010895Y-123605698D02*
G01*
X136444814Y-123896524D01*
X136449778Y-123903977D01*
X136450000Y-123906243D01*
X136450000Y-124093756D01*
X136446573Y-124102029D01*
X136444814Y-124103475D01*
X136010897Y-124394300D01*
X136002117Y-124396059D01*
X135995615Y-124392328D01*
X135655844Y-124007747D01*
X135652934Y-123999278D01*
X135655844Y-123992253D01*
X135995616Y-123607670D01*
X136003661Y-123603740D01*
X136010895Y-123605698D01*
G37*
%TD.AperFunction*%
%TD*%
%TA.AperFunction,Conductor*%
%TO.N,/Motor Acuator/M10*%
G36*
X168107972Y-116878427D02*
G01*
X168111305Y-116885217D01*
X168124704Y-116990088D01*
X168136277Y-117022458D01*
X168165347Y-117103771D01*
X168222811Y-117214647D01*
X168226727Y-117222202D01*
X168303604Y-117351464D01*
X168303664Y-117351566D01*
X168446227Y-117596849D01*
X168446672Y-117597692D01*
X168577530Y-117872115D01*
X168577997Y-117881058D01*
X168575501Y-117885157D01*
X167818423Y-118692022D01*
X167810263Y-118695710D01*
X167801885Y-118692548D01*
X167801462Y-118692130D01*
X166967220Y-117825512D01*
X166963951Y-117817175D01*
X166966609Y-117809970D01*
X167087659Y-117662711D01*
X167309588Y-117374656D01*
X167428680Y-117180329D01*
X167490341Y-117022457D01*
X167508646Y-116885153D01*
X167513136Y-116877406D01*
X167520243Y-116875000D01*
X168099699Y-116875000D01*
X168107972Y-116878427D01*
G37*
%TD.AperFunction*%
%TD*%
%TA.AperFunction,Conductor*%
%TO.N,/Motor Acuator/M11*%
G36*
X165561518Y-116879982D02*
G01*
X165563463Y-116880788D01*
X165569568Y-116886605D01*
X165570146Y-116887830D01*
X165571211Y-116891704D01*
X165585506Y-117040559D01*
X165585507Y-117040562D01*
X165628357Y-117203827D01*
X165628361Y-117203840D01*
X165628364Y-117203850D01*
X165628368Y-117203860D01*
X165693048Y-117376617D01*
X165773988Y-117566425D01*
X165773994Y-117566454D01*
X165774000Y-117566452D01*
X165774036Y-117566537D01*
X165774024Y-117566541D01*
X165774060Y-117566595D01*
X165924836Y-117928087D01*
X165924971Y-117928425D01*
X165925104Y-117928774D01*
X165925227Y-117929113D01*
X166059195Y-118316114D01*
X166059818Y-118320635D01*
X166059691Y-118322772D01*
X166056236Y-118330400D01*
X166055309Y-118331316D01*
X166052060Y-118333584D01*
X165276958Y-118697730D01*
X165272524Y-118698827D01*
X165268615Y-118699008D01*
X165263297Y-118698001D01*
X164448410Y-118333539D01*
X164444687Y-118330899D01*
X164443234Y-118329363D01*
X164440037Y-118321569D01*
X164440009Y-118320226D01*
X164440610Y-118316275D01*
X164515755Y-118091693D01*
X164515823Y-118091497D01*
X164515944Y-118091167D01*
X164516020Y-118090965D01*
X164598152Y-117882758D01*
X164598238Y-117882549D01*
X164598370Y-117882239D01*
X164598443Y-117882075D01*
X164702154Y-117655142D01*
X164758511Y-117531827D01*
X164828580Y-117376617D01*
X164891590Y-117237045D01*
X164951248Y-117046646D01*
X164968577Y-116891804D01*
X164969959Y-116887455D01*
X164971002Y-116885564D01*
X164977383Y-116880172D01*
X164978589Y-116879750D01*
X164982453Y-116879093D01*
X165557043Y-116879093D01*
X165561518Y-116879982D01*
G37*
%TD.AperFunction*%
%TD*%
%TA.AperFunction,Conductor*%
%TO.N,/Motor Acuator/M12*%
G36*
X163021606Y-116879984D02*
G01*
X163023576Y-116880800D01*
X163029660Y-116886574D01*
X163030225Y-116887759D01*
X163031301Y-116891581D01*
X163046203Y-117034544D01*
X163046215Y-117034599D01*
X163046271Y-117034781D01*
X163090778Y-117190145D01*
X163090880Y-117190527D01*
X163090887Y-117190557D01*
X163091115Y-117191025D01*
X163157933Y-117353727D01*
X163241446Y-117531735D01*
X163241462Y-117531769D01*
X163275761Y-117603705D01*
X163275894Y-117603995D01*
X163275923Y-117604059D01*
X163434837Y-117962979D01*
X163435009Y-117963387D01*
X163435189Y-117963839D01*
X163435356Y-117964285D01*
X163559050Y-118315898D01*
X163559696Y-118320417D01*
X163559584Y-118322475D01*
X163556062Y-118330223D01*
X163555049Y-118331209D01*
X163551665Y-118333505D01*
X162737021Y-118697858D01*
X162732573Y-118698873D01*
X162728659Y-118698983D01*
X162723355Y-118697878D01*
X161948068Y-118333645D01*
X161944398Y-118330938D01*
X161942914Y-118329310D01*
X161939865Y-118321605D01*
X161939847Y-118320380D01*
X161940426Y-118316570D01*
X161940646Y-118315898D01*
X162009761Y-118104737D01*
X162009795Y-118104638D01*
X162009926Y-118104267D01*
X162062413Y-117963387D01*
X162084005Y-117905434D01*
X162084063Y-117905283D01*
X162084176Y-117904998D01*
X162225964Y-117566537D01*
X162225977Y-117566507D01*
X162225980Y-117566498D01*
X162225994Y-117566467D01*
X162351139Y-117262998D01*
X162351176Y-117262909D01*
X162351239Y-117262709D01*
X162351304Y-117262512D01*
X162351360Y-117262264D01*
X162411234Y-117057234D01*
X162424484Y-116931447D01*
X162428653Y-116891881D01*
X162430006Y-116887526D01*
X162430523Y-116886574D01*
X162431027Y-116885645D01*
X162437408Y-116880199D01*
X162438647Y-116879760D01*
X162442543Y-116879093D01*
X163017129Y-116879093D01*
X163021606Y-116879984D01*
G37*
%TD.AperFunction*%
%TD*%
%TA.AperFunction,Conductor*%
%TO.N,/Motor Acuator/M13*%
G36*
X160487780Y-116882520D02*
G01*
X160491138Y-116889524D01*
X160508250Y-117046388D01*
X160558625Y-117214100D01*
X160558937Y-117215136D01*
X160558939Y-117215142D01*
X160558940Y-117215143D01*
X160635965Y-117394318D01*
X160733240Y-117592900D01*
X160733250Y-117592921D01*
X160870366Y-117874269D01*
X160870610Y-117874803D01*
X161035694Y-118261676D01*
X161035789Y-118270630D01*
X161030207Y-118276712D01*
X160195220Y-118698363D01*
X160186290Y-118699033D01*
X160184758Y-118698406D01*
X159445748Y-118332783D01*
X159439852Y-118326043D01*
X159439842Y-118318581D01*
X159567493Y-117937458D01*
X159567655Y-117937007D01*
X159689960Y-117617301D01*
X159810584Y-117295295D01*
X159871189Y-117070617D01*
X159888963Y-116889648D01*
X159893182Y-116881751D01*
X159900607Y-116879093D01*
X160479507Y-116879093D01*
X160487780Y-116882520D01*
G37*
%TD.AperFunction*%
%TD*%
%TA.AperFunction,Conductor*%
%TO.N,+3V3*%
G36*
X138917605Y-78598614D02*
G01*
X139246159Y-78896517D01*
X139249986Y-78904613D01*
X139250000Y-78905185D01*
X139250000Y-79094814D01*
X139246573Y-79103087D01*
X139246159Y-79103482D01*
X138917605Y-79401385D01*
X138909174Y-79404403D01*
X138901227Y-79400736D01*
X138618133Y-79100000D01*
X138531547Y-79008018D01*
X138528372Y-78999647D01*
X138531547Y-78991982D01*
X138901227Y-78599262D01*
X138909393Y-78595587D01*
X138917605Y-78598614D01*
G37*
%TD.AperFunction*%
%TD*%
%TA.AperFunction,Conductor*%
%TO.N,+3V3*%
G36*
X139332132Y-102305606D02*
G01*
X139894368Y-102646584D01*
X139899664Y-102653803D01*
X139900000Y-102656587D01*
X139900000Y-102843412D01*
X139896573Y-102851685D01*
X139894367Y-102853416D01*
X139332133Y-103194392D01*
X139323282Y-103195752D01*
X139316570Y-103191223D01*
X139214041Y-103048773D01*
X139003918Y-102756834D01*
X139001867Y-102748118D01*
X139003919Y-102743165D01*
X139316570Y-102308775D01*
X139324184Y-102304063D01*
X139332132Y-102305606D01*
G37*
%TD.AperFunction*%
%TD*%
%TA.AperFunction,Conductor*%
%TO.N,+3V3*%
G36*
X149676384Y-91521454D02*
G01*
X149677049Y-91522170D01*
X149997194Y-91896717D01*
X150000000Y-91904319D01*
X150000000Y-92095680D01*
X149997194Y-92103282D01*
X149677049Y-92477829D01*
X149669068Y-92481891D01*
X149660553Y-92479121D01*
X149659837Y-92478456D01*
X149568252Y-92385880D01*
X149194639Y-92008227D01*
X149191258Y-91999937D01*
X149194639Y-91991772D01*
X149659838Y-91521542D01*
X149668092Y-91518072D01*
X149676384Y-91521454D01*
G37*
%TD.AperFunction*%
%TD*%
%TA.AperFunction,Conductor*%
%TO.N,+3V3*%
G36*
X155257747Y-93655844D02*
G01*
X155642328Y-93995615D01*
X155646259Y-94003661D01*
X155644300Y-94010897D01*
X155353476Y-94444814D01*
X155346023Y-94449778D01*
X155343757Y-94450000D01*
X155156243Y-94450000D01*
X155147970Y-94446573D01*
X155146524Y-94444814D01*
X154855698Y-94010895D01*
X154853940Y-94002117D01*
X154857670Y-93995616D01*
X155242253Y-93655843D01*
X155250722Y-93652934D01*
X155257747Y-93655844D01*
G37*
%TD.AperFunction*%
%TD*%
%TA.AperFunction,Conductor*%
%TO.N,+3V3*%
G36*
X157751447Y-116078427D02*
G01*
X157753359Y-116080943D01*
X158077906Y-116655109D01*
X158078994Y-116663997D01*
X158074910Y-116670097D01*
X157657189Y-116995401D01*
X157648556Y-116997781D01*
X157642811Y-116995401D01*
X157437832Y-116835772D01*
X157225088Y-116670096D01*
X157220667Y-116662310D01*
X157222092Y-116655111D01*
X157546641Y-116080943D01*
X157553695Y-116075427D01*
X157556826Y-116075000D01*
X157743174Y-116075000D01*
X157751447Y-116078427D01*
G37*
%TD.AperFunction*%
%TD*%
%TA.AperFunction,Conductor*%
%TO.N,+3V3*%
G36*
X157657187Y-117004597D02*
G01*
X158074910Y-117329903D01*
X158079332Y-117337689D01*
X158077906Y-117344890D01*
X157753359Y-117919057D01*
X157746305Y-117924573D01*
X157743174Y-117925000D01*
X157556826Y-117925000D01*
X157548553Y-117921573D01*
X157546641Y-117919057D01*
X157222093Y-117344890D01*
X157221005Y-117336002D01*
X157225086Y-117329905D01*
X157642811Y-117004597D01*
X157651444Y-117002218D01*
X157657187Y-117004597D01*
G37*
%TD.AperFunction*%
%TD*%
%TA.AperFunction,Conductor*%
%TO.N,+3V3*%
G36*
X138626447Y-76578427D02*
G01*
X138628359Y-76580943D01*
X138952906Y-77155109D01*
X138953994Y-77163997D01*
X138949910Y-77170097D01*
X138532189Y-77495401D01*
X138523556Y-77497781D01*
X138517811Y-77495401D01*
X138312832Y-77335772D01*
X138100088Y-77170096D01*
X138095667Y-77162310D01*
X138097092Y-77155111D01*
X138421641Y-76580943D01*
X138428695Y-76575427D01*
X138431826Y-76575000D01*
X138618174Y-76575000D01*
X138626447Y-76578427D01*
G37*
%TD.AperFunction*%
%TD*%
%TA.AperFunction,Conductor*%
%TO.N,+3V3*%
G36*
X139095322Y-101825889D02*
G01*
X139098362Y-101827149D01*
X139104070Y-101832201D01*
X139426760Y-102403082D01*
X139428188Y-102407417D01*
X139428465Y-102409679D01*
X139426577Y-102417606D01*
X139425961Y-102418527D01*
X139423425Y-102421253D01*
X139009024Y-102743971D01*
X139004943Y-102746020D01*
X139002428Y-102746713D01*
X138994854Y-102746247D01*
X138994569Y-102746129D01*
X138994282Y-102746010D01*
X138991565Y-102744430D01*
X138787832Y-102585772D01*
X138576923Y-102421525D01*
X138573940Y-102418074D01*
X138572813Y-102416090D01*
X138571510Y-102408048D01*
X138571727Y-102406949D01*
X138573016Y-102403476D01*
X138895497Y-101832965D01*
X138898472Y-101829510D01*
X138900061Y-101828267D01*
X138901069Y-101827481D01*
X138908273Y-101825000D01*
X139090847Y-101825000D01*
X139095322Y-101825889D01*
G37*
%TD.AperFunction*%
%TD*%
%TA.AperFunction,Conductor*%
%TO.N,+3V3*%
G36*
X138917605Y-77098614D02*
G01*
X139246159Y-77396517D01*
X139249986Y-77404613D01*
X139250000Y-77405185D01*
X139250000Y-77594814D01*
X139246573Y-77603087D01*
X139246159Y-77603482D01*
X138917605Y-77901385D01*
X138909174Y-77904403D01*
X138901227Y-77900736D01*
X138618133Y-77600000D01*
X138531547Y-77508018D01*
X138528372Y-77499647D01*
X138531547Y-77491982D01*
X138901227Y-77099262D01*
X138909393Y-77095587D01*
X138917605Y-77098614D01*
G37*
%TD.AperFunction*%
%TD*%
%TA.AperFunction,Conductor*%
%TO.N,+3V3*%
G36*
X136529384Y-81607671D02*
G01*
X136869155Y-81992253D01*
X136872065Y-82000722D01*
X136869155Y-82007747D01*
X136529384Y-82392328D01*
X136521338Y-82396259D01*
X136514102Y-82394300D01*
X136080186Y-82103475D01*
X136075222Y-82096022D01*
X136075000Y-82093756D01*
X136075000Y-81906243D01*
X136078427Y-81897970D01*
X136080186Y-81896524D01*
X136514104Y-81605698D01*
X136522882Y-81603940D01*
X136529384Y-81607671D01*
G37*
%TD.AperFunction*%
%TD*%
%TA.AperFunction,Conductor*%
%TO.N,+3V3*%
G36*
X138626447Y-78078427D02*
G01*
X138628359Y-78080943D01*
X138952906Y-78655109D01*
X138953994Y-78663997D01*
X138949910Y-78670097D01*
X138532189Y-78995401D01*
X138523556Y-78997781D01*
X138517811Y-78995401D01*
X138312832Y-78835772D01*
X138100088Y-78670096D01*
X138095667Y-78662310D01*
X138097092Y-78655111D01*
X138421641Y-78080943D01*
X138428695Y-78075427D01*
X138431826Y-78075000D01*
X138618174Y-78075000D01*
X138626447Y-78078427D01*
G37*
%TD.AperFunction*%
%TD*%
%TA.AperFunction,Conductor*%
%TO.N,+3V3*%
G36*
X138532187Y-77504597D02*
G01*
X138949910Y-77829903D01*
X138954332Y-77837689D01*
X138952906Y-77844890D01*
X138628359Y-78419057D01*
X138621305Y-78424573D01*
X138618174Y-78425000D01*
X138431826Y-78425000D01*
X138423553Y-78421573D01*
X138421641Y-78419057D01*
X138097093Y-77844890D01*
X138096005Y-77836002D01*
X138100086Y-77829905D01*
X138517811Y-77504597D01*
X138526444Y-77502218D01*
X138532187Y-77504597D01*
G37*
%TD.AperFunction*%
%TD*%
%TA.AperFunction,Conductor*%
%TO.N,Net-(U1-EN)*%
G36*
X146100105Y-129155994D02*
G01*
X146102815Y-129160235D01*
X146273335Y-129624766D01*
X146272969Y-129633714D01*
X146266947Y-129639558D01*
X146004595Y-129751604D01*
X145995641Y-129751702D01*
X145995405Y-129751604D01*
X145733052Y-129639558D01*
X145726789Y-129633157D01*
X145726664Y-129624766D01*
X145897185Y-129160235D01*
X145903252Y-129153650D01*
X145908168Y-129152567D01*
X146091832Y-129152567D01*
X146100105Y-129155994D01*
G37*
%TD.AperFunction*%
%TD*%
%TA.AperFunction,Conductor*%
%TO.N,Net-(U1-EN)*%
G36*
X143507746Y-130505843D02*
G01*
X143891884Y-130845223D01*
X143895815Y-130853268D01*
X143893477Y-130861037D01*
X143603511Y-131245347D01*
X143595792Y-131249887D01*
X143594171Y-131250000D01*
X143405829Y-131250000D01*
X143397556Y-131246573D01*
X143396489Y-131245347D01*
X143106522Y-130861037D01*
X143104275Y-130852369D01*
X143108113Y-130845224D01*
X143492253Y-130505843D01*
X143500722Y-130502934D01*
X143507746Y-130505843D01*
G37*
%TD.AperFunction*%
%TD*%
%TA.AperFunction,Conductor*%
%TO.N,Net-(U1-EN)*%
G36*
X143600105Y-130655994D02*
G01*
X143602815Y-130660235D01*
X143773335Y-131124766D01*
X143772969Y-131133714D01*
X143766947Y-131139558D01*
X143504595Y-131251604D01*
X143495641Y-131251702D01*
X143495405Y-131251604D01*
X143233052Y-131139558D01*
X143226789Y-131133157D01*
X143226664Y-131124766D01*
X143397185Y-130660235D01*
X143403252Y-130653650D01*
X143408168Y-130652567D01*
X143591832Y-130652567D01*
X143600105Y-130655994D01*
G37*
%TD.AperFunction*%
%TD*%
%TA.AperFunction,Conductor*%
%TO.N,Net-(D6-K)*%
G36*
X134008227Y-127882139D02*
G01*
X134480084Y-128348947D01*
X134483555Y-128357202D01*
X134481059Y-128364489D01*
X134103513Y-128845524D01*
X134095709Y-128849916D01*
X134094309Y-128850000D01*
X133905691Y-128850000D01*
X133897418Y-128846573D01*
X133896487Y-128845524D01*
X133518940Y-128364489D01*
X133516528Y-128355865D01*
X133519913Y-128348949D01*
X133991772Y-127882139D01*
X134000063Y-127878758D01*
X134008227Y-127882139D01*
G37*
%TD.AperFunction*%
%TD*%
M02*
