%TF.GenerationSoftware,KiCad,Pcbnew,10.0.6*%
%TF.CreationDate,2026-09-19T16:41:32-04:00*%
%TF.ProjectId,EPICS_Connect4,45504943-535f-4436-9f6e-6e656374342e,rev?*%
%TF.SameCoordinates,Original*%
%TF.FileFunction,Copper,L2,Inr*%
%TF.FilePolarity,Positive*%
%FSLAX46Y46*%
G04 Gerber Fmt 4.6, Leading zero omitted, Abs format (unit mm)*
G04 Created by KiCad (PCBNEW 10.0.6) date 2026-09-19 16:41:32*
%MOMM*%
%LPD*%
G01*
G04 APERTURE LIST*
G04 Aperture macros list*
%AMRoundRect*
0 Rectangle with rounded corners*
0 $1 Rounding radius*
0 $2 $3 $4 $5 $6 $7 $8 $9 X,Y pos of 4 corners*
0 Add a 4 corners polygon primitive as box body*
4,1,4,$2,$3,$4,$5,$6,$7,$8,$9,$2,$3,0*
0 Add four circle primitives for the rounded corners*
1,1,$1+$1,$2,$3*
1,1,$1+$1,$4,$5*
1,1,$1+$1,$6,$7*
1,1,$1+$1,$8,$9*
0 Add four rect primitives between the rounded corners*
20,1,$1+$1,$2,$3,$4,$5,0*
20,1,$1+$1,$4,$5,$6,$7,0*
20,1,$1+$1,$6,$7,$8,$9,0*
20,1,$1+$1,$8,$9,$2,$3,0*%
G04 Aperture macros list end*
%TA.AperFunction,HeatsinkPad*%
%ADD10C,0.800000*%
%TD*%
%TA.AperFunction,ComponentPad*%
%ADD11RoundRect,0.250000X-0.600000X0.600000X-0.600000X-0.600000X0.600000X-0.600000X0.600000X0.600000X0*%
%TD*%
%TA.AperFunction,ComponentPad*%
%ADD12C,1.700000*%
%TD*%
%TA.AperFunction,ComponentPad*%
%ADD13RoundRect,0.250001X-0.499999X-0.759999X0.499999X-0.759999X0.499999X0.759999X-0.499999X0.759999X0*%
%TD*%
%TA.AperFunction,ComponentPad*%
%ADD14O,1.500000X2.020000*%
%TD*%
%TA.AperFunction,ComponentPad*%
%ADD15RoundRect,0.250000X0.600000X0.725000X-0.600000X0.725000X-0.600000X-0.725000X0.600000X-0.725000X0*%
%TD*%
%TA.AperFunction,ComponentPad*%
%ADD16O,1.700000X1.950000*%
%TD*%
%TA.AperFunction,ComponentPad*%
%ADD17RoundRect,0.250000X0.350000X0.625000X-0.350000X0.625000X-0.350000X-0.625000X0.350000X-0.625000X0*%
%TD*%
%TA.AperFunction,ComponentPad*%
%ADD18O,1.200000X1.750000*%
%TD*%
%TA.AperFunction,ComponentPad*%
%ADD19RoundRect,0.250000X0.725000X-0.600000X0.725000X0.600000X-0.725000X0.600000X-0.725000X-0.600000X0*%
%TD*%
%TA.AperFunction,ComponentPad*%
%ADD20O,1.950000X1.700000*%
%TD*%
%TA.AperFunction,ViaPad*%
%ADD21C,0.600000*%
%TD*%
G04 APERTURE END LIST*
D10*
%TO.N,GND*%
%TO.C,U6*%
X152000000Y-83250000D03*
X151000000Y-83250000D03*
X151000000Y-82250000D03*
X151000000Y-81250000D03*
X150000000Y-81250000D03*
X152000000Y-81250000D03*
X152000000Y-82250000D03*
X150000000Y-83250000D03*
X150000000Y-82250000D03*
%TD*%
D11*
%TO.N,/Motor Acuator/TMC.EN*%
%TO.C,U8*%
X172890000Y-101650000D03*
D12*
%TO.N,GND*%
X170350000Y-101650000D03*
X167810000Y-101650000D03*
%TO.N,/Motor Acuator/TMC.PDN*%
X165270000Y-101650000D03*
%TO.N,unconnected-(U8-PDN-Pad5)*%
X162730000Y-101650000D03*
%TO.N,GND*%
X160190000Y-101650000D03*
%TO.N,/Motor Acuator/TMC.STEP*%
X157650000Y-101650000D03*
%TO.N,/Motor Acuator/TMC.DIR*%
X155110000Y-101650000D03*
%TO.N,+12V*%
X172890000Y-114350000D03*
%TO.N,GND*%
X170350000Y-114350000D03*
%TO.N,/Motor Acuator/M10*%
X167810000Y-114350000D03*
%TO.N,/Motor Acuator/M11*%
X165270000Y-114350000D03*
%TO.N,/Motor Acuator/M12*%
X162730000Y-114350000D03*
%TO.N,/Motor Acuator/M13*%
X160190000Y-114350000D03*
%TO.N,+3V3*%
X157650000Y-114350000D03*
%TO.N,GND*%
X155110000Y-114350000D03*
%TO.N,unconnected-(U8-VREF-PadL)*%
X172890000Y-104190000D03*
%TO.N,/Motor Acuator/TMC.DIAG*%
X172890000Y-106730000D03*
%TD*%
D13*
%TO.N,Net-(J1-Pin_1)*%
%TO.C,J1*%
X160000000Y-125000000D03*
D14*
%TO.N,GND*%
X163000000Y-125000000D03*
%TD*%
D15*
%TO.N,/Motor Acuator/M10*%
%TO.C,J8*%
X167750000Y-118700000D03*
D16*
%TO.N,/Motor Acuator/M11*%
X165250000Y-118700000D03*
%TO.N,/Motor Acuator/M12*%
X162750000Y-118700000D03*
%TO.N,/Motor Acuator/M13*%
X160250000Y-118700000D03*
%TD*%
D17*
%TO.N,/STM32 Controller/END.A*%
%TO.C,J4*%
X132000000Y-93000000D03*
D18*
%TO.N,GND*%
X130000000Y-93000000D03*
%TD*%
D19*
%TO.N,Net-(J7-Pin_1)*%
%TO.C,J7*%
X130000000Y-123500000D03*
D20*
%TO.N,/STM32 Controller/ledDataB*%
X130000000Y-121000000D03*
%TO.N,GND*%
X130000000Y-118500000D03*
%TD*%
D17*
%TO.N,/STM32 Controller/END.B*%
%TO.C,J5*%
X132000000Y-100000000D03*
D18*
%TO.N,GND*%
X130000000Y-100000000D03*
%TD*%
D19*
%TO.N,Net-(J6-Pin_1)*%
%TO.C,J6*%
X130000000Y-111500000D03*
D20*
%TO.N,/STM32 Controller/ledDataA*%
X130000000Y-109000000D03*
%TO.N,GND*%
X130000000Y-106500000D03*
%TD*%
D21*
%TO.N,Net-(U7-VBUS)*%
X160750000Y-91000000D03*
%TO.N,GND*%
X140000000Y-95750000D03*
X142250000Y-127500000D03*
X150000000Y-126500000D03*
X165750000Y-106750000D03*
X132000000Y-115500000D03*
X145050000Y-133050000D03*
X142750000Y-101250000D03*
X140000000Y-88500000D03*
X132250000Y-114500000D03*
X147650000Y-126850000D03*
X144020000Y-110400001D03*
X157000000Y-132500000D03*
X141250000Y-125500000D03*
X132250000Y-103750000D03*
X147250000Y-98750000D03*
X150000000Y-129500000D03*
X168250000Y-106000000D03*
X150000000Y-123500000D03*
X150000000Y-125000000D03*
X137000000Y-130000000D03*
X140000000Y-87500000D03*
X143750000Y-102250000D03*
X143750000Y-97750000D03*
X138500000Y-95750000D03*
X165750000Y-104500000D03*
X137750000Y-101750000D03*
X136000000Y-79000000D03*
X141250000Y-127500000D03*
X163500000Y-91000000D03*
X155000000Y-123500000D03*
X138250000Y-114500000D03*
X135250000Y-116500000D03*
X142750000Y-98750000D03*
X142500000Y-114000000D03*
X153008949Y-100747017D03*
X142500000Y-91500000D03*
X158000000Y-132500000D03*
X161750000Y-93750000D03*
X142250000Y-125500000D03*
X142500000Y-115000000D03*
X133000000Y-98500000D03*
X136000000Y-77500000D03*
X147650000Y-125900000D03*
X133000000Y-86250000D03*
X169750000Y-96750000D03*
X144000000Y-91500000D03*
X134750000Y-103750000D03*
X154000000Y-123500000D03*
X165750000Y-105250000D03*
X132750000Y-94500000D03*
X147250000Y-101250000D03*
X166250000Y-94750000D03*
X147750000Y-108250000D03*
X136000000Y-80500000D03*
X143750000Y-101250000D03*
X165750000Y-106000000D03*
X150000000Y-109500000D03*
X142500000Y-113000000D03*
X128000000Y-87750000D03*
X150000000Y-128000000D03*
X168250000Y-105250000D03*
X168250000Y-106750000D03*
X160000000Y-85000000D03*
X169750000Y-86500000D03*
X160000000Y-86500000D03*
X155250000Y-117000000D03*
X166250000Y-87250000D03*
X169750000Y-95500000D03*
X128000000Y-86250000D03*
X169750000Y-85250000D03*
X161750000Y-88250000D03*
X168250000Y-104500000D03*
X142750000Y-97750000D03*
X142500000Y-116000000D03*
X142750000Y-102250000D03*
X147250000Y-97750000D03*
X153250000Y-103500000D03*
X133000000Y-113000000D03*
X147250000Y-102250000D03*
X143750000Y-98750000D03*
X133000000Y-87750000D03*
X150000000Y-122250000D03*
%TO.N,/Motor Acuator/TMC.STEP*%
X157000000Y-97500000D03*
%TO.N,/Motor Acuator/TMC.DIR*%
X154500000Y-96500000D03*
%TO.N,+12V*%
X137000000Y-116500000D03*
X141250000Y-128750000D03*
X132250000Y-110500000D03*
X156000000Y-130750000D03*
X138000000Y-120000000D03*
X142250000Y-128750000D03*
X156000000Y-128500000D03*
X137000000Y-120000000D03*
X138000000Y-124000000D03*
X156000000Y-130000000D03*
X156000000Y-129250000D03*
X137000000Y-122000000D03*
X137000000Y-124000000D03*
X138000000Y-116500000D03*
X137000000Y-118500000D03*
X156000000Y-127750000D03*
X138000000Y-122000000D03*
X138000000Y-118500000D03*
%TO.N,+3V3*%
X157650000Y-118000000D03*
X148750000Y-106000000D03*
X150000000Y-92000000D03*
X136250000Y-85000000D03*
X146000000Y-113000000D03*
X139000000Y-101750000D03*
X136250000Y-86500000D03*
X168000000Y-99500000D03*
X155250000Y-94500000D03*
X139250000Y-79000000D03*
X143250000Y-94250000D03*
X143250000Y-93500000D03*
X141480000Y-110500000D03*
X146000000Y-114000000D03*
X151000000Y-101750000D03*
X139250000Y-77500000D03*
X146000000Y-115000000D03*
X163750000Y-79000000D03*
X136000000Y-82000000D03*
X146000000Y-116000000D03*
%TO.N,/Motor Acuator/TMC.DIAG*%
X154250000Y-103000000D03*
X152250000Y-97750000D03*
X153750000Y-100250000D03*
%TO.N,+5V*%
X139500000Y-114500000D03*
X139500000Y-116250000D03*
%TO.N,Net-(U5-Y)*%
X135000000Y-121000000D03*
%TO.N,Net-(U4-Y)*%
X134005241Y-110023760D03*
%TO.N,Net-(U7-VBUS)*%
X160750000Y-92750000D03*
%TO.N,/STM32 Controller/NRST*%
X144500000Y-82000000D03*
X152250000Y-101250000D03*
X143000000Y-82000000D03*
X151000000Y-89000000D03*
X152250000Y-104000000D03*
%TO.N,/STM32 Controller/INRP.A*%
X141250000Y-90000000D03*
%TO.N,Net-(U1-EN)*%
X143500000Y-131250000D03*
X146000000Y-129750000D03*
%TO.N,/STM32 Controller/BOOT*%
X146750000Y-105750000D03*
X146750000Y-89250000D03*
%TO.N,/ESP32 Weblink/IO20{slash}RXD*%
X144750000Y-90750000D03*
X144750000Y-105750000D03*
%TO.N,/ESP32 Weblink/IO21{slash}TXD*%
X145750000Y-90000000D03*
X145750000Y-105750000D03*
%TO.N,/STM32 Controller/INRP.B*%
X137250000Y-90000000D03*
%TD*%
%TA.AperFunction,Conductor*%
%TO.N,GND*%
G36*
X169884075Y-101457007D02*
G01*
X169850000Y-101584174D01*
X169850000Y-101715826D01*
X169884075Y-101842993D01*
X169916988Y-101900000D01*
X168243012Y-101900000D01*
X168275925Y-101842993D01*
X168310000Y-101715826D01*
X168310000Y-101584174D01*
X168275925Y-101457007D01*
X168243012Y-101400000D01*
X169916988Y-101400000D01*
X169884075Y-101457007D01*
G37*
%TD.AperFunction*%
%TA.AperFunction,Conductor*%
G36*
X170002702Y-75381617D02*
G01*
X170397143Y-75398839D01*
X170407879Y-75399779D01*
X170796627Y-75450958D01*
X170807265Y-75452833D01*
X171190084Y-75537703D01*
X171200510Y-75540497D01*
X171574463Y-75658404D01*
X171584627Y-75662104D01*
X171946864Y-75812146D01*
X171956664Y-75816716D01*
X172304442Y-75997759D01*
X172313810Y-76003167D01*
X172644500Y-76213839D01*
X172653350Y-76220036D01*
X172964431Y-76458737D01*
X172972709Y-76465684D01*
X173261781Y-76730569D01*
X173269430Y-76738218D01*
X173534315Y-77027290D01*
X173541264Y-77035570D01*
X173779960Y-77346644D01*
X173786160Y-77355499D01*
X173996832Y-77686189D01*
X174002240Y-77695557D01*
X174183283Y-78043335D01*
X174187855Y-78053140D01*
X174337895Y-78415372D01*
X174341595Y-78425536D01*
X174459499Y-78799478D01*
X174462299Y-78809927D01*
X174547164Y-79192726D01*
X174549042Y-79203380D01*
X174600218Y-79592101D01*
X174601161Y-79602877D01*
X174618382Y-79997297D01*
X174618500Y-80002706D01*
X174618500Y-129997293D01*
X174618382Y-130002702D01*
X174601161Y-130397122D01*
X174600218Y-130407898D01*
X174549042Y-130796619D01*
X174547164Y-130807273D01*
X174462299Y-131190072D01*
X174459499Y-131200521D01*
X174341595Y-131574463D01*
X174337895Y-131584627D01*
X174187855Y-131946859D01*
X174183283Y-131956664D01*
X174002240Y-132304442D01*
X173996832Y-132313810D01*
X173786160Y-132644500D01*
X173779955Y-132653362D01*
X173541269Y-132964423D01*
X173534315Y-132972709D01*
X173269430Y-133261781D01*
X173261781Y-133269430D01*
X172972709Y-133534315D01*
X172964423Y-133541269D01*
X172653362Y-133779955D01*
X172644500Y-133786160D01*
X172313810Y-133996832D01*
X172304442Y-134002240D01*
X171956664Y-134183283D01*
X171946859Y-134187855D01*
X171584627Y-134337895D01*
X171574463Y-134341595D01*
X171200521Y-134459499D01*
X171190072Y-134462299D01*
X170807273Y-134547164D01*
X170796619Y-134549042D01*
X170407898Y-134600218D01*
X170397122Y-134601161D01*
X170002703Y-134618382D01*
X169997294Y-134618500D01*
X130002706Y-134618500D01*
X129997297Y-134618382D01*
X129602877Y-134601161D01*
X129592101Y-134600218D01*
X129203380Y-134549042D01*
X129192726Y-134547164D01*
X128809927Y-134462299D01*
X128799478Y-134459499D01*
X128425536Y-134341595D01*
X128415372Y-134337895D01*
X128053140Y-134187855D01*
X128043335Y-134183283D01*
X127695557Y-134002240D01*
X127686189Y-133996832D01*
X127355499Y-133786160D01*
X127346644Y-133779960D01*
X127035570Y-133541264D01*
X127027290Y-133534315D01*
X126738218Y-133269430D01*
X126730569Y-133261781D01*
X126465684Y-132972709D01*
X126458737Y-132964431D01*
X126220036Y-132653350D01*
X126213839Y-132644500D01*
X126003167Y-132313810D01*
X125997759Y-132304442D01*
X125816716Y-131956664D01*
X125812144Y-131946859D01*
X125662104Y-131584627D01*
X125658404Y-131574463D01*
X125578952Y-131322475D01*
X125540497Y-131200510D01*
X125537703Y-131190084D01*
X125452833Y-130807265D01*
X125450957Y-130796619D01*
X125449025Y-130781944D01*
X125399779Y-130407879D01*
X125398839Y-130397143D01*
X125381618Y-130002702D01*
X125381500Y-129997293D01*
X125381500Y-129873723D01*
X128395500Y-129873723D01*
X128395500Y-130126277D01*
X128409155Y-130212488D01*
X128435009Y-130375722D01*
X128435009Y-130375725D01*
X128513050Y-130615911D01*
X128513051Y-130615914D01*
X128618300Y-130822475D01*
X128627709Y-130840941D01*
X128776156Y-131045261D01*
X128954739Y-131223844D01*
X129159059Y-131372291D01*
X129269428Y-131428526D01*
X129384085Y-131486948D01*
X129384088Y-131486949D01*
X129537669Y-131536850D01*
X129624279Y-131564991D01*
X129873723Y-131604500D01*
X129873724Y-131604500D01*
X130126276Y-131604500D01*
X130126277Y-131604500D01*
X130375721Y-131564991D01*
X130375724Y-131564990D01*
X130375725Y-131564990D01*
X130615911Y-131486949D01*
X130615914Y-131486948D01*
X130663925Y-131462485D01*
X130840941Y-131372291D01*
X131045261Y-131223844D01*
X131091580Y-131177525D01*
X142949500Y-131177525D01*
X142949500Y-131322475D01*
X142987016Y-131462485D01*
X142987017Y-131462488D01*
X143059488Y-131588011D01*
X143059490Y-131588013D01*
X143059491Y-131588015D01*
X143161985Y-131690509D01*
X143161986Y-131690510D01*
X143161988Y-131690511D01*
X143287511Y-131762982D01*
X143287512Y-131762982D01*
X143287515Y-131762984D01*
X143427525Y-131800500D01*
X143427528Y-131800500D01*
X143572472Y-131800500D01*
X143572475Y-131800500D01*
X143712485Y-131762984D01*
X143838015Y-131690509D01*
X143940509Y-131588015D01*
X144012984Y-131462485D01*
X144050500Y-131322475D01*
X144050500Y-131177525D01*
X144012984Y-131037515D01*
X143982637Y-130984953D01*
X143940511Y-130911988D01*
X143940506Y-130911982D01*
X143838017Y-130809493D01*
X143838011Y-130809488D01*
X143712488Y-130737017D01*
X143712489Y-130737017D01*
X143701006Y-130733940D01*
X143572475Y-130699500D01*
X143427525Y-130699500D01*
X143298993Y-130733940D01*
X143287511Y-130737017D01*
X143161988Y-130809488D01*
X143161982Y-130809493D01*
X143059493Y-130911982D01*
X143059488Y-130911988D01*
X142987017Y-131037511D01*
X142987016Y-131037515D01*
X142949500Y-131177525D01*
X131091580Y-131177525D01*
X131223844Y-131045261D01*
X131372291Y-130840941D01*
X131486948Y-130615914D01*
X131531335Y-130479305D01*
X131564990Y-130375725D01*
X131564990Y-130375724D01*
X131564991Y-130375721D01*
X131604500Y-130126277D01*
X131604500Y-129873723D01*
X131596383Y-129822475D01*
X131575210Y-129688796D01*
X131573424Y-129677525D01*
X145449500Y-129677525D01*
X145449500Y-129822475D01*
X145477649Y-129927527D01*
X145487017Y-129962488D01*
X145559488Y-130088011D01*
X145559490Y-130088013D01*
X145559491Y-130088015D01*
X145661985Y-130190509D01*
X145661986Y-130190510D01*
X145661988Y-130190511D01*
X145787511Y-130262982D01*
X145787512Y-130262982D01*
X145787515Y-130262984D01*
X145927525Y-130300500D01*
X145927528Y-130300500D01*
X146072472Y-130300500D01*
X146072475Y-130300500D01*
X146212485Y-130262984D01*
X146338015Y-130190509D01*
X146440509Y-130088015D01*
X146512984Y-129962485D01*
X146550500Y-129822475D01*
X146550500Y-129677525D01*
X146512984Y-129537515D01*
X146469665Y-129462485D01*
X146440511Y-129411988D01*
X146440506Y-129411982D01*
X146338017Y-129309493D01*
X146338011Y-129309488D01*
X146212488Y-129237017D01*
X146212489Y-129237017D01*
X146201006Y-129233940D01*
X146072475Y-129199500D01*
X145927525Y-129199500D01*
X145798993Y-129233940D01*
X145787511Y-129237017D01*
X145661988Y-129309488D01*
X145661982Y-129309493D01*
X145559493Y-129411982D01*
X145559488Y-129411988D01*
X145487017Y-129537511D01*
X145487016Y-129537515D01*
X145449500Y-129677525D01*
X131573424Y-129677525D01*
X131570921Y-129661723D01*
X131564991Y-129624279D01*
X131564990Y-129624275D01*
X131564990Y-129624274D01*
X131486949Y-129384088D01*
X131486948Y-129384085D01*
X131425242Y-129262982D01*
X131372291Y-129159059D01*
X131223844Y-128954739D01*
X131045261Y-128776156D01*
X130909507Y-128677525D01*
X140699500Y-128677525D01*
X140699500Y-128822475D01*
X140737016Y-128962485D01*
X140737017Y-128962488D01*
X140809488Y-129088011D01*
X140809490Y-129088013D01*
X140809491Y-129088015D01*
X140911985Y-129190509D01*
X140911986Y-129190510D01*
X140911988Y-129190511D01*
X141037511Y-129262982D01*
X141037512Y-129262982D01*
X141037515Y-129262984D01*
X141177525Y-129300500D01*
X141177528Y-129300500D01*
X141322472Y-129300500D01*
X141322475Y-129300500D01*
X141462485Y-129262984D01*
X141588015Y-129190509D01*
X141662319Y-129116205D01*
X141723642Y-129082720D01*
X141793334Y-129087704D01*
X141837681Y-129116205D01*
X141911985Y-129190509D01*
X141911986Y-129190510D01*
X141911988Y-129190511D01*
X142037511Y-129262982D01*
X142037512Y-129262982D01*
X142037515Y-129262984D01*
X142177525Y-129300500D01*
X142177528Y-129300500D01*
X142322472Y-129300500D01*
X142322475Y-129300500D01*
X142462485Y-129262984D01*
X142588015Y-129190509D01*
X142690509Y-129088015D01*
X142762984Y-128962485D01*
X142800500Y-128822475D01*
X142800500Y-128677525D01*
X142762984Y-128537515D01*
X142748860Y-128513052D01*
X142690511Y-128411988D01*
X142690506Y-128411982D01*
X142588017Y-128309493D01*
X142588011Y-128309488D01*
X142462488Y-128237017D01*
X142462489Y-128237017D01*
X142451006Y-128233940D01*
X142322475Y-128199500D01*
X142177525Y-128199500D01*
X142048993Y-128233940D01*
X142037511Y-128237017D01*
X141911988Y-128309488D01*
X141911982Y-128309493D01*
X141837681Y-128383795D01*
X141776358Y-128417280D01*
X141706666Y-128412296D01*
X141662319Y-128383795D01*
X141588017Y-128309493D01*
X141588011Y-128309488D01*
X141462488Y-128237017D01*
X141462489Y-128237017D01*
X141451006Y-128233940D01*
X141322475Y-128199500D01*
X141177525Y-128199500D01*
X141048993Y-128233940D01*
X141037511Y-128237017D01*
X140911988Y-128309488D01*
X140911982Y-128309493D01*
X140809493Y-128411982D01*
X140809488Y-128411988D01*
X140737017Y-128537511D01*
X140737016Y-128537515D01*
X140699500Y-128677525D01*
X130909507Y-128677525D01*
X130840941Y-128627709D01*
X130615914Y-128513051D01*
X130615911Y-128513050D01*
X130375723Y-128435009D01*
X130209425Y-128408669D01*
X130126277Y-128395500D01*
X129873723Y-128395500D01*
X129790575Y-128408669D01*
X129624277Y-128435009D01*
X129624274Y-128435009D01*
X129384088Y-128513050D01*
X129384085Y-128513051D01*
X129159058Y-128627709D01*
X128954736Y-128776158D01*
X128776158Y-128954736D01*
X128627709Y-129159058D01*
X128513051Y-129384085D01*
X128513050Y-129384088D01*
X128435009Y-129624274D01*
X128435009Y-129624277D01*
X128403617Y-129822475D01*
X128395500Y-129873723D01*
X125381500Y-129873723D01*
X125381500Y-127677525D01*
X155449500Y-127677525D01*
X155449500Y-127822475D01*
X155487016Y-127962485D01*
X155487017Y-127962488D01*
X155545048Y-128063000D01*
X155561521Y-128130900D01*
X155545048Y-128187000D01*
X155487017Y-128287511D01*
X155487016Y-128287515D01*
X155449500Y-128427525D01*
X155449500Y-128572475D01*
X155477649Y-128677527D01*
X155487017Y-128712488D01*
X155545048Y-128813000D01*
X155561521Y-128880900D01*
X155545048Y-128937000D01*
X155487017Y-129037511D01*
X155487016Y-129037515D01*
X155449500Y-129177525D01*
X155449500Y-129322475D01*
X155479653Y-129435005D01*
X155487017Y-129462488D01*
X155545048Y-129563000D01*
X155561521Y-129630900D01*
X155545048Y-129687000D01*
X155487017Y-129787511D01*
X155487016Y-129787515D01*
X155449500Y-129927525D01*
X155449500Y-130072475D01*
X155481128Y-130190511D01*
X155487017Y-130212488D01*
X155545048Y-130313000D01*
X155561521Y-130380900D01*
X155545048Y-130437000D01*
X155487017Y-130537511D01*
X155487016Y-130537515D01*
X155449500Y-130677525D01*
X155449500Y-130822475D01*
X155487016Y-130962485D01*
X155487017Y-130962488D01*
X155559488Y-131088011D01*
X155559490Y-131088013D01*
X155559491Y-131088015D01*
X155661985Y-131190509D01*
X155661986Y-131190510D01*
X155661988Y-131190511D01*
X155787511Y-131262982D01*
X155787512Y-131262982D01*
X155787515Y-131262984D01*
X155927525Y-131300500D01*
X155927528Y-131300500D01*
X156072472Y-131300500D01*
X156072475Y-131300500D01*
X156212485Y-131262984D01*
X156338015Y-131190509D01*
X156440509Y-131088015D01*
X156512984Y-130962485D01*
X156550500Y-130822475D01*
X156550500Y-130677525D01*
X156512984Y-130537515D01*
X156454950Y-130436997D01*
X156438478Y-130369101D01*
X156454951Y-130313000D01*
X156512984Y-130212485D01*
X156550500Y-130072475D01*
X156550500Y-129927525D01*
X156512984Y-129787515D01*
X156454950Y-129686997D01*
X156438478Y-129619101D01*
X156454951Y-129563000D01*
X156512984Y-129462485D01*
X156550500Y-129322475D01*
X156550500Y-129205010D01*
X159745500Y-129205010D01*
X159745500Y-129434989D01*
X159745501Y-129435005D01*
X159775518Y-129663009D01*
X159775519Y-129663014D01*
X159775520Y-129663020D01*
X159822073Y-129836758D01*
X159835046Y-129885175D01*
X159835049Y-129885185D01*
X159923057Y-130097654D01*
X159923061Y-130097664D01*
X160038055Y-130296839D01*
X160178064Y-130479303D01*
X160178070Y-130479310D01*
X160340689Y-130641929D01*
X160340696Y-130641935D01*
X160523160Y-130781944D01*
X160722335Y-130896938D01*
X160722336Y-130896938D01*
X160722339Y-130896940D01*
X160934824Y-130984954D01*
X161156980Y-131044480D01*
X161385004Y-131074500D01*
X161385011Y-131074500D01*
X161614989Y-131074500D01*
X161614996Y-131074500D01*
X161843020Y-131044480D01*
X162065176Y-130984954D01*
X162277661Y-130896940D01*
X162476840Y-130781944D01*
X162659305Y-130641934D01*
X162821934Y-130479305D01*
X162961944Y-130296840D01*
X163076940Y-130097661D01*
X163164954Y-129885176D01*
X163168023Y-129873723D01*
X168395500Y-129873723D01*
X168395500Y-130126277D01*
X168409155Y-130212488D01*
X168435009Y-130375722D01*
X168435009Y-130375725D01*
X168513050Y-130615911D01*
X168513051Y-130615914D01*
X168618300Y-130822475D01*
X168627709Y-130840941D01*
X168776156Y-131045261D01*
X168954739Y-131223844D01*
X169159059Y-131372291D01*
X169269428Y-131428526D01*
X169384085Y-131486948D01*
X169384088Y-131486949D01*
X169537669Y-131536850D01*
X169624279Y-131564991D01*
X169873723Y-131604500D01*
X169873724Y-131604500D01*
X170126276Y-131604500D01*
X170126277Y-131604500D01*
X170375721Y-131564991D01*
X170375724Y-131564990D01*
X170375725Y-131564990D01*
X170615911Y-131486949D01*
X170615914Y-131486948D01*
X170663925Y-131462485D01*
X170840941Y-131372291D01*
X171045261Y-131223844D01*
X171223844Y-131045261D01*
X171372291Y-130840941D01*
X171486948Y-130615914D01*
X171531335Y-130479305D01*
X171564990Y-130375725D01*
X171564990Y-130375724D01*
X171564991Y-130375721D01*
X171604500Y-130126277D01*
X171604500Y-129873723D01*
X171564991Y-129624279D01*
X171564990Y-129624275D01*
X171564990Y-129624274D01*
X171486949Y-129384088D01*
X171486948Y-129384085D01*
X171425242Y-129262982D01*
X171372291Y-129159059D01*
X171223844Y-128954739D01*
X171045261Y-128776156D01*
X170840941Y-128627709D01*
X170615914Y-128513051D01*
X170615911Y-128513050D01*
X170375723Y-128435009D01*
X170209425Y-128408669D01*
X170126277Y-128395500D01*
X169873723Y-128395500D01*
X169790575Y-128408669D01*
X169624277Y-128435009D01*
X169624274Y-128435009D01*
X169384088Y-128513050D01*
X169384085Y-128513051D01*
X169159058Y-128627709D01*
X168954736Y-128776158D01*
X168776158Y-128954736D01*
X168627709Y-129159058D01*
X168513051Y-129384085D01*
X168513050Y-129384088D01*
X168435009Y-129624274D01*
X168435009Y-129624277D01*
X168403617Y-129822475D01*
X168395500Y-129873723D01*
X163168023Y-129873723D01*
X163224480Y-129663020D01*
X163254500Y-129434996D01*
X163254500Y-129205004D01*
X163224480Y-128976980D01*
X163164954Y-128754824D01*
X163076940Y-128542339D01*
X162961944Y-128343160D01*
X162821935Y-128160696D01*
X162821929Y-128160689D01*
X162659310Y-127998070D01*
X162659303Y-127998064D01*
X162476839Y-127858055D01*
X162277664Y-127743061D01*
X162277654Y-127743057D01*
X162065185Y-127655049D01*
X162065178Y-127655047D01*
X162065176Y-127655046D01*
X161843020Y-127595520D01*
X161843014Y-127595519D01*
X161843009Y-127595518D01*
X161615005Y-127565501D01*
X161615002Y-127565500D01*
X161614996Y-127565500D01*
X161385004Y-127565500D01*
X161384998Y-127565500D01*
X161384994Y-127565501D01*
X161156990Y-127595518D01*
X161156983Y-127595519D01*
X161156980Y-127595520D01*
X160934824Y-127655046D01*
X160934814Y-127655049D01*
X160722345Y-127743057D01*
X160722335Y-127743061D01*
X160523160Y-127858055D01*
X160340696Y-127998064D01*
X160340689Y-127998070D01*
X160178070Y-128160689D01*
X160178064Y-128160696D01*
X160038055Y-128343160D01*
X159923061Y-128542335D01*
X159923057Y-128542345D01*
X159835049Y-128754814D01*
X159835046Y-128754824D01*
X159781480Y-128954739D01*
X159775521Y-128976977D01*
X159775518Y-128976990D01*
X159745501Y-129204994D01*
X159745500Y-129205010D01*
X156550500Y-129205010D01*
X156550500Y-129177525D01*
X156512984Y-129037515D01*
X156454950Y-128936997D01*
X156438478Y-128869101D01*
X156454951Y-128813000D01*
X156512984Y-128712485D01*
X156550500Y-128572475D01*
X156550500Y-128427525D01*
X156512984Y-128287515D01*
X156454950Y-128186997D01*
X156438478Y-128119101D01*
X156454951Y-128063000D01*
X156512984Y-127962485D01*
X156550500Y-127822475D01*
X156550500Y-127677525D01*
X156512984Y-127537515D01*
X156440509Y-127411985D01*
X156338015Y-127309491D01*
X156338013Y-127309490D01*
X156338011Y-127309488D01*
X156212488Y-127237017D01*
X156212489Y-127237017D01*
X156201006Y-127233940D01*
X156072475Y-127199500D01*
X155927525Y-127199500D01*
X155798993Y-127233940D01*
X155787511Y-127237017D01*
X155661988Y-127309488D01*
X155661982Y-127309493D01*
X155559493Y-127411982D01*
X155559488Y-127411988D01*
X155487017Y-127537511D01*
X155487016Y-127537515D01*
X155449500Y-127677525D01*
X125381500Y-127677525D01*
X125381500Y-122852135D01*
X128774500Y-122852135D01*
X128774500Y-124147870D01*
X128774501Y-124147876D01*
X128780908Y-124207483D01*
X128831202Y-124342328D01*
X128831206Y-124342335D01*
X128917452Y-124457544D01*
X128917455Y-124457547D01*
X129032664Y-124543793D01*
X129032671Y-124543797D01*
X129167517Y-124594091D01*
X129167516Y-124594091D01*
X129174444Y-124594835D01*
X129227127Y-124600500D01*
X130772872Y-124600499D01*
X130832483Y-124594091D01*
X130967331Y-124543796D01*
X131082546Y-124457546D01*
X131168796Y-124342331D01*
X131219091Y-124207483D01*
X131225500Y-124147873D01*
X131225500Y-123927525D01*
X136449500Y-123927525D01*
X136449500Y-124072475D01*
X136485676Y-124207483D01*
X136487017Y-124212488D01*
X136559488Y-124338011D01*
X136559490Y-124338013D01*
X136559491Y-124338015D01*
X136661985Y-124440509D01*
X136661986Y-124440510D01*
X136661988Y-124440511D01*
X136787511Y-124512982D01*
X136787512Y-124512982D01*
X136787515Y-124512984D01*
X136927525Y-124550500D01*
X136927528Y-124550500D01*
X137072472Y-124550500D01*
X137072475Y-124550500D01*
X137212485Y-124512984D01*
X137338015Y-124440509D01*
X137412319Y-124366205D01*
X137473642Y-124332720D01*
X137543334Y-124337704D01*
X137587681Y-124366205D01*
X137661985Y-124440509D01*
X137661986Y-124440510D01*
X137661988Y-124440511D01*
X137787511Y-124512982D01*
X137787512Y-124512982D01*
X137787515Y-124512984D01*
X137927525Y-124550500D01*
X137927528Y-124550500D01*
X138072472Y-124550500D01*
X138072475Y-124550500D01*
X138212485Y-124512984D01*
X138338015Y-124440509D01*
X138440509Y-124338015D01*
X138476746Y-124275250D01*
X138512982Y-124212489D01*
X138512982Y-124212487D01*
X138512984Y-124212485D01*
X138518437Y-124192136D01*
X158999500Y-124192136D01*
X158999500Y-125807863D01*
X158999501Y-125807882D01*
X159005908Y-125867481D01*
X159056202Y-126002327D01*
X159056203Y-126002328D01*
X159056204Y-126002330D01*
X159142454Y-126117546D01*
X159257670Y-126203796D01*
X159257671Y-126203796D01*
X159257672Y-126203797D01*
X159392518Y-126254091D01*
X159392517Y-126254091D01*
X159399445Y-126254835D01*
X159452128Y-126260500D01*
X159452137Y-126260500D01*
X160547863Y-126260500D01*
X160547872Y-126260500D01*
X160607482Y-126254091D01*
X160742330Y-126203796D01*
X160857546Y-126117546D01*
X160943796Y-126002330D01*
X160994091Y-125867482D01*
X161000500Y-125807872D01*
X161000500Y-124641617D01*
X161750000Y-124641617D01*
X161750000Y-124750000D01*
X162555440Y-124750000D01*
X162524755Y-124803147D01*
X162490000Y-124932857D01*
X162490000Y-125067143D01*
X162524755Y-125196853D01*
X162555440Y-125250000D01*
X161750000Y-125250000D01*
X161750000Y-125358382D01*
X161780778Y-125552705D01*
X161841581Y-125739835D01*
X161930904Y-125915143D01*
X162046555Y-126074321D01*
X162185678Y-126213444D01*
X162344856Y-126329095D01*
X162520162Y-126418418D01*
X162707283Y-126479218D01*
X162750000Y-126485984D01*
X162750000Y-125444560D01*
X162803147Y-125475245D01*
X162932857Y-125510000D01*
X163067143Y-125510000D01*
X163196853Y-125475245D01*
X163250000Y-125444560D01*
X163250000Y-126485983D01*
X163292716Y-126479218D01*
X163479837Y-126418418D01*
X163655143Y-126329095D01*
X163814321Y-126213444D01*
X163953444Y-126074321D01*
X164069095Y-125915143D01*
X164158418Y-125739835D01*
X164219221Y-125552705D01*
X164250000Y-125358382D01*
X164250000Y-125250000D01*
X163444560Y-125250000D01*
X163475245Y-125196853D01*
X163510000Y-125067143D01*
X163510000Y-124932857D01*
X163475245Y-124803147D01*
X163444560Y-124750000D01*
X164250000Y-124750000D01*
X164250000Y-124641617D01*
X164219221Y-124447294D01*
X164158418Y-124260164D01*
X164069095Y-124084856D01*
X163953444Y-123925678D01*
X163814321Y-123786555D01*
X163655143Y-123670904D01*
X163479835Y-123581581D01*
X163292705Y-123520778D01*
X163250000Y-123514014D01*
X163250000Y-124555439D01*
X163196853Y-124524755D01*
X163067143Y-124490000D01*
X162932857Y-124490000D01*
X162803147Y-124524755D01*
X162750000Y-124555439D01*
X162750000Y-123514014D01*
X162749999Y-123514014D01*
X162707294Y-123520778D01*
X162520164Y-123581581D01*
X162344856Y-123670904D01*
X162185678Y-123786555D01*
X162046555Y-123925678D01*
X161930904Y-124084856D01*
X161841581Y-124260164D01*
X161780778Y-124447294D01*
X161750000Y-124641617D01*
X161000500Y-124641617D01*
X161000500Y-124192128D01*
X160994091Y-124132518D01*
X160976314Y-124084856D01*
X160943797Y-123997672D01*
X160943796Y-123997671D01*
X160943796Y-123997670D01*
X160857546Y-123882454D01*
X160742330Y-123796204D01*
X160742328Y-123796203D01*
X160742327Y-123796202D01*
X160607481Y-123745908D01*
X160607482Y-123745908D01*
X160547882Y-123739501D01*
X160547880Y-123739500D01*
X160547872Y-123739500D01*
X159452128Y-123739500D01*
X159452120Y-123739500D01*
X159452117Y-123739501D01*
X159392518Y-123745908D01*
X159257672Y-123796202D01*
X159257670Y-123796204D01*
X159142454Y-123882454D01*
X159056204Y-123997670D01*
X159056202Y-123997672D01*
X159005908Y-124132518D01*
X158999501Y-124192117D01*
X158999500Y-124192136D01*
X138518437Y-124192136D01*
X138550500Y-124072475D01*
X138550500Y-123927525D01*
X138512984Y-123787515D01*
X138485262Y-123739500D01*
X138440511Y-123661988D01*
X138440506Y-123661982D01*
X138338017Y-123559493D01*
X138338011Y-123559488D01*
X138212488Y-123487017D01*
X138212489Y-123487017D01*
X138201006Y-123483940D01*
X138072475Y-123449500D01*
X137927525Y-123449500D01*
X137798993Y-123483940D01*
X137787511Y-123487017D01*
X137661988Y-123559488D01*
X137661982Y-123559493D01*
X137587681Y-123633795D01*
X137526358Y-123667280D01*
X137456666Y-123662296D01*
X137412319Y-123633795D01*
X137338017Y-123559493D01*
X137338011Y-123559488D01*
X137212488Y-123487017D01*
X137212489Y-123487017D01*
X137201006Y-123483940D01*
X137072475Y-123449500D01*
X136927525Y-123449500D01*
X136798993Y-123483940D01*
X136787511Y-123487017D01*
X136661988Y-123559488D01*
X136661982Y-123559493D01*
X136559493Y-123661982D01*
X136559488Y-123661988D01*
X136487017Y-123787511D01*
X136487016Y-123787515D01*
X136449500Y-123927525D01*
X131225500Y-123927525D01*
X131225499Y-123487017D01*
X131225499Y-122852129D01*
X131225498Y-122852123D01*
X131225497Y-122852116D01*
X131219091Y-122792517D01*
X131168796Y-122657669D01*
X131168795Y-122657668D01*
X131168793Y-122657664D01*
X131082547Y-122542455D01*
X131082544Y-122542452D01*
X130967335Y-122456206D01*
X130967328Y-122456202D01*
X130832482Y-122405908D01*
X130832483Y-122405908D01*
X130772883Y-122399501D01*
X130772881Y-122399500D01*
X130772873Y-122399500D01*
X130772864Y-122399500D01*
X129227129Y-122399500D01*
X129227123Y-122399501D01*
X129167516Y-122405908D01*
X129032671Y-122456202D01*
X129032664Y-122456206D01*
X128917455Y-122542452D01*
X128917452Y-122542455D01*
X128831206Y-122657664D01*
X128831202Y-122657671D01*
X128780908Y-122792517D01*
X128774501Y-122852116D01*
X128774501Y-122852123D01*
X128774500Y-122852135D01*
X125381500Y-122852135D01*
X125381500Y-118250000D01*
X128547769Y-118250000D01*
X129595854Y-118250000D01*
X129557370Y-118316657D01*
X129525000Y-118437465D01*
X129525000Y-118562535D01*
X129557370Y-118683343D01*
X129595854Y-118750000D01*
X128547769Y-118750000D01*
X128558242Y-118816126D01*
X128558242Y-118816129D01*
X128623904Y-119018217D01*
X128720379Y-119207557D01*
X128845272Y-119379459D01*
X128845276Y-119379464D01*
X128995535Y-119529723D01*
X128995540Y-119529727D01*
X129167442Y-119654620D01*
X129356778Y-119751093D01*
X129405022Y-119766768D01*
X129462698Y-119806205D01*
X129489897Y-119870563D01*
X129477983Y-119939410D01*
X129430740Y-119990886D01*
X129423000Y-119995185D01*
X129298211Y-120058768D01*
X129218256Y-120116859D01*
X129158072Y-120160586D01*
X129158070Y-120160588D01*
X129158069Y-120160588D01*
X129035588Y-120283069D01*
X129035588Y-120283070D01*
X129035586Y-120283072D01*
X128995893Y-120337704D01*
X128933768Y-120423211D01*
X128855128Y-120577552D01*
X128801597Y-120742302D01*
X128794437Y-120787511D01*
X128774500Y-120913389D01*
X128774500Y-121086611D01*
X128801598Y-121257701D01*
X128827694Y-121338017D01*
X128855128Y-121422447D01*
X128901259Y-121512984D01*
X128933768Y-121576788D01*
X129035586Y-121716928D01*
X129158072Y-121839414D01*
X129298212Y-121941232D01*
X129452555Y-122019873D01*
X129617299Y-122073402D01*
X129788389Y-122100500D01*
X129788390Y-122100500D01*
X130211610Y-122100500D01*
X130211611Y-122100500D01*
X130382701Y-122073402D01*
X130547445Y-122019873D01*
X130701788Y-121941232D01*
X130720654Y-121927525D01*
X136449500Y-121927525D01*
X136449500Y-122072475D01*
X136487016Y-122212485D01*
X136487017Y-122212488D01*
X136559488Y-122338011D01*
X136559490Y-122338013D01*
X136559491Y-122338015D01*
X136661985Y-122440509D01*
X136661986Y-122440510D01*
X136661988Y-122440511D01*
X136787511Y-122512982D01*
X136787512Y-122512982D01*
X136787515Y-122512984D01*
X136927525Y-122550500D01*
X136927528Y-122550500D01*
X137072472Y-122550500D01*
X137072475Y-122550500D01*
X137212485Y-122512984D01*
X137338015Y-122440509D01*
X137412319Y-122366205D01*
X137473642Y-122332720D01*
X137543334Y-122337704D01*
X137587681Y-122366205D01*
X137661985Y-122440509D01*
X137661986Y-122440510D01*
X137661988Y-122440511D01*
X137787511Y-122512982D01*
X137787512Y-122512982D01*
X137787515Y-122512984D01*
X137927525Y-122550500D01*
X137927528Y-122550500D01*
X138072472Y-122550500D01*
X138072475Y-122550500D01*
X138212485Y-122512984D01*
X138338015Y-122440509D01*
X138440509Y-122338015D01*
X138512984Y-122212485D01*
X138550500Y-122072475D01*
X138550500Y-121927525D01*
X138512984Y-121787515D01*
X138472230Y-121716928D01*
X138440511Y-121661988D01*
X138440506Y-121661982D01*
X138338017Y-121559493D01*
X138338011Y-121559488D01*
X138212488Y-121487017D01*
X138212489Y-121487017D01*
X138201006Y-121483940D01*
X138072475Y-121449500D01*
X137927525Y-121449500D01*
X137798993Y-121483940D01*
X137787511Y-121487017D01*
X137661988Y-121559488D01*
X137661982Y-121559493D01*
X137587681Y-121633795D01*
X137526358Y-121667280D01*
X137456666Y-121662296D01*
X137412319Y-121633795D01*
X137338017Y-121559493D01*
X137338011Y-121559488D01*
X137212488Y-121487017D01*
X137212489Y-121487017D01*
X137201006Y-121483940D01*
X137072475Y-121449500D01*
X136927525Y-121449500D01*
X136798993Y-121483940D01*
X136787511Y-121487017D01*
X136661988Y-121559488D01*
X136661982Y-121559493D01*
X136559493Y-121661982D01*
X136559488Y-121661988D01*
X136487017Y-121787511D01*
X136487016Y-121787515D01*
X136449500Y-121927525D01*
X130720654Y-121927525D01*
X130841928Y-121839414D01*
X130964414Y-121716928D01*
X131066232Y-121576788D01*
X131144873Y-121422445D01*
X131198402Y-121257701D01*
X131225500Y-121086611D01*
X131225500Y-120927525D01*
X134449500Y-120927525D01*
X134449500Y-121072475D01*
X134487016Y-121212485D01*
X134487017Y-121212488D01*
X134559488Y-121338011D01*
X134559490Y-121338013D01*
X134559491Y-121338015D01*
X134661985Y-121440509D01*
X134661986Y-121440510D01*
X134661988Y-121440511D01*
X134787511Y-121512982D01*
X134787512Y-121512982D01*
X134787515Y-121512984D01*
X134927525Y-121550500D01*
X134927528Y-121550500D01*
X135072472Y-121550500D01*
X135072475Y-121550500D01*
X135212485Y-121512984D01*
X135338015Y-121440509D01*
X135440509Y-121338015D01*
X135512984Y-121212485D01*
X135550500Y-121072475D01*
X135550500Y-120927525D01*
X135512984Y-120787515D01*
X135486878Y-120742299D01*
X135440511Y-120661988D01*
X135440506Y-120661982D01*
X135338017Y-120559493D01*
X135338011Y-120559488D01*
X135212488Y-120487017D01*
X135212489Y-120487017D01*
X135201006Y-120483940D01*
X135072475Y-120449500D01*
X134927525Y-120449500D01*
X134798993Y-120483940D01*
X134787511Y-120487017D01*
X134661988Y-120559488D01*
X134661982Y-120559493D01*
X134559493Y-120661982D01*
X134559488Y-120661988D01*
X134487017Y-120787511D01*
X134487016Y-120787515D01*
X134449500Y-120927525D01*
X131225500Y-120927525D01*
X131225500Y-120913389D01*
X131198402Y-120742299D01*
X131144873Y-120577555D01*
X131066232Y-120423212D01*
X130964414Y-120283072D01*
X130841928Y-120160586D01*
X130701788Y-120058768D01*
X130645098Y-120029883D01*
X130576999Y-119995185D01*
X130526203Y-119947211D01*
X130521328Y-119927525D01*
X136449500Y-119927525D01*
X136449500Y-120072475D01*
X136487016Y-120212485D01*
X136487017Y-120212488D01*
X136559488Y-120338011D01*
X136559490Y-120338013D01*
X136559491Y-120338015D01*
X136661985Y-120440509D01*
X136661986Y-120440510D01*
X136661988Y-120440511D01*
X136787511Y-120512982D01*
X136787512Y-120512982D01*
X136787515Y-120512984D01*
X136927525Y-120550500D01*
X136927528Y-120550500D01*
X137072472Y-120550500D01*
X137072475Y-120550500D01*
X137212485Y-120512984D01*
X137338015Y-120440509D01*
X137412319Y-120366205D01*
X137473642Y-120332720D01*
X137543334Y-120337704D01*
X137587681Y-120366205D01*
X137661985Y-120440509D01*
X137661986Y-120440510D01*
X137661988Y-120440511D01*
X137787511Y-120512982D01*
X137787512Y-120512982D01*
X137787515Y-120512984D01*
X137927525Y-120550500D01*
X137927528Y-120550500D01*
X138072472Y-120550500D01*
X138072475Y-120550500D01*
X138212485Y-120512984D01*
X138338015Y-120440509D01*
X138440509Y-120338015D01*
X138512984Y-120212485D01*
X138550500Y-120072475D01*
X138550500Y-119927525D01*
X138512984Y-119787515D01*
X138500696Y-119766232D01*
X138440511Y-119661988D01*
X138440506Y-119661982D01*
X138338017Y-119559493D01*
X138338011Y-119559488D01*
X138212488Y-119487017D01*
X138212489Y-119487017D01*
X138201006Y-119483940D01*
X138072475Y-119449500D01*
X137927525Y-119449500D01*
X137798993Y-119483940D01*
X137787511Y-119487017D01*
X137661988Y-119559488D01*
X137661982Y-119559493D01*
X137587681Y-119633795D01*
X137526358Y-119667280D01*
X137456666Y-119662296D01*
X137412319Y-119633795D01*
X137338017Y-119559493D01*
X137338011Y-119559488D01*
X137212488Y-119487017D01*
X137212489Y-119487017D01*
X137201006Y-119483940D01*
X137072475Y-119449500D01*
X136927525Y-119449500D01*
X136798993Y-119483940D01*
X136787511Y-119487017D01*
X136661988Y-119559488D01*
X136661982Y-119559493D01*
X136559493Y-119661982D01*
X136559488Y-119661988D01*
X136487017Y-119787511D01*
X136487016Y-119787515D01*
X136449500Y-119927525D01*
X130521328Y-119927525D01*
X130509408Y-119879390D01*
X130531945Y-119813255D01*
X130586660Y-119769803D01*
X130594978Y-119766768D01*
X130643219Y-119751094D01*
X130832557Y-119654620D01*
X131004459Y-119529727D01*
X131004464Y-119529723D01*
X131154723Y-119379464D01*
X131154727Y-119379459D01*
X131279620Y-119207557D01*
X131376095Y-119018217D01*
X131441757Y-118816129D01*
X131441757Y-118816126D01*
X131452231Y-118750000D01*
X130404146Y-118750000D01*
X130442630Y-118683343D01*
X130475000Y-118562535D01*
X130475000Y-118437465D01*
X130472337Y-118427525D01*
X136449500Y-118427525D01*
X136449500Y-118572475D01*
X136487016Y-118712485D01*
X136487017Y-118712488D01*
X136559488Y-118838011D01*
X136559490Y-118838013D01*
X136559491Y-118838015D01*
X136661985Y-118940509D01*
X136661986Y-118940510D01*
X136661988Y-118940511D01*
X136787511Y-119012982D01*
X136787512Y-119012982D01*
X136787515Y-119012984D01*
X136927525Y-119050500D01*
X136927528Y-119050500D01*
X137072472Y-119050500D01*
X137072475Y-119050500D01*
X137212485Y-119012984D01*
X137338015Y-118940509D01*
X137412319Y-118866205D01*
X137473642Y-118832720D01*
X137543334Y-118837704D01*
X137587681Y-118866205D01*
X137661985Y-118940509D01*
X137661986Y-118940510D01*
X137661988Y-118940511D01*
X137787511Y-119012982D01*
X137787512Y-119012982D01*
X137787515Y-119012984D01*
X137927525Y-119050500D01*
X137927528Y-119050500D01*
X138072472Y-119050500D01*
X138072475Y-119050500D01*
X138212485Y-119012984D01*
X138338015Y-118940509D01*
X138440509Y-118838015D01*
X138512984Y-118712485D01*
X138550500Y-118572475D01*
X138550500Y-118427525D01*
X138512984Y-118287515D01*
X138469665Y-118212485D01*
X138440511Y-118161988D01*
X138440506Y-118161982D01*
X138338017Y-118059493D01*
X138338015Y-118059491D01*
X138212485Y-117987016D01*
X138072475Y-117949500D01*
X137927525Y-117949500D01*
X137798993Y-117983940D01*
X137787511Y-117987017D01*
X137661988Y-118059488D01*
X137661982Y-118059493D01*
X137587681Y-118133795D01*
X137526358Y-118167280D01*
X137456666Y-118162296D01*
X137412319Y-118133795D01*
X137338017Y-118059493D01*
X137338011Y-118059488D01*
X137212488Y-117987017D01*
X137212489Y-117987017D01*
X137201006Y-117983940D01*
X137072475Y-117949500D01*
X136927525Y-117949500D01*
X136798993Y-117983940D01*
X136787511Y-117987017D01*
X136661988Y-118059488D01*
X136661982Y-118059493D01*
X136559493Y-118161982D01*
X136559488Y-118161988D01*
X136487017Y-118287511D01*
X136487016Y-118287515D01*
X136449500Y-118427525D01*
X130472337Y-118427525D01*
X130442630Y-118316657D01*
X130404146Y-118250000D01*
X131452231Y-118250000D01*
X131441757Y-118183873D01*
X131441757Y-118183870D01*
X131376095Y-117981782D01*
X131348449Y-117927525D01*
X157099500Y-117927525D01*
X157099500Y-118072475D01*
X157135906Y-118208343D01*
X157137017Y-118212488D01*
X157209488Y-118338011D01*
X157209490Y-118338013D01*
X157209491Y-118338015D01*
X157311985Y-118440509D01*
X157311986Y-118440510D01*
X157311988Y-118440511D01*
X157437511Y-118512982D01*
X157437512Y-118512982D01*
X157437515Y-118512984D01*
X157577525Y-118550500D01*
X157577528Y-118550500D01*
X157722472Y-118550500D01*
X157722475Y-118550500D01*
X157862485Y-118512984D01*
X157905085Y-118488389D01*
X159149500Y-118488389D01*
X159149500Y-118911610D01*
X159165555Y-119012982D01*
X159176598Y-119082701D01*
X159230127Y-119247445D01*
X159308768Y-119401788D01*
X159410586Y-119541928D01*
X159533072Y-119664414D01*
X159673212Y-119766232D01*
X159827555Y-119844873D01*
X159992299Y-119898402D01*
X160163389Y-119925500D01*
X160163390Y-119925500D01*
X160336610Y-119925500D01*
X160336611Y-119925500D01*
X160507701Y-119898402D01*
X160672445Y-119844873D01*
X160826788Y-119766232D01*
X160966928Y-119664414D01*
X161089414Y-119541928D01*
X161191232Y-119401788D01*
X161269873Y-119247445D01*
X161323402Y-119082701D01*
X161350500Y-118911611D01*
X161350500Y-118488389D01*
X161649500Y-118488389D01*
X161649500Y-118911610D01*
X161665555Y-119012982D01*
X161676598Y-119082701D01*
X161730127Y-119247445D01*
X161808768Y-119401788D01*
X161910586Y-119541928D01*
X162033072Y-119664414D01*
X162173212Y-119766232D01*
X162327555Y-119844873D01*
X162492299Y-119898402D01*
X162663389Y-119925500D01*
X162663390Y-119925500D01*
X162836610Y-119925500D01*
X162836611Y-119925500D01*
X163007701Y-119898402D01*
X163172445Y-119844873D01*
X163326788Y-119766232D01*
X163466928Y-119664414D01*
X163589414Y-119541928D01*
X163691232Y-119401788D01*
X163769873Y-119247445D01*
X163823402Y-119082701D01*
X163850500Y-118911611D01*
X163850500Y-118488389D01*
X164149500Y-118488389D01*
X164149500Y-118911610D01*
X164165555Y-119012982D01*
X164176598Y-119082701D01*
X164230127Y-119247445D01*
X164308768Y-119401788D01*
X164410586Y-119541928D01*
X164533072Y-119664414D01*
X164673212Y-119766232D01*
X164827555Y-119844873D01*
X164992299Y-119898402D01*
X165163389Y-119925500D01*
X165163390Y-119925500D01*
X165336610Y-119925500D01*
X165336611Y-119925500D01*
X165507701Y-119898402D01*
X165672445Y-119844873D01*
X165826788Y-119766232D01*
X165966928Y-119664414D01*
X166089414Y-119541928D01*
X166191232Y-119401788D01*
X166269873Y-119247445D01*
X166323402Y-119082701D01*
X166350500Y-118911611D01*
X166350500Y-118488389D01*
X166323402Y-118317299D01*
X166269873Y-118152555D01*
X166191232Y-117998212D01*
X166191230Y-117998209D01*
X166191229Y-117998207D01*
X166190130Y-117996693D01*
X166190128Y-117996692D01*
X166139591Y-117927135D01*
X166649500Y-117927135D01*
X166649500Y-119472870D01*
X166649501Y-119472876D01*
X166655908Y-119532483D01*
X166706202Y-119667328D01*
X166706206Y-119667335D01*
X166792452Y-119782544D01*
X166792455Y-119782547D01*
X166907664Y-119868793D01*
X166907671Y-119868797D01*
X167042517Y-119919091D01*
X167042516Y-119919091D01*
X167049444Y-119919835D01*
X167102127Y-119925500D01*
X168397872Y-119925499D01*
X168457483Y-119919091D01*
X168592331Y-119868796D01*
X168707546Y-119782546D01*
X168793796Y-119667331D01*
X168844091Y-119532483D01*
X168850500Y-119472873D01*
X168850499Y-117927128D01*
X168844091Y-117867517D01*
X168840568Y-117858072D01*
X168793797Y-117732671D01*
X168793793Y-117732664D01*
X168707547Y-117617455D01*
X168707544Y-117617452D01*
X168592335Y-117531206D01*
X168592328Y-117531202D01*
X168457482Y-117480908D01*
X168457483Y-117480908D01*
X168397883Y-117474501D01*
X168397881Y-117474500D01*
X168397873Y-117474500D01*
X168397864Y-117474500D01*
X167102129Y-117474500D01*
X167102123Y-117474501D01*
X167042516Y-117480908D01*
X166907671Y-117531202D01*
X166907664Y-117531206D01*
X166792455Y-117617452D01*
X166792452Y-117617455D01*
X166706206Y-117732664D01*
X166706202Y-117732671D01*
X166655908Y-117867517D01*
X166649501Y-117927116D01*
X166649501Y-117927123D01*
X166649500Y-117927135D01*
X166139591Y-117927135D01*
X166139586Y-117927128D01*
X166089414Y-117858072D01*
X165966928Y-117735586D01*
X165826788Y-117633768D01*
X165672445Y-117555127D01*
X165507701Y-117501598D01*
X165507699Y-117501597D01*
X165507698Y-117501597D01*
X165376271Y-117480781D01*
X165336611Y-117474500D01*
X165163389Y-117474500D01*
X165123728Y-117480781D01*
X164992302Y-117501597D01*
X164827552Y-117555128D01*
X164673211Y-117633768D01*
X164593256Y-117691859D01*
X164533072Y-117735586D01*
X164533070Y-117735588D01*
X164533069Y-117735588D01*
X164410588Y-117858069D01*
X164410588Y-117858070D01*
X164410586Y-117858072D01*
X164403725Y-117867516D01*
X164308768Y-117998211D01*
X164230128Y-118152552D01*
X164176597Y-118317302D01*
X164149500Y-118488389D01*
X163850500Y-118488389D01*
X163823402Y-118317299D01*
X163769873Y-118152555D01*
X163691232Y-117998212D01*
X163589414Y-117858072D01*
X163466928Y-117735586D01*
X163326788Y-117633768D01*
X163172445Y-117555127D01*
X163007701Y-117501598D01*
X163007699Y-117501597D01*
X163007698Y-117501597D01*
X162876271Y-117480781D01*
X162836611Y-117474500D01*
X162663389Y-117474500D01*
X162623728Y-117480781D01*
X162492302Y-117501597D01*
X162327552Y-117555128D01*
X162173211Y-117633768D01*
X162093256Y-117691859D01*
X162033072Y-117735586D01*
X162033070Y-117735588D01*
X162033069Y-117735588D01*
X161910588Y-117858069D01*
X161910588Y-117858070D01*
X161910586Y-117858072D01*
X161903725Y-117867516D01*
X161808768Y-117998211D01*
X161730128Y-118152552D01*
X161676597Y-118317302D01*
X161649500Y-118488389D01*
X161350500Y-118488389D01*
X161323402Y-118317299D01*
X161269873Y-118152555D01*
X161191232Y-117998212D01*
X161089414Y-117858072D01*
X160966928Y-117735586D01*
X160826788Y-117633768D01*
X160672445Y-117555127D01*
X160507701Y-117501598D01*
X160507699Y-117501597D01*
X160507698Y-117501597D01*
X160376271Y-117480781D01*
X160336611Y-117474500D01*
X160163389Y-117474500D01*
X160123728Y-117480781D01*
X159992302Y-117501597D01*
X159827552Y-117555128D01*
X159673211Y-117633768D01*
X159593256Y-117691859D01*
X159533072Y-117735586D01*
X159533070Y-117735588D01*
X159533069Y-117735588D01*
X159410588Y-117858069D01*
X159410588Y-117858070D01*
X159410586Y-117858072D01*
X159403725Y-117867516D01*
X159308768Y-117998211D01*
X159230128Y-118152552D01*
X159176597Y-118317302D01*
X159149500Y-118488389D01*
X157905085Y-118488389D01*
X157988015Y-118440509D01*
X158090509Y-118338015D01*
X158162984Y-118212485D01*
X158200500Y-118072475D01*
X158200500Y-117927525D01*
X158162984Y-117787515D01*
X158090509Y-117661985D01*
X157988015Y-117559491D01*
X157988013Y-117559490D01*
X157988011Y-117559488D01*
X157862488Y-117487017D01*
X157862489Y-117487017D01*
X157851006Y-117483940D01*
X157722475Y-117449500D01*
X157577525Y-117449500D01*
X157448993Y-117483940D01*
X157437511Y-117487017D01*
X157311988Y-117559488D01*
X157311982Y-117559493D01*
X157209493Y-117661982D01*
X157209488Y-117661988D01*
X157137017Y-117787511D01*
X157137016Y-117787515D01*
X157099500Y-117927525D01*
X131348449Y-117927525D01*
X131279620Y-117792442D01*
X131154727Y-117620540D01*
X131154723Y-117620535D01*
X131004464Y-117470276D01*
X131004459Y-117470272D01*
X130832557Y-117345379D01*
X130643217Y-117248904D01*
X130441128Y-117183242D01*
X130250000Y-117152969D01*
X130250000Y-118095854D01*
X130183343Y-118057370D01*
X130062535Y-118025000D01*
X129937465Y-118025000D01*
X129816657Y-118057370D01*
X129750000Y-118095854D01*
X129750000Y-117152969D01*
X129558872Y-117183242D01*
X129558869Y-117183242D01*
X129356782Y-117248904D01*
X129167442Y-117345379D01*
X128995540Y-117470272D01*
X128995535Y-117470276D01*
X128845276Y-117620535D01*
X128845272Y-117620540D01*
X128720379Y-117792442D01*
X128623904Y-117981782D01*
X128558242Y-118183870D01*
X128558242Y-118183873D01*
X128547769Y-118250000D01*
X125381500Y-118250000D01*
X125381500Y-116427525D01*
X136449500Y-116427525D01*
X136449500Y-116572475D01*
X136481128Y-116690511D01*
X136487017Y-116712488D01*
X136559488Y-116838011D01*
X136559490Y-116838013D01*
X136559491Y-116838015D01*
X136661985Y-116940509D01*
X136661986Y-116940510D01*
X136661988Y-116940511D01*
X136787511Y-117012982D01*
X136787512Y-117012982D01*
X136787515Y-117012984D01*
X136927525Y-117050500D01*
X136927528Y-117050500D01*
X137072472Y-117050500D01*
X137072475Y-117050500D01*
X137212485Y-117012984D01*
X137338015Y-116940509D01*
X137412319Y-116866205D01*
X137473642Y-116832720D01*
X137543334Y-116837704D01*
X137587681Y-116866205D01*
X137661985Y-116940509D01*
X137661986Y-116940510D01*
X137661988Y-116940511D01*
X137787511Y-117012982D01*
X137787512Y-117012982D01*
X137787515Y-117012984D01*
X137927525Y-117050500D01*
X137927528Y-117050500D01*
X138072472Y-117050500D01*
X138072475Y-117050500D01*
X138212485Y-117012984D01*
X138338015Y-116940509D01*
X138440509Y-116838015D01*
X138512984Y-116712485D01*
X138550500Y-116572475D01*
X138550500Y-116427525D01*
X138512984Y-116287515D01*
X138449481Y-116177525D01*
X138949500Y-116177525D01*
X138949500Y-116322475D01*
X138981128Y-116440511D01*
X138987017Y-116462488D01*
X139059488Y-116588011D01*
X139059490Y-116588013D01*
X139059491Y-116588015D01*
X139161985Y-116690509D01*
X139161986Y-116690510D01*
X139161988Y-116690511D01*
X139287511Y-116762982D01*
X139287512Y-116762982D01*
X139287515Y-116762984D01*
X139427525Y-116800500D01*
X139427528Y-116800500D01*
X139572472Y-116800500D01*
X139572475Y-116800500D01*
X139712485Y-116762984D01*
X139838015Y-116690509D01*
X139940509Y-116588015D01*
X140012984Y-116462485D01*
X140050500Y-116322475D01*
X140050500Y-116177525D01*
X140012984Y-116037515D01*
X139983828Y-115987016D01*
X139940511Y-115911988D01*
X139940506Y-115911982D01*
X139838017Y-115809493D01*
X139838011Y-115809488D01*
X139712488Y-115737017D01*
X139712489Y-115737017D01*
X139701006Y-115733940D01*
X139572475Y-115699500D01*
X139427525Y-115699500D01*
X139298993Y-115733940D01*
X139287511Y-115737017D01*
X139161988Y-115809488D01*
X139161982Y-115809493D01*
X139059493Y-115911982D01*
X139059488Y-115911988D01*
X138987017Y-116037511D01*
X138987016Y-116037515D01*
X138949500Y-116177525D01*
X138449481Y-116177525D01*
X138440509Y-116161985D01*
X138338015Y-116059491D01*
X138338013Y-116059490D01*
X138338011Y-116059488D01*
X138212488Y-115987017D01*
X138212489Y-115987017D01*
X138201006Y-115983940D01*
X138072475Y-115949500D01*
X137927525Y-115949500D01*
X137798993Y-115983940D01*
X137787511Y-115987017D01*
X137661988Y-116059488D01*
X137661982Y-116059493D01*
X137587681Y-116133795D01*
X137526358Y-116167280D01*
X137456666Y-116162296D01*
X137412319Y-116133795D01*
X137338017Y-116059493D01*
X137338011Y-116059488D01*
X137212488Y-115987017D01*
X137212489Y-115987017D01*
X137201006Y-115983940D01*
X137072475Y-115949500D01*
X136927525Y-115949500D01*
X136798993Y-115983940D01*
X136787511Y-115987017D01*
X136661988Y-116059488D01*
X136661982Y-116059493D01*
X136559493Y-116161982D01*
X136559488Y-116161988D01*
X136487017Y-116287511D01*
X136487016Y-116287515D01*
X136449500Y-116427525D01*
X125381500Y-116427525D01*
X125381500Y-114427525D01*
X138949500Y-114427525D01*
X138949500Y-114572475D01*
X138986782Y-114711612D01*
X138987017Y-114712488D01*
X139059488Y-114838011D01*
X139059490Y-114838013D01*
X139059491Y-114838015D01*
X139161985Y-114940509D01*
X139161986Y-114940510D01*
X139161988Y-114940511D01*
X139287511Y-115012982D01*
X139287512Y-115012982D01*
X139287515Y-115012984D01*
X139427525Y-115050500D01*
X139427528Y-115050500D01*
X139572472Y-115050500D01*
X139572475Y-115050500D01*
X139712485Y-115012984D01*
X139838015Y-114940509D01*
X139940509Y-114838015D01*
X140012984Y-114712485D01*
X140050500Y-114572475D01*
X140050500Y-114427525D01*
X140012984Y-114287515D01*
X139969665Y-114212485D01*
X139940511Y-114161988D01*
X139940506Y-114161982D01*
X139838017Y-114059493D01*
X139838011Y-114059488D01*
X139712488Y-113987017D01*
X139712489Y-113987017D01*
X139701006Y-113983940D01*
X139572475Y-113949500D01*
X139427525Y-113949500D01*
X139298993Y-113983940D01*
X139287511Y-113987017D01*
X139161988Y-114059488D01*
X139161982Y-114059493D01*
X139059493Y-114161982D01*
X139059488Y-114161988D01*
X138987017Y-114287511D01*
X138987016Y-114287515D01*
X138949500Y-114427525D01*
X125381500Y-114427525D01*
X125381500Y-112927525D01*
X145449500Y-112927525D01*
X145449500Y-113072475D01*
X145487016Y-113212485D01*
X145487017Y-113212488D01*
X145559488Y-113338011D01*
X145559493Y-113338017D01*
X145633795Y-113412319D01*
X145667280Y-113473642D01*
X145662296Y-113543334D01*
X145633795Y-113587681D01*
X145559493Y-113661982D01*
X145559488Y-113661988D01*
X145487017Y-113787511D01*
X145487016Y-113787515D01*
X145449500Y-113927525D01*
X145449500Y-114072475D01*
X145487016Y-114212485D01*
X145487017Y-114212488D01*
X145559488Y-114338011D01*
X145559493Y-114338017D01*
X145633795Y-114412319D01*
X145667280Y-114473642D01*
X145662296Y-114543334D01*
X145633795Y-114587681D01*
X145559493Y-114661982D01*
X145559488Y-114661988D01*
X145487017Y-114787511D01*
X145487016Y-114787515D01*
X145449500Y-114927525D01*
X145449500Y-115072475D01*
X145480834Y-115189414D01*
X145487017Y-115212488D01*
X145559488Y-115338011D01*
X145559493Y-115338017D01*
X145633795Y-115412319D01*
X145667280Y-115473642D01*
X145662296Y-115543334D01*
X145633795Y-115587681D01*
X145559493Y-115661982D01*
X145559488Y-115661988D01*
X145487017Y-115787511D01*
X145487016Y-115787515D01*
X145449500Y-115927525D01*
X145449500Y-116072475D01*
X145477649Y-116177527D01*
X145487017Y-116212488D01*
X145559488Y-116338011D01*
X145559490Y-116338013D01*
X145559491Y-116338015D01*
X145661985Y-116440509D01*
X145661986Y-116440510D01*
X145661988Y-116440511D01*
X145787511Y-116512982D01*
X145787512Y-116512982D01*
X145787515Y-116512984D01*
X145927525Y-116550500D01*
X145927528Y-116550500D01*
X146072472Y-116550500D01*
X146072475Y-116550500D01*
X146212485Y-116512984D01*
X146338015Y-116440509D01*
X146440509Y-116338015D01*
X146512984Y-116212485D01*
X146550500Y-116072475D01*
X146550500Y-115927525D01*
X146512984Y-115787515D01*
X146483828Y-115737016D01*
X146440511Y-115661988D01*
X146440506Y-115661982D01*
X146366205Y-115587681D01*
X146332720Y-115526358D01*
X146337704Y-115456666D01*
X146366205Y-115412319D01*
X146398801Y-115379723D01*
X146440509Y-115338015D01*
X146512984Y-115212485D01*
X146550500Y-115072475D01*
X146550500Y-114927525D01*
X146512984Y-114787515D01*
X146504284Y-114772447D01*
X146440511Y-114661988D01*
X146440506Y-114661982D01*
X146366205Y-114587681D01*
X146332720Y-114526358D01*
X146337704Y-114456666D01*
X146366205Y-114412319D01*
X146440509Y-114338015D01*
X146512984Y-114212485D01*
X146543125Y-114100000D01*
X153782769Y-114100000D01*
X154676988Y-114100000D01*
X154644075Y-114157007D01*
X154610000Y-114284174D01*
X154610000Y-114415826D01*
X154644075Y-114542993D01*
X154676988Y-114600000D01*
X153782769Y-114600000D01*
X153793242Y-114666126D01*
X153793242Y-114666129D01*
X153858904Y-114868217D01*
X153955379Y-115057557D01*
X154080272Y-115229459D01*
X154080276Y-115229464D01*
X154230535Y-115379723D01*
X154230540Y-115379727D01*
X154402442Y-115504620D01*
X154591782Y-115601095D01*
X154793871Y-115666757D01*
X154860000Y-115677231D01*
X154860000Y-114783012D01*
X154917007Y-114815925D01*
X155044174Y-114850000D01*
X155175826Y-114850000D01*
X155302993Y-114815925D01*
X155360000Y-114783012D01*
X155360000Y-115677230D01*
X155426126Y-115666757D01*
X155426129Y-115666757D01*
X155628217Y-115601095D01*
X155817557Y-115504620D01*
X155989459Y-115379727D01*
X155989464Y-115379723D01*
X156139723Y-115229464D01*
X156139727Y-115229459D01*
X156264620Y-115057557D01*
X156361096Y-114868215D01*
X156393239Y-114769288D01*
X156432676Y-114711612D01*
X156497034Y-114684413D01*
X156565880Y-114696327D01*
X156617357Y-114743571D01*
X156629100Y-114769284D01*
X156630127Y-114772446D01*
X156637803Y-114787511D01*
X156708768Y-114926788D01*
X156810586Y-115066928D01*
X156933072Y-115189414D01*
X157073212Y-115291232D01*
X157227555Y-115369873D01*
X157392299Y-115423402D01*
X157563389Y-115450500D01*
X157563390Y-115450500D01*
X157736610Y-115450500D01*
X157736611Y-115450500D01*
X157907701Y-115423402D01*
X158072445Y-115369873D01*
X158226788Y-115291232D01*
X158366928Y-115189414D01*
X158489414Y-115066928D01*
X158591232Y-114926788D01*
X158669873Y-114772445D01*
X158723402Y-114607701D01*
X158750500Y-114436611D01*
X158750500Y-114263389D01*
X159089500Y-114263389D01*
X159089500Y-114436611D01*
X159092676Y-114456666D01*
X159111018Y-114572475D01*
X159116598Y-114607701D01*
X159170127Y-114772445D01*
X159248768Y-114926788D01*
X159350586Y-115066928D01*
X159473072Y-115189414D01*
X159613212Y-115291232D01*
X159767555Y-115369873D01*
X159932299Y-115423402D01*
X160103389Y-115450500D01*
X160103390Y-115450500D01*
X160276610Y-115450500D01*
X160276611Y-115450500D01*
X160447701Y-115423402D01*
X160612445Y-115369873D01*
X160766788Y-115291232D01*
X160906928Y-115189414D01*
X161029414Y-115066928D01*
X161131232Y-114926788D01*
X161209873Y-114772445D01*
X161263402Y-114607701D01*
X161290500Y-114436611D01*
X161290500Y-114263389D01*
X161629500Y-114263389D01*
X161629500Y-114436611D01*
X161632676Y-114456666D01*
X161651018Y-114572475D01*
X161656598Y-114607701D01*
X161710127Y-114772445D01*
X161788768Y-114926788D01*
X161890586Y-115066928D01*
X162013072Y-115189414D01*
X162153212Y-115291232D01*
X162307555Y-115369873D01*
X162472299Y-115423402D01*
X162643389Y-115450500D01*
X162643390Y-115450500D01*
X162816610Y-115450500D01*
X162816611Y-115450500D01*
X162987701Y-115423402D01*
X163152445Y-115369873D01*
X163306788Y-115291232D01*
X163446928Y-115189414D01*
X163569414Y-115066928D01*
X163671232Y-114926788D01*
X163749873Y-114772445D01*
X163803402Y-114607701D01*
X163830500Y-114436611D01*
X163830500Y-114263389D01*
X164169500Y-114263389D01*
X164169500Y-114436611D01*
X164172676Y-114456666D01*
X164191018Y-114572475D01*
X164196598Y-114607701D01*
X164250127Y-114772445D01*
X164328768Y-114926788D01*
X164430586Y-115066928D01*
X164553072Y-115189414D01*
X164693212Y-115291232D01*
X164847555Y-115369873D01*
X165012299Y-115423402D01*
X165183389Y-115450500D01*
X165183390Y-115450500D01*
X165356610Y-115450500D01*
X165356611Y-115450500D01*
X165527701Y-115423402D01*
X165692445Y-115369873D01*
X165846788Y-115291232D01*
X165986928Y-115189414D01*
X166109414Y-115066928D01*
X166211232Y-114926788D01*
X166289873Y-114772445D01*
X166343402Y-114607701D01*
X166370500Y-114436611D01*
X166370500Y-114263389D01*
X166709500Y-114263389D01*
X166709500Y-114436611D01*
X166712676Y-114456666D01*
X166731018Y-114572475D01*
X166736598Y-114607701D01*
X166790127Y-114772445D01*
X166868768Y-114926788D01*
X166970586Y-115066928D01*
X167093072Y-115189414D01*
X167233212Y-115291232D01*
X167387555Y-115369873D01*
X167552299Y-115423402D01*
X167723389Y-115450500D01*
X167723390Y-115450500D01*
X167896610Y-115450500D01*
X167896611Y-115450500D01*
X168067701Y-115423402D01*
X168232445Y-115369873D01*
X168386788Y-115291232D01*
X168526928Y-115189414D01*
X168649414Y-115066928D01*
X168751232Y-114926788D01*
X168829873Y-114772445D01*
X168830896Y-114769294D01*
X168831610Y-114768250D01*
X168831734Y-114767952D01*
X168831796Y-114767977D01*
X168870327Y-114711618D01*
X168934683Y-114684415D01*
X169003530Y-114696323D01*
X169055011Y-114743562D01*
X169066760Y-114769287D01*
X169098904Y-114868217D01*
X169195379Y-115057557D01*
X169320272Y-115229459D01*
X169320276Y-115229464D01*
X169470535Y-115379723D01*
X169470540Y-115379727D01*
X169642442Y-115504620D01*
X169831782Y-115601095D01*
X170033871Y-115666757D01*
X170100000Y-115677231D01*
X170100000Y-114783012D01*
X170157007Y-114815925D01*
X170284174Y-114850000D01*
X170415826Y-114850000D01*
X170542993Y-114815925D01*
X170600000Y-114783012D01*
X170600000Y-115677230D01*
X170666126Y-115666757D01*
X170666129Y-115666757D01*
X170868217Y-115601095D01*
X171057557Y-115504620D01*
X171229459Y-115379727D01*
X171229464Y-115379723D01*
X171379723Y-115229464D01*
X171379727Y-115229459D01*
X171504620Y-115057557D01*
X171601096Y-114868215D01*
X171633239Y-114769288D01*
X171672676Y-114711612D01*
X171737034Y-114684413D01*
X171805880Y-114696327D01*
X171857357Y-114743571D01*
X171869100Y-114769284D01*
X171870127Y-114772446D01*
X171877803Y-114787511D01*
X171948768Y-114926788D01*
X172050586Y-115066928D01*
X172173072Y-115189414D01*
X172313212Y-115291232D01*
X172467555Y-115369873D01*
X172632299Y-115423402D01*
X172803389Y-115450500D01*
X172803390Y-115450500D01*
X172976610Y-115450500D01*
X172976611Y-115450500D01*
X173147701Y-115423402D01*
X173312445Y-115369873D01*
X173466788Y-115291232D01*
X173606928Y-115189414D01*
X173729414Y-115066928D01*
X173831232Y-114926788D01*
X173909873Y-114772445D01*
X173963402Y-114607701D01*
X173990500Y-114436611D01*
X173990500Y-114263389D01*
X173963402Y-114092299D01*
X173909873Y-113927555D01*
X173831232Y-113773212D01*
X173729414Y-113633072D01*
X173606928Y-113510586D01*
X173466788Y-113408768D01*
X173312445Y-113330127D01*
X173147701Y-113276598D01*
X173147699Y-113276597D01*
X173147698Y-113276597D01*
X173016271Y-113255781D01*
X172976611Y-113249500D01*
X172803389Y-113249500D01*
X172763728Y-113255781D01*
X172632302Y-113276597D01*
X172467552Y-113330128D01*
X172313211Y-113408768D01*
X172308324Y-113412319D01*
X172173072Y-113510586D01*
X172173070Y-113510588D01*
X172173069Y-113510588D01*
X172050588Y-113633069D01*
X172050588Y-113633070D01*
X172050586Y-113633072D01*
X172006859Y-113693256D01*
X171948768Y-113773211D01*
X171870128Y-113927550D01*
X171869487Y-113929522D01*
X171869102Y-113930712D01*
X171869099Y-113930720D01*
X171868381Y-113931769D01*
X171868266Y-113932048D01*
X171868207Y-113932023D01*
X171829657Y-113988393D01*
X171765297Y-114015587D01*
X171696451Y-114003668D01*
X171644979Y-113956420D01*
X171633239Y-113930711D01*
X171601096Y-113831784D01*
X171504620Y-113642442D01*
X171379727Y-113470540D01*
X171379723Y-113470535D01*
X171229464Y-113320276D01*
X171229459Y-113320272D01*
X171057557Y-113195379D01*
X170868215Y-113098903D01*
X170666124Y-113033241D01*
X170600000Y-113022768D01*
X170600000Y-113916988D01*
X170542993Y-113884075D01*
X170415826Y-113850000D01*
X170284174Y-113850000D01*
X170157007Y-113884075D01*
X170100000Y-113916988D01*
X170100000Y-113022768D01*
X170099999Y-113022768D01*
X170033875Y-113033241D01*
X169831784Y-113098903D01*
X169642442Y-113195379D01*
X169470540Y-113320272D01*
X169470535Y-113320276D01*
X169320276Y-113470535D01*
X169320272Y-113470540D01*
X169195379Y-113642442D01*
X169098904Y-113831783D01*
X169066760Y-113930712D01*
X169027322Y-113988388D01*
X168962964Y-114015586D01*
X168894117Y-114003671D01*
X168842642Y-113956427D01*
X168830898Y-113930711D01*
X168829873Y-113927555D01*
X168751232Y-113773212D01*
X168649414Y-113633072D01*
X168526928Y-113510586D01*
X168386788Y-113408768D01*
X168232445Y-113330127D01*
X168067701Y-113276598D01*
X168067699Y-113276597D01*
X168067698Y-113276597D01*
X167936271Y-113255781D01*
X167896611Y-113249500D01*
X167723389Y-113249500D01*
X167683728Y-113255781D01*
X167552302Y-113276597D01*
X167387552Y-113330128D01*
X167233211Y-113408768D01*
X167228324Y-113412319D01*
X167093072Y-113510586D01*
X167093070Y-113510588D01*
X167093069Y-113510588D01*
X166970588Y-113633069D01*
X166970588Y-113633070D01*
X166970586Y-113633072D01*
X166926859Y-113693256D01*
X166868768Y-113773211D01*
X166790128Y-113927552D01*
X166736597Y-114092302D01*
X166735378Y-114100000D01*
X166709500Y-114263389D01*
X166370500Y-114263389D01*
X166343402Y-114092299D01*
X166289873Y-113927555D01*
X166211232Y-113773212D01*
X166109414Y-113633072D01*
X165986928Y-113510586D01*
X165846788Y-113408768D01*
X165692445Y-113330127D01*
X165527701Y-113276598D01*
X165527699Y-113276597D01*
X165527698Y-113276597D01*
X165396271Y-113255781D01*
X165356611Y-113249500D01*
X165183389Y-113249500D01*
X165143728Y-113255781D01*
X165012302Y-113276597D01*
X164847552Y-113330128D01*
X164693211Y-113408768D01*
X164688324Y-113412319D01*
X164553072Y-113510586D01*
X164553070Y-113510588D01*
X164553069Y-113510588D01*
X164430588Y-113633069D01*
X164430588Y-113633070D01*
X164430586Y-113633072D01*
X164386859Y-113693256D01*
X164328768Y-113773211D01*
X164250128Y-113927552D01*
X164196597Y-114092302D01*
X164195378Y-114100000D01*
X164169500Y-114263389D01*
X163830500Y-114263389D01*
X163803402Y-114092299D01*
X163749873Y-113927555D01*
X163671232Y-113773212D01*
X163569414Y-113633072D01*
X163446928Y-113510586D01*
X163306788Y-113408768D01*
X163152445Y-113330127D01*
X162987701Y-113276598D01*
X162987699Y-113276597D01*
X162987698Y-113276597D01*
X162856271Y-113255781D01*
X162816611Y-113249500D01*
X162643389Y-113249500D01*
X162603728Y-113255781D01*
X162472302Y-113276597D01*
X162307552Y-113330128D01*
X162153211Y-113408768D01*
X162148324Y-113412319D01*
X162013072Y-113510586D01*
X162013070Y-113510588D01*
X162013069Y-113510588D01*
X161890588Y-113633069D01*
X161890588Y-113633070D01*
X161890586Y-113633072D01*
X161846859Y-113693256D01*
X161788768Y-113773211D01*
X161710128Y-113927552D01*
X161656597Y-114092302D01*
X161655378Y-114100000D01*
X161629500Y-114263389D01*
X161290500Y-114263389D01*
X161263402Y-114092299D01*
X161209873Y-113927555D01*
X161131232Y-113773212D01*
X161029414Y-113633072D01*
X160906928Y-113510586D01*
X160766788Y-113408768D01*
X160612445Y-113330127D01*
X160447701Y-113276598D01*
X160447699Y-113276597D01*
X160447698Y-113276597D01*
X160316271Y-113255781D01*
X160276611Y-113249500D01*
X160103389Y-113249500D01*
X160063728Y-113255781D01*
X159932302Y-113276597D01*
X159767552Y-113330128D01*
X159613211Y-113408768D01*
X159608324Y-113412319D01*
X159473072Y-113510586D01*
X159473070Y-113510588D01*
X159473069Y-113510588D01*
X159350588Y-113633069D01*
X159350588Y-113633070D01*
X159350586Y-113633072D01*
X159306859Y-113693256D01*
X159248768Y-113773211D01*
X159170128Y-113927552D01*
X159116597Y-114092302D01*
X159115378Y-114100000D01*
X159089500Y-114263389D01*
X158750500Y-114263389D01*
X158723402Y-114092299D01*
X158669873Y-113927555D01*
X158591232Y-113773212D01*
X158489414Y-113633072D01*
X158366928Y-113510586D01*
X158226788Y-113408768D01*
X158072445Y-113330127D01*
X157907701Y-113276598D01*
X157907699Y-113276597D01*
X157907698Y-113276597D01*
X157776271Y-113255781D01*
X157736611Y-113249500D01*
X157563389Y-113249500D01*
X157523728Y-113255781D01*
X157392302Y-113276597D01*
X157227552Y-113330128D01*
X157073211Y-113408768D01*
X157068324Y-113412319D01*
X156933072Y-113510586D01*
X156933070Y-113510588D01*
X156933069Y-113510588D01*
X156810588Y-113633069D01*
X156810588Y-113633070D01*
X156810586Y-113633072D01*
X156766859Y-113693256D01*
X156708768Y-113773211D01*
X156630128Y-113927550D01*
X156629487Y-113929522D01*
X156629102Y-113930712D01*
X156629099Y-113930720D01*
X156628381Y-113931769D01*
X156628266Y-113932048D01*
X156628207Y-113932023D01*
X156589657Y-113988393D01*
X156525297Y-114015587D01*
X156456451Y-114003668D01*
X156404979Y-113956420D01*
X156393239Y-113930711D01*
X156361096Y-113831784D01*
X156264620Y-113642442D01*
X156139727Y-113470540D01*
X156139723Y-113470535D01*
X155989464Y-113320276D01*
X155989459Y-113320272D01*
X155817557Y-113195379D01*
X155628215Y-113098903D01*
X155426124Y-113033241D01*
X155360000Y-113022768D01*
X155360000Y-113916988D01*
X155302993Y-113884075D01*
X155175826Y-113850000D01*
X155044174Y-113850000D01*
X154917007Y-113884075D01*
X154860000Y-113916988D01*
X154860000Y-113022768D01*
X154859999Y-113022768D01*
X154793875Y-113033241D01*
X154591784Y-113098903D01*
X154402442Y-113195379D01*
X154230540Y-113320272D01*
X154230535Y-113320276D01*
X154080276Y-113470535D01*
X154080272Y-113470540D01*
X153955379Y-113642442D01*
X153858904Y-113831782D01*
X153793242Y-114033870D01*
X153793242Y-114033873D01*
X153782769Y-114100000D01*
X146543125Y-114100000D01*
X146550500Y-114072475D01*
X146550500Y-113927525D01*
X146512984Y-113787515D01*
X146440509Y-113661985D01*
X146366205Y-113587681D01*
X146332720Y-113526358D01*
X146337704Y-113456666D01*
X146366205Y-113412319D01*
X146369756Y-113408768D01*
X146440509Y-113338015D01*
X146512984Y-113212485D01*
X146550500Y-113072475D01*
X146550500Y-112927525D01*
X146512984Y-112787515D01*
X146440509Y-112661985D01*
X146338015Y-112559491D01*
X146338013Y-112559490D01*
X146338011Y-112559488D01*
X146212488Y-112487017D01*
X146212489Y-112487017D01*
X146201006Y-112483940D01*
X146072475Y-112449500D01*
X145927525Y-112449500D01*
X145798993Y-112483940D01*
X145787511Y-112487017D01*
X145661988Y-112559488D01*
X145661982Y-112559493D01*
X145559493Y-112661982D01*
X145559488Y-112661988D01*
X145487017Y-112787511D01*
X145487016Y-112787515D01*
X145449500Y-112927525D01*
X125381500Y-112927525D01*
X125381500Y-110852135D01*
X128774500Y-110852135D01*
X128774500Y-112147870D01*
X128774501Y-112147876D01*
X128780908Y-112207483D01*
X128831202Y-112342328D01*
X128831206Y-112342335D01*
X128917452Y-112457544D01*
X128917455Y-112457547D01*
X129032664Y-112543793D01*
X129032671Y-112543797D01*
X129167517Y-112594091D01*
X129167516Y-112594091D01*
X129174444Y-112594835D01*
X129227127Y-112600500D01*
X130772872Y-112600499D01*
X130832483Y-112594091D01*
X130967331Y-112543796D01*
X131082546Y-112457546D01*
X131168796Y-112342331D01*
X131219091Y-112207483D01*
X131225500Y-112147873D01*
X131225499Y-110852128D01*
X131219091Y-110792517D01*
X131168796Y-110657669D01*
X131168795Y-110657668D01*
X131168793Y-110657664D01*
X131082547Y-110542456D01*
X131082548Y-110542456D01*
X131082546Y-110542454D01*
X130967331Y-110456204D01*
X130967328Y-110456202D01*
X130890441Y-110427525D01*
X131699500Y-110427525D01*
X131699500Y-110572475D01*
X131737016Y-110712485D01*
X131737017Y-110712488D01*
X131809488Y-110838011D01*
X131809490Y-110838013D01*
X131809491Y-110838015D01*
X131911985Y-110940509D01*
X131911986Y-110940510D01*
X131911988Y-110940511D01*
X132037511Y-111012982D01*
X132037512Y-111012982D01*
X132037515Y-111012984D01*
X132177525Y-111050500D01*
X132177528Y-111050500D01*
X132322472Y-111050500D01*
X132322475Y-111050500D01*
X132462485Y-111012984D01*
X132588015Y-110940509D01*
X132690509Y-110838015D01*
X132762984Y-110712485D01*
X132800500Y-110572475D01*
X132800500Y-110427525D01*
X132762984Y-110287515D01*
X132737843Y-110243970D01*
X132690511Y-110161988D01*
X132690506Y-110161982D01*
X132588017Y-110059493D01*
X132588015Y-110059491D01*
X132462485Y-109987016D01*
X132329137Y-109951285D01*
X133454741Y-109951285D01*
X133454741Y-110096235D01*
X133472359Y-110161985D01*
X133492258Y-110236248D01*
X133564729Y-110361771D01*
X133564731Y-110361773D01*
X133564732Y-110361775D01*
X133667226Y-110464269D01*
X133667227Y-110464270D01*
X133667229Y-110464271D01*
X133792752Y-110536742D01*
X133792753Y-110536742D01*
X133792756Y-110536744D01*
X133932766Y-110574260D01*
X133932769Y-110574260D01*
X134077713Y-110574260D01*
X134077716Y-110574260D01*
X134217726Y-110536744D01*
X134343256Y-110464269D01*
X134380000Y-110427525D01*
X140929500Y-110427525D01*
X140929500Y-110572475D01*
X140967016Y-110712485D01*
X140967017Y-110712488D01*
X141039488Y-110838011D01*
X141039490Y-110838013D01*
X141039491Y-110838015D01*
X141141985Y-110940509D01*
X141141986Y-110940510D01*
X141141988Y-110940511D01*
X141267511Y-111012982D01*
X141267512Y-111012982D01*
X141267515Y-111012984D01*
X141407525Y-111050500D01*
X141407528Y-111050500D01*
X141552472Y-111050500D01*
X141552475Y-111050500D01*
X141692485Y-111012984D01*
X141818015Y-110940509D01*
X141920509Y-110838015D01*
X141992984Y-110712485D01*
X142030500Y-110572475D01*
X142030500Y-110427525D01*
X141992984Y-110287515D01*
X141967843Y-110243970D01*
X141920511Y-110161988D01*
X141920506Y-110161982D01*
X141818017Y-110059493D01*
X141818011Y-110059488D01*
X141692488Y-109987017D01*
X141692489Y-109987017D01*
X141681006Y-109983940D01*
X141552475Y-109949500D01*
X141407525Y-109949500D01*
X141278993Y-109983940D01*
X141267511Y-109987017D01*
X141141988Y-110059488D01*
X141141982Y-110059493D01*
X141039493Y-110161982D01*
X141039488Y-110161988D01*
X140967017Y-110287511D01*
X140967016Y-110287515D01*
X140929500Y-110427525D01*
X134380000Y-110427525D01*
X134445750Y-110361775D01*
X134518225Y-110236245D01*
X134555741Y-110096235D01*
X134555741Y-109951285D01*
X134518225Y-109811275D01*
X134449446Y-109692146D01*
X144540200Y-109692146D01*
X144540200Y-109839853D01*
X144569012Y-109984701D01*
X144569014Y-109984709D01*
X144625534Y-110121160D01*
X144625539Y-110121170D01*
X144707591Y-110243969D01*
X144707594Y-110243973D01*
X144812026Y-110348405D01*
X144812030Y-110348408D01*
X144934829Y-110430460D01*
X144934833Y-110430462D01*
X144934836Y-110430464D01*
X145071291Y-110486986D01*
X145216146Y-110515799D01*
X145216150Y-110515800D01*
X145216151Y-110515800D01*
X145363850Y-110515800D01*
X145363851Y-110515799D01*
X145508709Y-110486986D01*
X145645164Y-110430464D01*
X145767970Y-110348408D01*
X145872408Y-110243970D01*
X145954464Y-110121164D01*
X146010986Y-109984709D01*
X146039800Y-109839849D01*
X146039800Y-109692151D01*
X146010986Y-109547291D01*
X145954464Y-109410836D01*
X145954462Y-109410833D01*
X145954460Y-109410829D01*
X145872408Y-109288030D01*
X145872405Y-109288026D01*
X145767973Y-109183594D01*
X145767969Y-109183591D01*
X145645170Y-109101539D01*
X145645160Y-109101534D01*
X145508709Y-109045014D01*
X145508701Y-109045012D01*
X145363853Y-109016200D01*
X145363849Y-109016200D01*
X145216151Y-109016200D01*
X145216146Y-109016200D01*
X145071298Y-109045012D01*
X145071290Y-109045014D01*
X144934839Y-109101534D01*
X144934829Y-109101539D01*
X144812030Y-109183591D01*
X144812026Y-109183594D01*
X144707594Y-109288026D01*
X144707591Y-109288030D01*
X144625539Y-109410829D01*
X144625534Y-109410839D01*
X144569014Y-109547290D01*
X144569012Y-109547298D01*
X144540200Y-109692146D01*
X134449446Y-109692146D01*
X134445750Y-109685745D01*
X134343256Y-109583251D01*
X134343254Y-109583250D01*
X134343252Y-109583248D01*
X134217729Y-109510777D01*
X134217730Y-109510777D01*
X134176763Y-109499800D01*
X134077716Y-109473260D01*
X133932766Y-109473260D01*
X133833719Y-109499800D01*
X133792752Y-109510777D01*
X133667229Y-109583248D01*
X133667223Y-109583253D01*
X133564734Y-109685742D01*
X133564729Y-109685748D01*
X133492258Y-109811271D01*
X133492257Y-109811275D01*
X133454741Y-109951285D01*
X132329137Y-109951285D01*
X132322475Y-109949500D01*
X132177525Y-109949500D01*
X132048993Y-109983940D01*
X132037511Y-109987017D01*
X131911988Y-110059488D01*
X131911982Y-110059493D01*
X131809493Y-110161982D01*
X131809488Y-110161988D01*
X131737017Y-110287511D01*
X131737016Y-110287515D01*
X131699500Y-110427525D01*
X130890441Y-110427525D01*
X130832482Y-110405908D01*
X130832483Y-110405908D01*
X130772883Y-110399501D01*
X130772881Y-110399500D01*
X130772873Y-110399500D01*
X130772864Y-110399500D01*
X129227129Y-110399500D01*
X129227123Y-110399501D01*
X129167516Y-110405908D01*
X129032671Y-110456202D01*
X129032664Y-110456206D01*
X128917455Y-110542452D01*
X128917452Y-110542455D01*
X128831206Y-110657664D01*
X128831202Y-110657671D01*
X128780908Y-110792517D01*
X128776017Y-110838015D01*
X128774501Y-110852123D01*
X128774500Y-110852135D01*
X125381500Y-110852135D01*
X125381500Y-106250000D01*
X128547769Y-106250000D01*
X129595854Y-106250000D01*
X129557370Y-106316657D01*
X129525000Y-106437465D01*
X129525000Y-106562535D01*
X129557370Y-106683343D01*
X129595854Y-106750000D01*
X128547769Y-106750000D01*
X128558242Y-106816126D01*
X128558242Y-106816129D01*
X128623904Y-107018217D01*
X128720379Y-107207557D01*
X128845272Y-107379459D01*
X128845276Y-107379464D01*
X128995535Y-107529723D01*
X128995540Y-107529727D01*
X129167442Y-107654620D01*
X129356778Y-107751093D01*
X129405022Y-107766768D01*
X129462698Y-107806205D01*
X129489897Y-107870563D01*
X129477983Y-107939410D01*
X129430740Y-107990886D01*
X129423000Y-107995185D01*
X129298211Y-108058768D01*
X129256367Y-108089170D01*
X129158072Y-108160586D01*
X129158070Y-108160588D01*
X129158069Y-108160588D01*
X129035588Y-108283069D01*
X129035588Y-108283070D01*
X129035586Y-108283072D01*
X129011368Y-108316405D01*
X128933768Y-108423211D01*
X128855128Y-108577552D01*
X128801597Y-108742302D01*
X128788681Y-108823853D01*
X128774500Y-108913389D01*
X128774500Y-109086611D01*
X128782677Y-109138239D01*
X128796889Y-109227973D01*
X128801598Y-109257701D01*
X128855127Y-109422445D01*
X128933768Y-109576788D01*
X129035586Y-109716928D01*
X129158072Y-109839414D01*
X129298212Y-109941232D01*
X129452555Y-110019873D01*
X129617299Y-110073402D01*
X129788389Y-110100500D01*
X129788390Y-110100500D01*
X130211610Y-110100500D01*
X130211611Y-110100500D01*
X130382701Y-110073402D01*
X130547445Y-110019873D01*
X130701788Y-109941232D01*
X130841928Y-109839414D01*
X130964414Y-109716928D01*
X131066232Y-109576788D01*
X131144873Y-109422445D01*
X131198402Y-109257701D01*
X131225500Y-109086611D01*
X131225500Y-108913389D01*
X131198402Y-108742299D01*
X131176907Y-108676146D01*
X139460200Y-108676146D01*
X139460200Y-108823853D01*
X139489012Y-108968701D01*
X139489014Y-108968709D01*
X139545534Y-109105160D01*
X139545539Y-109105170D01*
X139627591Y-109227969D01*
X139627594Y-109227973D01*
X139732026Y-109332405D01*
X139732030Y-109332408D01*
X139854829Y-109414460D01*
X139854833Y-109414462D01*
X139854836Y-109414464D01*
X139991291Y-109470986D01*
X140136146Y-109499799D01*
X140136150Y-109499800D01*
X140136151Y-109499800D01*
X140283850Y-109499800D01*
X140283851Y-109499799D01*
X140428709Y-109470986D01*
X140565164Y-109414464D01*
X140687970Y-109332408D01*
X140792408Y-109227970D01*
X140874464Y-109105164D01*
X140930986Y-108968709D01*
X140959800Y-108823849D01*
X140959800Y-108676151D01*
X140930986Y-108531291D01*
X140874464Y-108394836D01*
X140874462Y-108394833D01*
X140874460Y-108394829D01*
X140792408Y-108272030D01*
X140792405Y-108272026D01*
X140687973Y-108167594D01*
X140687969Y-108167591D01*
X140565170Y-108085539D01*
X140565160Y-108085534D01*
X140428709Y-108029014D01*
X140428701Y-108029012D01*
X140283853Y-108000200D01*
X140283849Y-108000200D01*
X140136151Y-108000200D01*
X140136146Y-108000200D01*
X139991298Y-108029012D01*
X139991290Y-108029014D01*
X139854839Y-108085534D01*
X139854829Y-108085539D01*
X139732030Y-108167591D01*
X139732026Y-108167594D01*
X139627594Y-108272026D01*
X139627591Y-108272030D01*
X139545539Y-108394829D01*
X139545534Y-108394839D01*
X139489014Y-108531290D01*
X139489012Y-108531298D01*
X139460200Y-108676146D01*
X131176907Y-108676146D01*
X131144873Y-108577555D01*
X131066232Y-108423212D01*
X130964414Y-108283072D01*
X130841928Y-108160586D01*
X130701788Y-108058768D01*
X130643388Y-108029012D01*
X130576999Y-107995185D01*
X130526203Y-107947210D01*
X130509408Y-107879389D01*
X130531945Y-107813255D01*
X130586660Y-107769803D01*
X130594978Y-107766768D01*
X130643219Y-107751094D01*
X130821712Y-107660146D01*
X144540200Y-107660146D01*
X144540200Y-107807853D01*
X144569012Y-107952701D01*
X144569014Y-107952709D01*
X144625534Y-108089160D01*
X144625539Y-108089170D01*
X144707591Y-108211969D01*
X144707594Y-108211973D01*
X144812026Y-108316405D01*
X144812030Y-108316408D01*
X144934829Y-108398460D01*
X144934833Y-108398462D01*
X144934836Y-108398464D01*
X145071291Y-108454986D01*
X145216146Y-108483799D01*
X145216150Y-108483800D01*
X145216151Y-108483800D01*
X145363850Y-108483800D01*
X145363851Y-108483799D01*
X145508709Y-108454986D01*
X145645164Y-108398464D01*
X145767970Y-108316408D01*
X145872408Y-108211970D01*
X145954464Y-108089164D01*
X146010986Y-107952709D01*
X146039800Y-107807849D01*
X146039800Y-107660151D01*
X146010986Y-107515291D01*
X145954464Y-107378836D01*
X145954462Y-107378833D01*
X145954460Y-107378829D01*
X145872408Y-107256030D01*
X145872405Y-107256026D01*
X145767973Y-107151594D01*
X145767969Y-107151591D01*
X145645170Y-107069539D01*
X145645160Y-107069534D01*
X145508709Y-107013014D01*
X145508701Y-107013012D01*
X145363853Y-106984200D01*
X145363849Y-106984200D01*
X145216151Y-106984200D01*
X145216146Y-106984200D01*
X145071298Y-107013012D01*
X145071290Y-107013014D01*
X144934839Y-107069534D01*
X144934829Y-107069539D01*
X144812030Y-107151591D01*
X144812026Y-107151594D01*
X144707594Y-107256026D01*
X144707591Y-107256030D01*
X144625539Y-107378829D01*
X144625534Y-107378839D01*
X144569014Y-107515290D01*
X144569012Y-107515298D01*
X144540200Y-107660146D01*
X130821712Y-107660146D01*
X130832557Y-107654620D01*
X130971408Y-107553741D01*
X131004459Y-107529727D01*
X131004464Y-107529723D01*
X131154723Y-107379464D01*
X131154727Y-107379459D01*
X131279620Y-107207557D01*
X131376095Y-107018217D01*
X131441757Y-106816129D01*
X131441757Y-106816126D01*
X131452231Y-106750000D01*
X130404146Y-106750000D01*
X130442630Y-106683343D01*
X130453336Y-106643389D01*
X171789500Y-106643389D01*
X171789500Y-106816611D01*
X171816598Y-106987701D01*
X171870127Y-107152445D01*
X171948768Y-107306788D01*
X172050586Y-107446928D01*
X172173072Y-107569414D01*
X172313212Y-107671232D01*
X172467555Y-107749873D01*
X172632299Y-107803402D01*
X172803389Y-107830500D01*
X172803390Y-107830500D01*
X172976610Y-107830500D01*
X172976611Y-107830500D01*
X173147701Y-107803402D01*
X173312445Y-107749873D01*
X173466788Y-107671232D01*
X173606928Y-107569414D01*
X173729414Y-107446928D01*
X173831232Y-107306788D01*
X173909873Y-107152445D01*
X173963402Y-106987701D01*
X173990500Y-106816611D01*
X173990500Y-106643389D01*
X173963402Y-106472299D01*
X173909873Y-106307555D01*
X173831232Y-106153212D01*
X173729414Y-106013072D01*
X173606928Y-105890586D01*
X173466788Y-105788768D01*
X173312445Y-105710127D01*
X173147701Y-105656598D01*
X173147699Y-105656597D01*
X173147698Y-105656597D01*
X173016271Y-105635781D01*
X172976611Y-105629500D01*
X172803389Y-105629500D01*
X172763728Y-105635781D01*
X172632302Y-105656597D01*
X172467552Y-105710128D01*
X172313211Y-105788768D01*
X172266818Y-105822475D01*
X172173072Y-105890586D01*
X172173070Y-105890588D01*
X172173069Y-105890588D01*
X172050588Y-106013069D01*
X172050588Y-106013070D01*
X172050586Y-106013072D01*
X172041920Y-106025000D01*
X171948768Y-106153211D01*
X171870128Y-106307552D01*
X171816597Y-106472302D01*
X171810154Y-106512982D01*
X171789500Y-106643389D01*
X130453336Y-106643389D01*
X130475000Y-106562535D01*
X130475000Y-106437465D01*
X130442630Y-106316657D01*
X130404146Y-106250000D01*
X131452231Y-106250000D01*
X131441757Y-106183873D01*
X131441757Y-106183870D01*
X131376095Y-105981782D01*
X131279622Y-105792445D01*
X131243178Y-105742284D01*
X131243177Y-105742282D01*
X131196129Y-105677525D01*
X144199500Y-105677525D01*
X144199500Y-105822475D01*
X144227649Y-105927527D01*
X144237017Y-105962488D01*
X144309488Y-106088011D01*
X144309490Y-106088013D01*
X144309491Y-106088015D01*
X144411985Y-106190509D01*
X144411986Y-106190510D01*
X144411988Y-106190511D01*
X144537511Y-106262982D01*
X144537512Y-106262982D01*
X144537515Y-106262984D01*
X144677525Y-106300500D01*
X144677528Y-106300500D01*
X144822472Y-106300500D01*
X144822475Y-106300500D01*
X144962485Y-106262984D01*
X145088015Y-106190509D01*
X145162319Y-106116205D01*
X145223642Y-106082720D01*
X145293334Y-106087704D01*
X145337681Y-106116205D01*
X145411985Y-106190509D01*
X145411986Y-106190510D01*
X145411988Y-106190511D01*
X145537511Y-106262982D01*
X145537512Y-106262982D01*
X145537515Y-106262984D01*
X145677525Y-106300500D01*
X145677528Y-106300500D01*
X145822472Y-106300500D01*
X145822475Y-106300500D01*
X145962485Y-106262984D01*
X146088015Y-106190509D01*
X146162319Y-106116205D01*
X146223642Y-106082720D01*
X146293334Y-106087704D01*
X146337681Y-106116205D01*
X146411985Y-106190509D01*
X146411986Y-106190510D01*
X146411988Y-106190511D01*
X146537511Y-106262982D01*
X146537512Y-106262982D01*
X146537515Y-106262984D01*
X146677525Y-106300500D01*
X146677528Y-106300500D01*
X146822472Y-106300500D01*
X146822475Y-106300500D01*
X146962485Y-106262984D01*
X147088015Y-106190509D01*
X147190509Y-106088015D01*
X147262984Y-105962485D01*
X147272352Y-105927525D01*
X148199500Y-105927525D01*
X148199500Y-106072475D01*
X148231128Y-106190511D01*
X148237017Y-106212488D01*
X148309488Y-106338011D01*
X148309490Y-106338013D01*
X148309491Y-106338015D01*
X148411985Y-106440509D01*
X148411986Y-106440510D01*
X148411988Y-106440511D01*
X148537511Y-106512982D01*
X148537512Y-106512982D01*
X148537515Y-106512984D01*
X148677525Y-106550500D01*
X148677528Y-106550500D01*
X148822472Y-106550500D01*
X148822475Y-106550500D01*
X148962485Y-106512984D01*
X149088015Y-106440509D01*
X149190509Y-106338015D01*
X149262984Y-106212485D01*
X149300500Y-106072475D01*
X149300500Y-105927525D01*
X149262984Y-105787515D01*
X149218304Y-105710128D01*
X149190511Y-105661988D01*
X149190506Y-105661982D01*
X149088017Y-105559493D01*
X149088011Y-105559488D01*
X148962488Y-105487017D01*
X148962489Y-105487017D01*
X148951006Y-105483940D01*
X148822475Y-105449500D01*
X148677525Y-105449500D01*
X148548993Y-105483940D01*
X148537511Y-105487017D01*
X148411988Y-105559488D01*
X148411982Y-105559493D01*
X148309493Y-105661982D01*
X148309488Y-105661988D01*
X148237017Y-105787511D01*
X148237016Y-105787515D01*
X148199500Y-105927525D01*
X147272352Y-105927525D01*
X147300500Y-105822475D01*
X147300500Y-105677525D01*
X147262984Y-105537515D01*
X147233828Y-105487016D01*
X147190511Y-105411988D01*
X147190506Y-105411982D01*
X147088017Y-105309493D01*
X147088011Y-105309488D01*
X146962488Y-105237017D01*
X146962489Y-105237017D01*
X146951006Y-105233940D01*
X146822475Y-105199500D01*
X146677525Y-105199500D01*
X146548993Y-105233940D01*
X146537511Y-105237017D01*
X146411988Y-105309488D01*
X146411982Y-105309493D01*
X146337681Y-105383795D01*
X146276358Y-105417280D01*
X146206666Y-105412296D01*
X146162319Y-105383795D01*
X146088017Y-105309493D01*
X146088011Y-105309488D01*
X145962488Y-105237017D01*
X145962489Y-105237017D01*
X145951006Y-105233940D01*
X145822475Y-105199500D01*
X145677525Y-105199500D01*
X145548993Y-105233940D01*
X145537511Y-105237017D01*
X145411988Y-105309488D01*
X145411982Y-105309493D01*
X145337681Y-105383795D01*
X145276358Y-105417280D01*
X145206666Y-105412296D01*
X145162319Y-105383795D01*
X145088017Y-105309493D01*
X145088011Y-105309488D01*
X144962488Y-105237017D01*
X144962489Y-105237017D01*
X144951006Y-105233940D01*
X144822475Y-105199500D01*
X144677525Y-105199500D01*
X144548993Y-105233940D01*
X144537511Y-105237017D01*
X144411988Y-105309488D01*
X144411982Y-105309493D01*
X144309493Y-105411982D01*
X144309488Y-105411988D01*
X144237017Y-105537511D01*
X144237016Y-105537515D01*
X144199500Y-105677525D01*
X131196129Y-105677525D01*
X131154727Y-105620539D01*
X131004464Y-105470276D01*
X131004459Y-105470272D01*
X130832557Y-105345379D01*
X130643217Y-105248904D01*
X130441128Y-105183242D01*
X130250000Y-105152969D01*
X130250000Y-106095854D01*
X130183343Y-106057370D01*
X130062535Y-106025000D01*
X129937465Y-106025000D01*
X129816657Y-106057370D01*
X129750000Y-106095854D01*
X129750000Y-105152969D01*
X129558872Y-105183242D01*
X129558869Y-105183242D01*
X129356782Y-105248904D01*
X129167442Y-105345379D01*
X128995540Y-105470272D01*
X128995535Y-105470276D01*
X128845276Y-105620535D01*
X128845272Y-105620540D01*
X128720379Y-105792442D01*
X128623904Y-105981782D01*
X128558242Y-106183870D01*
X128558242Y-106183873D01*
X128547769Y-106250000D01*
X125381500Y-106250000D01*
X125381500Y-103927525D01*
X151699500Y-103927525D01*
X151699500Y-104072475D01*
X151737016Y-104212485D01*
X151737017Y-104212488D01*
X151809488Y-104338011D01*
X151809490Y-104338013D01*
X151809491Y-104338015D01*
X151911985Y-104440509D01*
X151911986Y-104440510D01*
X151911988Y-104440511D01*
X152037511Y-104512982D01*
X152037512Y-104512982D01*
X152037515Y-104512984D01*
X152177525Y-104550500D01*
X152177528Y-104550500D01*
X152322472Y-104550500D01*
X152322475Y-104550500D01*
X152462485Y-104512984D01*
X152588015Y-104440509D01*
X152690509Y-104338015D01*
X152762984Y-104212485D01*
X152792217Y-104103389D01*
X171789500Y-104103389D01*
X171789500Y-104276611D01*
X171816598Y-104447701D01*
X171870127Y-104612445D01*
X171948768Y-104766788D01*
X172050586Y-104906928D01*
X172173072Y-105029414D01*
X172313212Y-105131232D01*
X172467555Y-105209873D01*
X172632299Y-105263402D01*
X172803389Y-105290500D01*
X172803390Y-105290500D01*
X172976610Y-105290500D01*
X172976611Y-105290500D01*
X173147701Y-105263402D01*
X173312445Y-105209873D01*
X173466788Y-105131232D01*
X173606928Y-105029414D01*
X173729414Y-104906928D01*
X173831232Y-104766788D01*
X173909873Y-104612445D01*
X173963402Y-104447701D01*
X173990500Y-104276611D01*
X173990500Y-104103389D01*
X173963402Y-103932299D01*
X173909873Y-103767555D01*
X173831232Y-103613212D01*
X173729414Y-103473072D01*
X173606928Y-103350586D01*
X173466788Y-103248768D01*
X173312445Y-103170127D01*
X173147701Y-103116598D01*
X173147699Y-103116597D01*
X173147698Y-103116597D01*
X173016271Y-103095781D01*
X172976611Y-103089500D01*
X172803389Y-103089500D01*
X172763728Y-103095781D01*
X172632302Y-103116597D01*
X172467552Y-103170128D01*
X172313211Y-103248768D01*
X172233256Y-103306859D01*
X172173072Y-103350586D01*
X172173070Y-103350588D01*
X172173069Y-103350588D01*
X172050588Y-103473069D01*
X172050588Y-103473070D01*
X172050586Y-103473072D01*
X172021590Y-103512982D01*
X171948768Y-103613211D01*
X171870128Y-103767552D01*
X171816597Y-103932302D01*
X171794397Y-104072472D01*
X171789500Y-104103389D01*
X152792217Y-104103389D01*
X152800500Y-104072475D01*
X152800500Y-103927525D01*
X152762984Y-103787515D01*
X152751458Y-103767552D01*
X152690511Y-103661988D01*
X152690506Y-103661982D01*
X152588017Y-103559493D01*
X152588011Y-103559488D01*
X152462488Y-103487017D01*
X152462489Y-103487017D01*
X152451006Y-103483940D01*
X152322475Y-103449500D01*
X152177525Y-103449500D01*
X152048993Y-103483940D01*
X152037511Y-103487017D01*
X151911988Y-103559488D01*
X151911982Y-103559493D01*
X151809493Y-103661982D01*
X151809488Y-103661988D01*
X151737017Y-103787511D01*
X151737016Y-103787515D01*
X151699500Y-103927525D01*
X125381500Y-103927525D01*
X125381500Y-102927525D01*
X153699500Y-102927525D01*
X153699500Y-103072475D01*
X153737016Y-103212485D01*
X153737017Y-103212488D01*
X153809488Y-103338011D01*
X153809490Y-103338013D01*
X153809491Y-103338015D01*
X153911985Y-103440509D01*
X153911986Y-103440510D01*
X153911988Y-103440511D01*
X154037511Y-103512982D01*
X154037512Y-103512982D01*
X154037515Y-103512984D01*
X154177525Y-103550500D01*
X154177528Y-103550500D01*
X154322472Y-103550500D01*
X154322475Y-103550500D01*
X154462485Y-103512984D01*
X154588015Y-103440509D01*
X154690509Y-103338015D01*
X154762984Y-103212485D01*
X154800500Y-103072475D01*
X154800500Y-102927525D01*
X154790505Y-102890223D01*
X154792166Y-102820375D01*
X154831328Y-102762512D01*
X154895556Y-102735007D01*
X154929673Y-102735656D01*
X155023389Y-102750500D01*
X155023390Y-102750500D01*
X155196610Y-102750500D01*
X155196611Y-102750500D01*
X155367701Y-102723402D01*
X155532445Y-102669873D01*
X155686788Y-102591232D01*
X155826928Y-102489414D01*
X155949414Y-102366928D01*
X156051232Y-102226788D01*
X156129873Y-102072445D01*
X156183402Y-101907701D01*
X156210500Y-101736611D01*
X156210500Y-101563389D01*
X156549500Y-101563389D01*
X156549500Y-101736610D01*
X156563099Y-101822475D01*
X156576598Y-101907701D01*
X156630127Y-102072445D01*
X156708768Y-102226788D01*
X156810586Y-102366928D01*
X156933072Y-102489414D01*
X157073212Y-102591232D01*
X157227555Y-102669873D01*
X157392299Y-102723402D01*
X157563389Y-102750500D01*
X157563390Y-102750500D01*
X157736610Y-102750500D01*
X157736611Y-102750500D01*
X157907701Y-102723402D01*
X158072445Y-102669873D01*
X158226788Y-102591232D01*
X158366928Y-102489414D01*
X158489414Y-102366928D01*
X158591232Y-102226788D01*
X158669873Y-102072445D01*
X158670896Y-102069294D01*
X158671610Y-102068250D01*
X158671734Y-102067952D01*
X158671796Y-102067977D01*
X158710327Y-102011618D01*
X158774683Y-101984415D01*
X158843530Y-101996323D01*
X158895011Y-102043562D01*
X158906760Y-102069287D01*
X158938904Y-102168217D01*
X159035379Y-102357557D01*
X159160272Y-102529459D01*
X159160276Y-102529464D01*
X159310535Y-102679723D01*
X159310540Y-102679727D01*
X159482442Y-102804620D01*
X159671782Y-102901095D01*
X159873871Y-102966757D01*
X159940000Y-102977231D01*
X159940000Y-102083012D01*
X159997007Y-102115925D01*
X160124174Y-102150000D01*
X160255826Y-102150000D01*
X160382993Y-102115925D01*
X160440000Y-102083012D01*
X160440000Y-102977230D01*
X160506126Y-102966757D01*
X160506129Y-102966757D01*
X160708217Y-102901095D01*
X160897557Y-102804620D01*
X161069459Y-102679727D01*
X161069464Y-102679723D01*
X161219723Y-102529464D01*
X161219727Y-102529459D01*
X161344620Y-102357557D01*
X161441096Y-102168215D01*
X161473239Y-102069288D01*
X161512676Y-102011612D01*
X161577034Y-101984413D01*
X161645880Y-101996327D01*
X161697357Y-102043571D01*
X161709100Y-102069284D01*
X161710127Y-102072446D01*
X161770283Y-102190509D01*
X161788768Y-102226788D01*
X161890586Y-102366928D01*
X162013072Y-102489414D01*
X162153212Y-102591232D01*
X162307555Y-102669873D01*
X162472299Y-102723402D01*
X162643389Y-102750500D01*
X162643390Y-102750500D01*
X162816610Y-102750500D01*
X162816611Y-102750500D01*
X162987701Y-102723402D01*
X163152445Y-102669873D01*
X163306788Y-102591232D01*
X163446928Y-102489414D01*
X163569414Y-102366928D01*
X163671232Y-102226788D01*
X163749873Y-102072445D01*
X163803402Y-101907701D01*
X163830500Y-101736611D01*
X163830500Y-101563389D01*
X164169500Y-101563389D01*
X164169500Y-101736610D01*
X164183099Y-101822475D01*
X164196598Y-101907701D01*
X164250127Y-102072445D01*
X164328768Y-102226788D01*
X164430586Y-102366928D01*
X164553072Y-102489414D01*
X164693212Y-102591232D01*
X164847555Y-102669873D01*
X165012299Y-102723402D01*
X165183389Y-102750500D01*
X165183390Y-102750500D01*
X165356610Y-102750500D01*
X165356611Y-102750500D01*
X165527701Y-102723402D01*
X165692445Y-102669873D01*
X165846788Y-102591232D01*
X165986928Y-102489414D01*
X166109414Y-102366928D01*
X166211232Y-102226788D01*
X166289873Y-102072445D01*
X166290896Y-102069294D01*
X166291610Y-102068250D01*
X166291734Y-102067952D01*
X166291796Y-102067977D01*
X166330327Y-102011618D01*
X166394683Y-101984415D01*
X166463530Y-101996323D01*
X166515011Y-102043562D01*
X166526760Y-102069287D01*
X166558904Y-102168217D01*
X166655379Y-102357557D01*
X166780272Y-102529459D01*
X166780276Y-102529464D01*
X166930535Y-102679723D01*
X166930540Y-102679727D01*
X167102442Y-102804620D01*
X167291782Y-102901095D01*
X167493871Y-102966757D01*
X167560000Y-102977231D01*
X167560000Y-102083012D01*
X167617007Y-102115925D01*
X167744174Y-102150000D01*
X167875826Y-102150000D01*
X168002993Y-102115925D01*
X168060000Y-102083012D01*
X168060000Y-102977230D01*
X168126126Y-102966757D01*
X168126129Y-102966757D01*
X168328217Y-102901095D01*
X168517557Y-102804620D01*
X168689459Y-102679727D01*
X168689464Y-102679723D01*
X168839723Y-102529464D01*
X168839727Y-102529459D01*
X168964620Y-102357558D01*
X168969514Y-102347954D01*
X169017488Y-102297157D01*
X169085308Y-102280361D01*
X169151444Y-102302897D01*
X169190486Y-102347954D01*
X169195379Y-102357558D01*
X169320272Y-102529459D01*
X169320276Y-102529464D01*
X169470535Y-102679723D01*
X169470540Y-102679727D01*
X169642442Y-102804620D01*
X169831782Y-102901095D01*
X170033871Y-102966757D01*
X170100000Y-102977231D01*
X170100000Y-102083012D01*
X170157007Y-102115925D01*
X170284174Y-102150000D01*
X170415826Y-102150000D01*
X170542993Y-102115925D01*
X170600000Y-102083012D01*
X170600000Y-102977230D01*
X170666126Y-102966757D01*
X170666129Y-102966757D01*
X170868217Y-102901095D01*
X171057557Y-102804620D01*
X171229459Y-102679727D01*
X171229464Y-102679723D01*
X171379723Y-102529464D01*
X171379727Y-102529459D01*
X171504620Y-102357558D01*
X171555941Y-102256836D01*
X171603915Y-102206040D01*
X171671736Y-102189245D01*
X171737871Y-102211782D01*
X171781323Y-102266497D01*
X171789716Y-102299877D01*
X171795908Y-102357483D01*
X171846202Y-102492328D01*
X171846206Y-102492335D01*
X171932452Y-102607544D01*
X171932455Y-102607547D01*
X172047664Y-102693793D01*
X172047671Y-102693797D01*
X172182517Y-102744091D01*
X172182516Y-102744091D01*
X172189444Y-102744835D01*
X172242127Y-102750500D01*
X173537872Y-102750499D01*
X173597483Y-102744091D01*
X173732331Y-102693796D01*
X173847546Y-102607546D01*
X173933796Y-102492331D01*
X173984091Y-102357483D01*
X173990500Y-102297873D01*
X173990499Y-101002128D01*
X173984091Y-100942517D01*
X173980568Y-100933072D01*
X173933797Y-100807671D01*
X173933793Y-100807664D01*
X173847547Y-100692455D01*
X173847544Y-100692452D01*
X173732335Y-100606206D01*
X173732328Y-100606202D01*
X173597482Y-100555908D01*
X173597483Y-100555908D01*
X173537883Y-100549501D01*
X173537881Y-100549500D01*
X173537873Y-100549500D01*
X173537864Y-100549500D01*
X172242129Y-100549500D01*
X172242123Y-100549501D01*
X172182516Y-100555908D01*
X172047671Y-100606202D01*
X172047664Y-100606206D01*
X171932455Y-100692452D01*
X171932452Y-100692455D01*
X171846206Y-100807664D01*
X171846202Y-100807671D01*
X171795908Y-100942516D01*
X171789715Y-101000124D01*
X171762977Y-101064675D01*
X171705584Y-101104523D01*
X171635759Y-101107016D01*
X171575670Y-101071363D01*
X171555941Y-101043163D01*
X171504620Y-100942442D01*
X171379727Y-100770540D01*
X171379723Y-100770535D01*
X171229464Y-100620276D01*
X171229459Y-100620272D01*
X171057557Y-100495379D01*
X170868215Y-100398903D01*
X170666124Y-100333241D01*
X170600000Y-100322768D01*
X170600000Y-101216988D01*
X170542993Y-101184075D01*
X170415826Y-101150000D01*
X170284174Y-101150000D01*
X170157007Y-101184075D01*
X170100000Y-101216988D01*
X170100000Y-100322768D01*
X170099999Y-100322768D01*
X170033875Y-100333241D01*
X169831784Y-100398903D01*
X169642442Y-100495379D01*
X169470540Y-100620272D01*
X169470535Y-100620276D01*
X169320276Y-100770535D01*
X169320272Y-100770540D01*
X169195377Y-100942444D01*
X169190484Y-100952048D01*
X169142509Y-101002844D01*
X169074688Y-101019638D01*
X169008553Y-100997100D01*
X168969516Y-100952048D01*
X168964622Y-100942444D01*
X168839727Y-100770540D01*
X168839723Y-100770535D01*
X168689464Y-100620276D01*
X168689459Y-100620272D01*
X168517557Y-100495379D01*
X168328215Y-100398903D01*
X168126124Y-100333241D01*
X168060000Y-100322768D01*
X168060000Y-101216988D01*
X168002993Y-101184075D01*
X167875826Y-101150000D01*
X167744174Y-101150000D01*
X167617007Y-101184075D01*
X167560000Y-101216988D01*
X167560000Y-100322768D01*
X167559999Y-100322768D01*
X167493875Y-100333241D01*
X167291784Y-100398903D01*
X167102442Y-100495379D01*
X166930540Y-100620272D01*
X166930535Y-100620276D01*
X166780276Y-100770535D01*
X166780272Y-100770540D01*
X166655379Y-100942442D01*
X166558904Y-101131783D01*
X166526760Y-101230712D01*
X166487322Y-101288388D01*
X166422964Y-101315586D01*
X166354117Y-101303671D01*
X166302642Y-101256427D01*
X166290898Y-101230711D01*
X166289873Y-101227555D01*
X166211232Y-101073212D01*
X166109414Y-100933072D01*
X165986928Y-100810586D01*
X165846788Y-100708768D01*
X165810952Y-100690509D01*
X165692447Y-100630128D01*
X165692446Y-100630127D01*
X165692445Y-100630127D01*
X165527701Y-100576598D01*
X165527699Y-100576597D01*
X165527698Y-100576597D01*
X165396271Y-100555781D01*
X165356611Y-100549500D01*
X165183389Y-100549500D01*
X165143728Y-100555781D01*
X165012302Y-100576597D01*
X164847552Y-100630128D01*
X164693211Y-100708768D01*
X164648510Y-100741246D01*
X164553072Y-100810586D01*
X164553070Y-100810588D01*
X164553069Y-100810588D01*
X164430588Y-100933069D01*
X164430588Y-100933070D01*
X164430586Y-100933072D01*
X164423777Y-100942444D01*
X164328768Y-101073211D01*
X164250128Y-101227552D01*
X164196597Y-101392302D01*
X164169500Y-101563389D01*
X163830500Y-101563389D01*
X163803402Y-101392299D01*
X163749873Y-101227555D01*
X163671232Y-101073212D01*
X163569414Y-100933072D01*
X163446928Y-100810586D01*
X163306788Y-100708768D01*
X163270952Y-100690509D01*
X163152447Y-100630128D01*
X163152446Y-100630127D01*
X163152445Y-100630127D01*
X162987701Y-100576598D01*
X162987699Y-100576597D01*
X162987698Y-100576597D01*
X162856271Y-100555781D01*
X162816611Y-100549500D01*
X162643389Y-100549500D01*
X162603728Y-100555781D01*
X162472302Y-100576597D01*
X162307552Y-100630128D01*
X162153211Y-100708768D01*
X162108510Y-100741246D01*
X162013072Y-100810586D01*
X162013070Y-100810588D01*
X162013069Y-100810588D01*
X161890588Y-100933069D01*
X161890588Y-100933070D01*
X161890586Y-100933072D01*
X161883777Y-100942444D01*
X161788768Y-101073211D01*
X161710128Y-101227550D01*
X161709487Y-101229522D01*
X161709102Y-101230712D01*
X161709099Y-101230720D01*
X161708381Y-101231769D01*
X161708266Y-101232048D01*
X161708207Y-101232023D01*
X161669657Y-101288393D01*
X161605297Y-101315587D01*
X161536451Y-101303668D01*
X161484979Y-101256420D01*
X161473239Y-101230711D01*
X161441096Y-101131784D01*
X161344620Y-100942442D01*
X161219727Y-100770540D01*
X161219723Y-100770535D01*
X161069464Y-100620276D01*
X161069459Y-100620272D01*
X160897557Y-100495379D01*
X160708215Y-100398903D01*
X160506124Y-100333241D01*
X160440000Y-100322768D01*
X160440000Y-101216988D01*
X160382993Y-101184075D01*
X160255826Y-101150000D01*
X160124174Y-101150000D01*
X159997007Y-101184075D01*
X159940000Y-101216988D01*
X159940000Y-100322768D01*
X159939999Y-100322768D01*
X159873875Y-100333241D01*
X159671784Y-100398903D01*
X159482442Y-100495379D01*
X159310540Y-100620272D01*
X159310535Y-100620276D01*
X159160276Y-100770535D01*
X159160272Y-100770540D01*
X159035379Y-100942442D01*
X158938904Y-101131783D01*
X158906760Y-101230712D01*
X158867322Y-101288388D01*
X158802964Y-101315586D01*
X158734117Y-101303671D01*
X158682642Y-101256427D01*
X158670898Y-101230711D01*
X158669873Y-101227555D01*
X158591232Y-101073212D01*
X158489414Y-100933072D01*
X158366928Y-100810586D01*
X158226788Y-100708768D01*
X158190952Y-100690509D01*
X158072447Y-100630128D01*
X158072446Y-100630127D01*
X158072445Y-100630127D01*
X157907701Y-100576598D01*
X157907699Y-100576597D01*
X157907698Y-100576597D01*
X157776271Y-100555781D01*
X157736611Y-100549500D01*
X157563389Y-100549500D01*
X157523728Y-100555781D01*
X157392302Y-100576597D01*
X157227552Y-100630128D01*
X157073211Y-100708768D01*
X157028510Y-100741246D01*
X156933072Y-100810586D01*
X156933070Y-100810588D01*
X156933069Y-100810588D01*
X156810588Y-100933069D01*
X156810588Y-100933070D01*
X156810586Y-100933072D01*
X156803777Y-100942444D01*
X156708768Y-101073211D01*
X156630128Y-101227552D01*
X156576597Y-101392302D01*
X156549500Y-101563389D01*
X156210500Y-101563389D01*
X156183402Y-101392299D01*
X156129873Y-101227555D01*
X156051232Y-101073212D01*
X155949414Y-100933072D01*
X155826928Y-100810586D01*
X155686788Y-100708768D01*
X155650952Y-100690509D01*
X155532447Y-100630128D01*
X155532446Y-100630127D01*
X155532445Y-100630127D01*
X155367701Y-100576598D01*
X155367699Y-100576597D01*
X155367698Y-100576597D01*
X155236271Y-100555781D01*
X155196611Y-100549500D01*
X155023389Y-100549500D01*
X154983728Y-100555781D01*
X154852302Y-100576597D01*
X154687552Y-100630128D01*
X154533211Y-100708768D01*
X154488510Y-100741246D01*
X154393072Y-100810586D01*
X154393070Y-100810588D01*
X154393069Y-100810588D01*
X154270588Y-100933069D01*
X154270588Y-100933070D01*
X154270586Y-100933072D01*
X154263777Y-100942444D01*
X154168768Y-101073211D01*
X154090128Y-101227552D01*
X154036597Y-101392302D01*
X154009500Y-101563389D01*
X154009500Y-101736610D01*
X154023099Y-101822475D01*
X154036598Y-101907701D01*
X154090127Y-102072445D01*
X154161122Y-102211782D01*
X154168770Y-102226791D01*
X154199588Y-102269209D01*
X154223068Y-102335015D01*
X154207243Y-102403069D01*
X154157137Y-102451764D01*
X154131364Y-102461869D01*
X154037511Y-102487017D01*
X153911988Y-102559488D01*
X153911982Y-102559493D01*
X153809493Y-102661982D01*
X153809488Y-102661988D01*
X153737017Y-102787511D01*
X153737016Y-102787515D01*
X153699500Y-102927525D01*
X125381500Y-102927525D01*
X125381500Y-101677525D01*
X138449500Y-101677525D01*
X138449500Y-101822475D01*
X138472337Y-101907701D01*
X138487017Y-101962488D01*
X138559488Y-102088011D01*
X138559490Y-102088013D01*
X138559491Y-102088015D01*
X138661985Y-102190509D01*
X138661986Y-102190510D01*
X138661988Y-102190511D01*
X138787511Y-102262982D01*
X138787512Y-102262982D01*
X138787515Y-102262984D01*
X138927525Y-102300500D01*
X138927528Y-102300500D01*
X139072472Y-102300500D01*
X139072475Y-102300500D01*
X139212485Y-102262984D01*
X139338015Y-102190509D01*
X139440509Y-102088015D01*
X139512984Y-101962485D01*
X139550500Y-101822475D01*
X139550500Y-101677525D01*
X150449500Y-101677525D01*
X150449500Y-101822475D01*
X150472337Y-101907701D01*
X150487017Y-101962488D01*
X150559488Y-102088011D01*
X150559490Y-102088013D01*
X150559491Y-102088015D01*
X150661985Y-102190509D01*
X150661986Y-102190510D01*
X150661988Y-102190511D01*
X150787511Y-102262982D01*
X150787512Y-102262982D01*
X150787515Y-102262984D01*
X150927525Y-102300500D01*
X150927528Y-102300500D01*
X151072472Y-102300500D01*
X151072475Y-102300500D01*
X151212485Y-102262984D01*
X151338015Y-102190509D01*
X151440509Y-102088015D01*
X151512984Y-101962485D01*
X151550500Y-101822475D01*
X151550500Y-101677525D01*
X151512984Y-101537515D01*
X151440509Y-101411985D01*
X151338015Y-101309491D01*
X151338013Y-101309490D01*
X151338011Y-101309488D01*
X151212488Y-101237017D01*
X151212489Y-101237017D01*
X151188958Y-101230712D01*
X151072475Y-101199500D01*
X150927525Y-101199500D01*
X150811042Y-101230712D01*
X150787511Y-101237017D01*
X150661988Y-101309488D01*
X150661982Y-101309493D01*
X150559493Y-101411982D01*
X150559488Y-101411988D01*
X150487017Y-101537511D01*
X150487016Y-101537515D01*
X150449500Y-101677525D01*
X139550500Y-101677525D01*
X139512984Y-101537515D01*
X139469665Y-101462485D01*
X139440511Y-101411988D01*
X139440506Y-101411982D01*
X139338017Y-101309493D01*
X139338011Y-101309488D01*
X139212488Y-101237017D01*
X139212489Y-101237017D01*
X139188958Y-101230712D01*
X139072475Y-101199500D01*
X138927525Y-101199500D01*
X138811042Y-101230712D01*
X138787511Y-101237017D01*
X138661988Y-101309488D01*
X138661982Y-101309493D01*
X138559493Y-101411982D01*
X138559488Y-101411988D01*
X138487017Y-101537511D01*
X138487016Y-101537515D01*
X138449500Y-101677525D01*
X125381500Y-101677525D01*
X125381500Y-99638428D01*
X128900000Y-99638428D01*
X128900000Y-99750000D01*
X129719670Y-99750000D01*
X129699925Y-99769745D01*
X129650556Y-99855255D01*
X129625000Y-99950630D01*
X129625000Y-100049370D01*
X129650556Y-100144745D01*
X129699925Y-100230255D01*
X129719670Y-100250000D01*
X128900000Y-100250000D01*
X128900000Y-100361571D01*
X128927085Y-100532584D01*
X128980591Y-100697257D01*
X129059195Y-100851524D01*
X129160967Y-100991602D01*
X129283397Y-101114032D01*
X129423475Y-101215804D01*
X129577744Y-101294408D01*
X129742415Y-101347914D01*
X129742414Y-101347914D01*
X129749999Y-101349115D01*
X129750000Y-101349114D01*
X129750000Y-100280330D01*
X129769745Y-100300075D01*
X129855255Y-100349444D01*
X129950630Y-100375000D01*
X130049370Y-100375000D01*
X130144745Y-100349444D01*
X130230255Y-100300075D01*
X130250000Y-100280330D01*
X130250000Y-101349115D01*
X130257584Y-101347914D01*
X130422255Y-101294408D01*
X130576524Y-101215804D01*
X130629211Y-101177525D01*
X151699500Y-101177525D01*
X151699500Y-101177527D01*
X151699500Y-101322474D01*
X151722985Y-101410126D01*
X151722989Y-101410136D01*
X151737016Y-101462485D01*
X151809491Y-101588015D01*
X151911985Y-101690509D01*
X151911986Y-101690510D01*
X151911988Y-101690511D01*
X152037511Y-101762982D01*
X152037512Y-101762982D01*
X152037515Y-101762984D01*
X152177525Y-101800500D01*
X152177528Y-101800500D01*
X152322472Y-101800500D01*
X152322475Y-101800500D01*
X152462485Y-101762984D01*
X152588015Y-101690509D01*
X152690509Y-101588015D01*
X152762984Y-101462485D01*
X152800500Y-101322475D01*
X152800500Y-101177525D01*
X152762984Y-101037515D01*
X152742553Y-101002128D01*
X152690511Y-100911988D01*
X152690506Y-100911982D01*
X152588017Y-100809493D01*
X152588011Y-100809488D01*
X152462488Y-100737017D01*
X152462489Y-100737017D01*
X152445564Y-100732482D01*
X152322475Y-100699500D01*
X152177525Y-100699500D01*
X152054436Y-100732482D01*
X152037511Y-100737017D01*
X151911988Y-100809488D01*
X151911982Y-100809493D01*
X151809493Y-100911982D01*
X151809488Y-100911988D01*
X151737017Y-101037511D01*
X151737016Y-101037515D01*
X151699500Y-101177525D01*
X130629211Y-101177525D01*
X130716602Y-101114032D01*
X130839032Y-100991602D01*
X130940805Y-100851522D01*
X130962554Y-100808838D01*
X131010528Y-100758042D01*
X131078349Y-100741246D01*
X131144484Y-100763783D01*
X131187936Y-100818498D01*
X131189221Y-100821798D01*
X131206203Y-100867330D01*
X131206206Y-100867335D01*
X131292452Y-100982544D01*
X131292455Y-100982547D01*
X131407664Y-101068793D01*
X131407671Y-101068797D01*
X131542517Y-101119091D01*
X131542516Y-101119091D01*
X131549444Y-101119835D01*
X131602127Y-101125500D01*
X132397872Y-101125499D01*
X132457483Y-101119091D01*
X132592331Y-101068796D01*
X132707546Y-100982546D01*
X132793796Y-100867331D01*
X132844091Y-100732483D01*
X132850500Y-100672873D01*
X132850499Y-100177525D01*
X153199500Y-100177525D01*
X153199500Y-100322475D01*
X153237016Y-100462485D01*
X153237017Y-100462488D01*
X153309488Y-100588011D01*
X153309490Y-100588013D01*
X153309491Y-100588015D01*
X153411985Y-100690509D01*
X153411986Y-100690510D01*
X153411988Y-100690511D01*
X153537511Y-100762982D01*
X153537512Y-100762982D01*
X153537515Y-100762984D01*
X153677525Y-100800500D01*
X153677528Y-100800500D01*
X153822472Y-100800500D01*
X153822475Y-100800500D01*
X153962485Y-100762984D01*
X154088015Y-100690509D01*
X154190509Y-100588015D01*
X154262984Y-100462485D01*
X154300500Y-100322475D01*
X154300500Y-100177525D01*
X154262984Y-100037515D01*
X154206977Y-99940509D01*
X154190511Y-99911988D01*
X154190506Y-99911982D01*
X154088017Y-99809493D01*
X154088011Y-99809488D01*
X153962488Y-99737017D01*
X153962489Y-99737017D01*
X153951006Y-99733940D01*
X153822475Y-99699500D01*
X153677525Y-99699500D01*
X153548993Y-99733940D01*
X153537511Y-99737017D01*
X153411988Y-99809488D01*
X153411982Y-99809493D01*
X153309493Y-99911982D01*
X153309488Y-99911988D01*
X153237017Y-100037511D01*
X153237016Y-100037515D01*
X153199500Y-100177525D01*
X132850499Y-100177525D01*
X132850499Y-99950630D01*
X132850499Y-99427525D01*
X167449500Y-99427525D01*
X167449500Y-99572475D01*
X167470422Y-99650556D01*
X167487017Y-99712488D01*
X167559488Y-99838011D01*
X167559490Y-99838013D01*
X167559491Y-99838015D01*
X167661985Y-99940509D01*
X167661986Y-99940510D01*
X167661988Y-99940511D01*
X167787511Y-100012982D01*
X167787512Y-100012982D01*
X167787515Y-100012984D01*
X167927525Y-100050500D01*
X167927528Y-100050500D01*
X168072472Y-100050500D01*
X168072475Y-100050500D01*
X168212485Y-100012984D01*
X168338015Y-99940509D01*
X168440509Y-99838015D01*
X168512984Y-99712485D01*
X168550500Y-99572475D01*
X168550500Y-99427525D01*
X168512984Y-99287515D01*
X168457354Y-99191162D01*
X168440511Y-99161988D01*
X168440506Y-99161982D01*
X168338017Y-99059493D01*
X168338011Y-99059488D01*
X168212488Y-98987017D01*
X168212489Y-98987017D01*
X168201006Y-98983940D01*
X168072475Y-98949500D01*
X167927525Y-98949500D01*
X167798993Y-98983940D01*
X167787511Y-98987017D01*
X167661988Y-99059488D01*
X167661982Y-99059493D01*
X167559493Y-99161982D01*
X167559488Y-99161988D01*
X167487017Y-99287511D01*
X167487016Y-99287515D01*
X167449500Y-99427525D01*
X132850499Y-99427525D01*
X132850499Y-99419398D01*
X132850499Y-99327129D01*
X132850498Y-99327123D01*
X132847877Y-99302742D01*
X132844091Y-99267517D01*
X132835207Y-99243699D01*
X132793797Y-99132671D01*
X132793793Y-99132664D01*
X132707547Y-99017455D01*
X132707544Y-99017452D01*
X132592335Y-98931206D01*
X132592328Y-98931202D01*
X132457482Y-98880908D01*
X132457483Y-98880908D01*
X132397883Y-98874501D01*
X132397881Y-98874500D01*
X132397873Y-98874500D01*
X132397864Y-98874500D01*
X131602129Y-98874500D01*
X131602123Y-98874501D01*
X131542516Y-98880908D01*
X131407671Y-98931202D01*
X131407664Y-98931206D01*
X131292455Y-99017452D01*
X131292452Y-99017455D01*
X131206206Y-99132664D01*
X131206203Y-99132670D01*
X131189221Y-99178201D01*
X131147349Y-99234135D01*
X131081884Y-99258551D01*
X131013612Y-99243699D01*
X130964206Y-99194293D01*
X130962554Y-99191162D01*
X130940804Y-99148475D01*
X130839032Y-99008397D01*
X130716602Y-98885967D01*
X130576524Y-98784195D01*
X130422257Y-98705591D01*
X130257589Y-98652087D01*
X130257581Y-98652085D01*
X130250000Y-98650884D01*
X130250000Y-99719670D01*
X130230255Y-99699925D01*
X130144745Y-99650556D01*
X130049370Y-99625000D01*
X129950630Y-99625000D01*
X129855255Y-99650556D01*
X129769745Y-99699925D01*
X129750000Y-99719670D01*
X129750000Y-98650884D01*
X129749999Y-98650884D01*
X129742418Y-98652085D01*
X129742410Y-98652087D01*
X129577742Y-98705591D01*
X129423475Y-98784195D01*
X129283397Y-98885967D01*
X129160967Y-99008397D01*
X129059195Y-99148475D01*
X128980591Y-99302742D01*
X128927085Y-99467415D01*
X128900000Y-99638428D01*
X125381500Y-99638428D01*
X125381500Y-97677525D01*
X151699500Y-97677525D01*
X151699500Y-97822475D01*
X151731128Y-97940511D01*
X151737017Y-97962488D01*
X151809488Y-98088011D01*
X151809490Y-98088013D01*
X151809491Y-98088015D01*
X151911985Y-98190509D01*
X151911986Y-98190510D01*
X151911988Y-98190511D01*
X152037511Y-98262982D01*
X152037512Y-98262982D01*
X152037515Y-98262984D01*
X152177525Y-98300500D01*
X152177528Y-98300500D01*
X152322472Y-98300500D01*
X152322475Y-98300500D01*
X152462485Y-98262984D01*
X152588015Y-98190509D01*
X152690509Y-98088015D01*
X152762984Y-97962485D01*
X152800500Y-97822475D01*
X152800500Y-97677525D01*
X152762984Y-97537515D01*
X152699481Y-97427525D01*
X156449500Y-97427525D01*
X156449500Y-97572475D01*
X156477649Y-97677527D01*
X156487017Y-97712488D01*
X156559488Y-97838011D01*
X156559490Y-97838013D01*
X156559491Y-97838015D01*
X156661985Y-97940509D01*
X156661986Y-97940510D01*
X156661988Y-97940511D01*
X156787511Y-98012982D01*
X156787512Y-98012982D01*
X156787515Y-98012984D01*
X156927525Y-98050500D01*
X156927528Y-98050500D01*
X157072472Y-98050500D01*
X157072475Y-98050500D01*
X157212485Y-98012984D01*
X157338015Y-97940509D01*
X157440509Y-97838015D01*
X157512984Y-97712485D01*
X157550500Y-97572475D01*
X157550500Y-97427525D01*
X157512984Y-97287515D01*
X157483828Y-97237016D01*
X157440511Y-97161988D01*
X157440506Y-97161982D01*
X157338017Y-97059493D01*
X157338011Y-97059488D01*
X157212488Y-96987017D01*
X157212489Y-96987017D01*
X157201006Y-96983940D01*
X157072475Y-96949500D01*
X156927525Y-96949500D01*
X156798993Y-96983940D01*
X156787511Y-96987017D01*
X156661988Y-97059488D01*
X156661982Y-97059493D01*
X156559493Y-97161982D01*
X156559488Y-97161988D01*
X156487017Y-97287511D01*
X156487016Y-97287515D01*
X156449500Y-97427525D01*
X152699481Y-97427525D01*
X152690509Y-97411985D01*
X152588015Y-97309491D01*
X152588013Y-97309490D01*
X152588011Y-97309488D01*
X152462488Y-97237017D01*
X152462489Y-97237017D01*
X152451006Y-97233940D01*
X152322475Y-97199500D01*
X152177525Y-97199500D01*
X152048993Y-97233940D01*
X152037511Y-97237017D01*
X151911988Y-97309488D01*
X151911982Y-97309493D01*
X151809493Y-97411982D01*
X151809488Y-97411988D01*
X151737017Y-97537511D01*
X151737016Y-97537515D01*
X151699500Y-97677525D01*
X125381500Y-97677525D01*
X125381500Y-96427525D01*
X153949500Y-96427525D01*
X153949500Y-96572475D01*
X153987016Y-96712485D01*
X153987017Y-96712488D01*
X154059488Y-96838011D01*
X154059490Y-96838013D01*
X154059491Y-96838015D01*
X154161985Y-96940509D01*
X154161986Y-96940510D01*
X154161988Y-96940511D01*
X154287511Y-97012982D01*
X154287512Y-97012982D01*
X154287515Y-97012984D01*
X154427525Y-97050500D01*
X154427528Y-97050500D01*
X154572472Y-97050500D01*
X154572475Y-97050500D01*
X154712485Y-97012984D01*
X154838015Y-96940509D01*
X154940509Y-96838015D01*
X155012984Y-96712485D01*
X155050500Y-96572475D01*
X155050500Y-96427525D01*
X155012984Y-96287515D01*
X154940509Y-96161985D01*
X154838015Y-96059491D01*
X154838013Y-96059490D01*
X154838011Y-96059488D01*
X154712488Y-95987017D01*
X154712489Y-95987017D01*
X154701006Y-95983940D01*
X154572475Y-95949500D01*
X154427525Y-95949500D01*
X154298993Y-95983940D01*
X154287511Y-95987017D01*
X154161988Y-96059488D01*
X154161982Y-96059493D01*
X154059493Y-96161982D01*
X154059488Y-96161988D01*
X153987017Y-96287511D01*
X153987016Y-96287515D01*
X153949500Y-96427525D01*
X125381500Y-96427525D01*
X125381500Y-92638428D01*
X128900000Y-92638428D01*
X128900000Y-92750000D01*
X129719670Y-92750000D01*
X129699925Y-92769745D01*
X129650556Y-92855255D01*
X129625000Y-92950630D01*
X129625000Y-93049370D01*
X129650556Y-93144745D01*
X129699925Y-93230255D01*
X129719670Y-93250000D01*
X128900000Y-93250000D01*
X128900000Y-93361571D01*
X128927085Y-93532584D01*
X128980591Y-93697257D01*
X129059195Y-93851524D01*
X129160967Y-93991602D01*
X129283397Y-94114032D01*
X129423475Y-94215804D01*
X129577744Y-94294408D01*
X129742415Y-94347914D01*
X129742414Y-94347914D01*
X129749999Y-94349115D01*
X129750000Y-94349114D01*
X129750000Y-93280330D01*
X129769745Y-93300075D01*
X129855255Y-93349444D01*
X129950630Y-93375000D01*
X130049370Y-93375000D01*
X130144745Y-93349444D01*
X130230255Y-93300075D01*
X130250000Y-93280330D01*
X130250000Y-94349115D01*
X130257584Y-94347914D01*
X130422255Y-94294408D01*
X130576524Y-94215804D01*
X130716602Y-94114032D01*
X130839032Y-93991602D01*
X130940805Y-93851522D01*
X130962554Y-93808838D01*
X131010528Y-93758042D01*
X131078349Y-93741246D01*
X131144484Y-93763783D01*
X131187936Y-93818498D01*
X131189221Y-93821798D01*
X131206203Y-93867330D01*
X131206206Y-93867335D01*
X131292452Y-93982544D01*
X131292455Y-93982547D01*
X131407664Y-94068793D01*
X131407671Y-94068797D01*
X131542517Y-94119091D01*
X131542516Y-94119091D01*
X131549444Y-94119835D01*
X131602127Y-94125500D01*
X132397872Y-94125499D01*
X132457483Y-94119091D01*
X132592331Y-94068796D01*
X132707546Y-93982546D01*
X132793796Y-93867331D01*
X132844091Y-93732483D01*
X132850500Y-93672873D01*
X132850500Y-93427525D01*
X142699500Y-93427525D01*
X142699500Y-93572475D01*
X142726402Y-93672872D01*
X142737017Y-93712488D01*
X142795048Y-93813000D01*
X142811521Y-93880900D01*
X142795048Y-93937000D01*
X142737017Y-94037511D01*
X142737016Y-94037515D01*
X142699500Y-94177525D01*
X142699500Y-94322475D01*
X142728314Y-94430008D01*
X142737017Y-94462488D01*
X142809488Y-94588011D01*
X142809490Y-94588013D01*
X142809491Y-94588015D01*
X142911985Y-94690509D01*
X142911986Y-94690510D01*
X142911988Y-94690511D01*
X143037511Y-94762982D01*
X143037512Y-94762982D01*
X143037515Y-94762984D01*
X143177525Y-94800500D01*
X143177528Y-94800500D01*
X143322472Y-94800500D01*
X143322475Y-94800500D01*
X143462485Y-94762984D01*
X143588015Y-94690509D01*
X143690509Y-94588015D01*
X143762984Y-94462485D01*
X143772352Y-94427525D01*
X154699500Y-94427525D01*
X154699500Y-94572475D01*
X154731128Y-94690511D01*
X154737017Y-94712488D01*
X154809488Y-94838011D01*
X154809490Y-94838013D01*
X154809491Y-94838015D01*
X154911985Y-94940509D01*
X154911986Y-94940510D01*
X154911988Y-94940511D01*
X155037511Y-95012982D01*
X155037512Y-95012982D01*
X155037515Y-95012984D01*
X155177525Y-95050500D01*
X155177528Y-95050500D01*
X155322472Y-95050500D01*
X155322475Y-95050500D01*
X155462485Y-95012984D01*
X155588015Y-94940509D01*
X155690509Y-94838015D01*
X155762984Y-94712485D01*
X155800500Y-94572475D01*
X155800500Y-94427525D01*
X155762984Y-94287515D01*
X155690509Y-94161985D01*
X155588015Y-94059491D01*
X155588013Y-94059490D01*
X155588011Y-94059488D01*
X155462488Y-93987017D01*
X155462489Y-93987017D01*
X155445795Y-93982544D01*
X155322475Y-93949500D01*
X155177525Y-93949500D01*
X155054205Y-93982544D01*
X155037511Y-93987017D01*
X154911988Y-94059488D01*
X154911982Y-94059493D01*
X154809493Y-94161982D01*
X154809488Y-94161988D01*
X154737017Y-94287511D01*
X154737016Y-94287515D01*
X154699500Y-94427525D01*
X143772352Y-94427525D01*
X143800500Y-94322475D01*
X143800500Y-94177525D01*
X143762984Y-94037515D01*
X143704950Y-93936997D01*
X143702120Y-93925333D01*
X143695158Y-93915556D01*
X143694036Y-93892011D01*
X143688478Y-93869101D01*
X143692321Y-93856012D01*
X143691833Y-93845765D01*
X143704668Y-93813707D01*
X167815500Y-93813707D01*
X167815500Y-93966293D01*
X167840472Y-94059488D01*
X167854993Y-94113681D01*
X167931282Y-94245817D01*
X167931284Y-94245819D01*
X167931285Y-94245821D01*
X168039179Y-94353715D01*
X168039180Y-94353716D01*
X168039182Y-94353717D01*
X168171318Y-94430006D01*
X168171319Y-94430006D01*
X168171322Y-94430008D01*
X168318707Y-94469500D01*
X168318710Y-94469500D01*
X168471290Y-94469500D01*
X168471293Y-94469500D01*
X168618678Y-94430008D01*
X168750821Y-94353715D01*
X168858715Y-94245821D01*
X168935008Y-94113678D01*
X168974500Y-93966293D01*
X168974500Y-93813707D01*
X168935008Y-93666322D01*
X168880825Y-93572475D01*
X168858717Y-93534182D01*
X168858712Y-93534176D01*
X168750823Y-93426287D01*
X168750817Y-93426282D01*
X168618681Y-93349993D01*
X168618682Y-93349993D01*
X168606595Y-93346754D01*
X168471293Y-93310500D01*
X168318707Y-93310500D01*
X168183404Y-93346754D01*
X168171318Y-93349993D01*
X168039182Y-93426282D01*
X168039176Y-93426287D01*
X167931287Y-93534176D01*
X167931282Y-93534182D01*
X167854993Y-93666318D01*
X167854992Y-93666322D01*
X167815500Y-93813707D01*
X143704668Y-93813707D01*
X143704951Y-93813000D01*
X143736682Y-93758042D01*
X143762984Y-93712485D01*
X143800500Y-93572475D01*
X143800500Y-93427525D01*
X143762984Y-93287515D01*
X143706977Y-93190509D01*
X143690511Y-93161988D01*
X143690506Y-93161982D01*
X143588017Y-93059493D01*
X143588011Y-93059488D01*
X143462488Y-92987017D01*
X143462489Y-92987017D01*
X143451006Y-92983940D01*
X143322475Y-92949500D01*
X143177525Y-92949500D01*
X143048993Y-92983940D01*
X143037511Y-92987017D01*
X142911988Y-93059488D01*
X142911982Y-93059493D01*
X142809493Y-93161982D01*
X142809488Y-93161988D01*
X142737017Y-93287511D01*
X142737016Y-93287515D01*
X142699500Y-93427525D01*
X132850500Y-93427525D01*
X132850499Y-92987017D01*
X132850499Y-92677525D01*
X160199500Y-92677525D01*
X160199500Y-92822475D01*
X160237016Y-92962485D01*
X160237017Y-92962488D01*
X160309488Y-93088011D01*
X160309490Y-93088013D01*
X160309491Y-93088015D01*
X160411985Y-93190509D01*
X160411986Y-93190510D01*
X160411988Y-93190511D01*
X160537511Y-93262982D01*
X160537512Y-93262982D01*
X160537515Y-93262984D01*
X160677525Y-93300500D01*
X160677528Y-93300500D01*
X160822472Y-93300500D01*
X160822475Y-93300500D01*
X160962485Y-93262984D01*
X161088015Y-93190509D01*
X161190509Y-93088015D01*
X161262984Y-92962485D01*
X161300500Y-92822475D01*
X161300500Y-92677525D01*
X161262984Y-92537515D01*
X161206977Y-92440509D01*
X161190511Y-92411988D01*
X161190506Y-92411982D01*
X161088017Y-92309493D01*
X161088011Y-92309488D01*
X160962488Y-92237017D01*
X160962489Y-92237017D01*
X160951006Y-92233940D01*
X160822475Y-92199500D01*
X160677525Y-92199500D01*
X160548993Y-92233940D01*
X160537511Y-92237017D01*
X160411988Y-92309488D01*
X160411982Y-92309493D01*
X160309493Y-92411982D01*
X160309488Y-92411988D01*
X160237017Y-92537511D01*
X160237016Y-92537515D01*
X160199500Y-92677525D01*
X132850499Y-92677525D01*
X132850499Y-92327129D01*
X132850498Y-92327123D01*
X132848602Y-92309488D01*
X132844091Y-92267517D01*
X132835207Y-92243699D01*
X132793797Y-92132671D01*
X132793793Y-92132664D01*
X132707547Y-92017455D01*
X132707544Y-92017452D01*
X132592335Y-91931206D01*
X132592328Y-91931202D01*
X132582469Y-91927525D01*
X149449500Y-91927525D01*
X149449500Y-92072475D01*
X149483537Y-92199500D01*
X149487017Y-92212488D01*
X149559488Y-92338011D01*
X149559490Y-92338013D01*
X149559491Y-92338015D01*
X149661985Y-92440509D01*
X149661986Y-92440510D01*
X149661988Y-92440511D01*
X149787511Y-92512982D01*
X149787512Y-92512982D01*
X149787515Y-92512984D01*
X149927525Y-92550500D01*
X149927528Y-92550500D01*
X150072473Y-92550500D01*
X150072475Y-92550500D01*
X150212485Y-92512984D01*
X150338015Y-92440509D01*
X150440509Y-92338015D01*
X150512984Y-92212485D01*
X150550500Y-92072475D01*
X150550500Y-91927525D01*
X150512984Y-91787515D01*
X150440509Y-91661985D01*
X150338015Y-91559491D01*
X150338013Y-91559490D01*
X150338011Y-91559488D01*
X150212488Y-91487017D01*
X150212489Y-91487017D01*
X150201006Y-91483940D01*
X150072475Y-91449500D01*
X149927525Y-91449500D01*
X149798993Y-91483940D01*
X149787511Y-91487017D01*
X149661988Y-91559488D01*
X149661982Y-91559493D01*
X149559493Y-91661982D01*
X149559488Y-91661988D01*
X149487017Y-91787511D01*
X149487016Y-91787515D01*
X149449500Y-91927525D01*
X132582469Y-91927525D01*
X132457482Y-91880908D01*
X132457483Y-91880908D01*
X132397883Y-91874501D01*
X132397881Y-91874500D01*
X132397873Y-91874500D01*
X132397864Y-91874500D01*
X131602129Y-91874500D01*
X131602123Y-91874501D01*
X131542516Y-91880908D01*
X131407671Y-91931202D01*
X131407664Y-91931206D01*
X131292455Y-92017452D01*
X131292452Y-92017455D01*
X131206206Y-92132664D01*
X131206203Y-92132670D01*
X131189221Y-92178201D01*
X131147349Y-92234135D01*
X131081884Y-92258551D01*
X131013612Y-92243699D01*
X130964206Y-92194293D01*
X130962554Y-92191162D01*
X130940804Y-92148475D01*
X130839032Y-92008397D01*
X130716602Y-91885967D01*
X130576524Y-91784195D01*
X130422257Y-91705591D01*
X130257589Y-91652087D01*
X130257581Y-91652085D01*
X130250000Y-91650884D01*
X130250000Y-92719670D01*
X130230255Y-92699925D01*
X130144745Y-92650556D01*
X130049370Y-92625000D01*
X129950630Y-92625000D01*
X129855255Y-92650556D01*
X129769745Y-92699925D01*
X129750000Y-92719670D01*
X129750000Y-91650884D01*
X129749999Y-91650884D01*
X129742418Y-91652085D01*
X129742410Y-91652087D01*
X129577742Y-91705591D01*
X129423475Y-91784195D01*
X129283397Y-91885967D01*
X129160967Y-92008397D01*
X129059195Y-92148475D01*
X128980591Y-92302742D01*
X128927085Y-92467415D01*
X128900000Y-92638428D01*
X125381500Y-92638428D01*
X125381500Y-90677525D01*
X144199500Y-90677525D01*
X144199500Y-90822475D01*
X144227649Y-90927527D01*
X144237017Y-90962488D01*
X144309488Y-91088011D01*
X144309490Y-91088013D01*
X144309491Y-91088015D01*
X144411985Y-91190509D01*
X144411986Y-91190510D01*
X144411988Y-91190511D01*
X144537511Y-91262982D01*
X144537512Y-91262982D01*
X144537515Y-91262984D01*
X144677525Y-91300500D01*
X144677528Y-91300500D01*
X144822472Y-91300500D01*
X144822475Y-91300500D01*
X144962485Y-91262984D01*
X145088015Y-91190509D01*
X145190509Y-91088015D01*
X145262984Y-90962485D01*
X145272352Y-90927525D01*
X160199500Y-90927525D01*
X160199500Y-91072475D01*
X160231128Y-91190511D01*
X160237017Y-91212488D01*
X160309488Y-91338011D01*
X160309490Y-91338013D01*
X160309491Y-91338015D01*
X160411985Y-91440509D01*
X160411986Y-91440510D01*
X160411988Y-91440511D01*
X160537511Y-91512982D01*
X160537512Y-91512982D01*
X160537515Y-91512984D01*
X160677525Y-91550500D01*
X160677528Y-91550500D01*
X160822472Y-91550500D01*
X160822475Y-91550500D01*
X160962485Y-91512984D01*
X161088015Y-91440509D01*
X161190509Y-91338015D01*
X161262984Y-91212485D01*
X161300500Y-91072475D01*
X161300500Y-90927525D01*
X161262984Y-90787515D01*
X161190509Y-90661985D01*
X161088015Y-90559491D01*
X161088013Y-90559490D01*
X161088011Y-90559488D01*
X160962488Y-90487017D01*
X160962489Y-90487017D01*
X160945392Y-90482436D01*
X160822475Y-90449500D01*
X160677525Y-90449500D01*
X160554608Y-90482436D01*
X160537511Y-90487017D01*
X160411988Y-90559488D01*
X160411982Y-90559493D01*
X160309493Y-90661982D01*
X160309488Y-90661988D01*
X160237017Y-90787511D01*
X160237016Y-90787515D01*
X160199500Y-90927525D01*
X145272352Y-90927525D01*
X145300500Y-90822475D01*
X145300500Y-90677525D01*
X145282445Y-90610144D01*
X145284108Y-90540299D01*
X145323270Y-90482436D01*
X145387498Y-90454931D01*
X145456400Y-90466517D01*
X145464209Y-90470660D01*
X145537515Y-90512984D01*
X145677525Y-90550500D01*
X145677528Y-90550500D01*
X145822472Y-90550500D01*
X145822475Y-90550500D01*
X145962485Y-90512984D01*
X146088015Y-90440509D01*
X146190509Y-90338015D01*
X146262984Y-90212485D01*
X146300500Y-90072475D01*
X146300500Y-89927525D01*
X146282445Y-89860144D01*
X146284108Y-89790299D01*
X146323270Y-89732436D01*
X146387498Y-89704931D01*
X146456400Y-89716517D01*
X146464209Y-89720660D01*
X146537515Y-89762984D01*
X146677525Y-89800500D01*
X146677528Y-89800500D01*
X146822472Y-89800500D01*
X146822475Y-89800500D01*
X146962485Y-89762984D01*
X147088015Y-89690509D01*
X147190509Y-89588015D01*
X147262984Y-89462485D01*
X147300500Y-89322475D01*
X147300500Y-89177525D01*
X147262984Y-89037515D01*
X147199481Y-88927525D01*
X150449500Y-88927525D01*
X150449500Y-89072475D01*
X150477649Y-89177527D01*
X150487017Y-89212488D01*
X150559488Y-89338011D01*
X150559490Y-89338013D01*
X150559491Y-89338015D01*
X150661985Y-89440509D01*
X150661986Y-89440510D01*
X150661988Y-89440511D01*
X150787511Y-89512982D01*
X150787512Y-89512982D01*
X150787515Y-89512984D01*
X150927525Y-89550500D01*
X150927528Y-89550500D01*
X151072472Y-89550500D01*
X151072475Y-89550500D01*
X151212485Y-89512984D01*
X151338015Y-89440509D01*
X151440509Y-89338015D01*
X151512984Y-89212485D01*
X151550500Y-89072475D01*
X151550500Y-88927525D01*
X151512984Y-88787515D01*
X151483828Y-88737016D01*
X151440511Y-88661988D01*
X151440506Y-88661982D01*
X151338017Y-88559493D01*
X151338011Y-88559488D01*
X151212488Y-88487017D01*
X151212489Y-88487017D01*
X151201006Y-88483940D01*
X151072475Y-88449500D01*
X150927525Y-88449500D01*
X150798993Y-88483940D01*
X150787511Y-88487017D01*
X150661988Y-88559488D01*
X150661982Y-88559493D01*
X150559493Y-88661982D01*
X150559488Y-88661988D01*
X150487017Y-88787511D01*
X150487016Y-88787515D01*
X150449500Y-88927525D01*
X147199481Y-88927525D01*
X147190509Y-88911985D01*
X147088015Y-88809491D01*
X147088013Y-88809490D01*
X147088011Y-88809488D01*
X146962488Y-88737017D01*
X146962489Y-88737017D01*
X146951006Y-88733940D01*
X146822475Y-88699500D01*
X146677525Y-88699500D01*
X146548993Y-88733940D01*
X146537511Y-88737017D01*
X146411988Y-88809488D01*
X146411982Y-88809493D01*
X146309493Y-88911982D01*
X146309488Y-88911988D01*
X146237017Y-89037511D01*
X146237016Y-89037515D01*
X146199500Y-89177525D01*
X146199500Y-89322475D01*
X146203665Y-89338017D01*
X146217554Y-89389851D01*
X146215891Y-89459701D01*
X146176729Y-89517564D01*
X146112500Y-89545068D01*
X146043598Y-89533482D01*
X146035779Y-89529332D01*
X145962488Y-89487017D01*
X145962489Y-89487017D01*
X145951006Y-89483940D01*
X145822475Y-89449500D01*
X145677525Y-89449500D01*
X145548993Y-89483940D01*
X145537511Y-89487017D01*
X145411988Y-89559488D01*
X145411982Y-89559493D01*
X145309493Y-89661982D01*
X145309488Y-89661988D01*
X145237017Y-89787511D01*
X145237016Y-89787515D01*
X145199500Y-89927525D01*
X145199500Y-90072475D01*
X145217554Y-90139851D01*
X145215891Y-90209701D01*
X145176729Y-90267564D01*
X145112500Y-90295068D01*
X145043598Y-90283482D01*
X145035779Y-90279332D01*
X144962488Y-90237017D01*
X144962489Y-90237017D01*
X144951006Y-90233940D01*
X144822475Y-90199500D01*
X144677525Y-90199500D01*
X144548993Y-90233940D01*
X144537511Y-90237017D01*
X144411988Y-90309488D01*
X144411982Y-90309493D01*
X144309493Y-90411982D01*
X144309488Y-90411988D01*
X144237017Y-90537511D01*
X144237016Y-90537515D01*
X144199500Y-90677525D01*
X125381500Y-90677525D01*
X125381500Y-89927525D01*
X136699500Y-89927525D01*
X136699500Y-90072475D01*
X136717554Y-90139851D01*
X136737017Y-90212488D01*
X136809488Y-90338011D01*
X136809490Y-90338013D01*
X136809491Y-90338015D01*
X136911985Y-90440509D01*
X136911986Y-90440510D01*
X136911988Y-90440511D01*
X137037511Y-90512982D01*
X137037512Y-90512982D01*
X137037515Y-90512984D01*
X137177525Y-90550500D01*
X137177528Y-90550500D01*
X137322472Y-90550500D01*
X137322475Y-90550500D01*
X137462485Y-90512984D01*
X137588015Y-90440509D01*
X137690509Y-90338015D01*
X137762984Y-90212485D01*
X137800500Y-90072475D01*
X137800500Y-89927525D01*
X140699500Y-89927525D01*
X140699500Y-90072475D01*
X140717554Y-90139851D01*
X140737017Y-90212488D01*
X140809488Y-90338011D01*
X140809490Y-90338013D01*
X140809491Y-90338015D01*
X140911985Y-90440509D01*
X140911986Y-90440510D01*
X140911988Y-90440511D01*
X141037511Y-90512982D01*
X141037512Y-90512982D01*
X141037515Y-90512984D01*
X141177525Y-90550500D01*
X141177528Y-90550500D01*
X141322473Y-90550500D01*
X141322475Y-90550500D01*
X141462485Y-90512984D01*
X141588015Y-90440509D01*
X141690509Y-90338015D01*
X141762984Y-90212485D01*
X141800500Y-90072475D01*
X141800500Y-89927525D01*
X141762984Y-89787515D01*
X141706977Y-89690509D01*
X141690511Y-89661988D01*
X141690506Y-89661982D01*
X141588017Y-89559493D01*
X141588011Y-89559488D01*
X141462488Y-89487017D01*
X141462489Y-89487017D01*
X141451006Y-89483940D01*
X141322475Y-89449500D01*
X141177525Y-89449500D01*
X141048993Y-89483940D01*
X141037511Y-89487017D01*
X140911988Y-89559488D01*
X140911982Y-89559493D01*
X140809493Y-89661982D01*
X140809488Y-89661988D01*
X140737017Y-89787511D01*
X140737016Y-89787515D01*
X140699500Y-89927525D01*
X137800500Y-89927525D01*
X137762984Y-89787515D01*
X137706977Y-89690509D01*
X137690511Y-89661988D01*
X137690506Y-89661982D01*
X137588017Y-89559493D01*
X137588011Y-89559488D01*
X137462488Y-89487017D01*
X137462489Y-89487017D01*
X137451006Y-89483940D01*
X137322475Y-89449500D01*
X137177525Y-89449500D01*
X137048993Y-89483940D01*
X137037511Y-89487017D01*
X136911988Y-89559488D01*
X136911982Y-89559493D01*
X136809493Y-89661982D01*
X136809488Y-89661988D01*
X136737017Y-89787511D01*
X136737016Y-89787515D01*
X136699500Y-89927525D01*
X125381500Y-89927525D01*
X125381500Y-88033707D01*
X167815500Y-88033707D01*
X167815500Y-88186293D01*
X167854992Y-88333678D01*
X167854993Y-88333681D01*
X167931282Y-88465817D01*
X167931284Y-88465819D01*
X167931285Y-88465821D01*
X168039179Y-88573715D01*
X168039180Y-88573716D01*
X168039182Y-88573717D01*
X168171318Y-88650006D01*
X168171319Y-88650006D01*
X168171322Y-88650008D01*
X168318707Y-88689500D01*
X168318710Y-88689500D01*
X168471290Y-88689500D01*
X168471293Y-88689500D01*
X168618678Y-88650008D01*
X168750821Y-88573715D01*
X168858715Y-88465821D01*
X168935008Y-88333678D01*
X168974500Y-88186293D01*
X168974500Y-88033707D01*
X168935008Y-87886322D01*
X168858715Y-87754179D01*
X168750821Y-87646285D01*
X168750819Y-87646284D01*
X168750817Y-87646282D01*
X168618681Y-87569993D01*
X168618682Y-87569993D01*
X168606595Y-87566754D01*
X168471293Y-87530500D01*
X168318707Y-87530500D01*
X168183404Y-87566754D01*
X168171318Y-87569993D01*
X168039182Y-87646282D01*
X168039176Y-87646287D01*
X167931287Y-87754176D01*
X167931282Y-87754182D01*
X167854993Y-87886318D01*
X167854992Y-87886322D01*
X167815500Y-88033707D01*
X125381500Y-88033707D01*
X125381500Y-86427525D01*
X135699500Y-86427525D01*
X135699500Y-86572475D01*
X135737016Y-86712485D01*
X135737017Y-86712488D01*
X135809488Y-86838011D01*
X135809490Y-86838013D01*
X135809491Y-86838015D01*
X135911985Y-86940509D01*
X135911986Y-86940510D01*
X135911988Y-86940511D01*
X136037511Y-87012982D01*
X136037512Y-87012982D01*
X136037515Y-87012984D01*
X136177525Y-87050500D01*
X136177528Y-87050500D01*
X136322472Y-87050500D01*
X136322475Y-87050500D01*
X136462485Y-87012984D01*
X136588015Y-86940509D01*
X136690509Y-86838015D01*
X136762984Y-86712485D01*
X136800500Y-86572475D01*
X136800500Y-86427525D01*
X136762984Y-86287515D01*
X136690509Y-86161985D01*
X136588015Y-86059491D01*
X136588013Y-86059490D01*
X136588011Y-86059488D01*
X136462488Y-85987017D01*
X136462489Y-85987017D01*
X136451006Y-85983940D01*
X136322475Y-85949500D01*
X136177525Y-85949500D01*
X136048993Y-85983940D01*
X136037511Y-85987017D01*
X135911988Y-86059488D01*
X135911982Y-86059493D01*
X135809493Y-86161982D01*
X135809488Y-86161988D01*
X135737017Y-86287511D01*
X135737016Y-86287515D01*
X135699500Y-86427525D01*
X125381500Y-86427525D01*
X125381500Y-84927525D01*
X135699500Y-84927525D01*
X135699500Y-85072475D01*
X135737016Y-85212485D01*
X135737017Y-85212488D01*
X135809488Y-85338011D01*
X135809490Y-85338013D01*
X135809491Y-85338015D01*
X135911985Y-85440509D01*
X135911986Y-85440510D01*
X135911988Y-85440511D01*
X136037511Y-85512982D01*
X136037512Y-85512982D01*
X136037515Y-85512984D01*
X136177525Y-85550500D01*
X136177528Y-85550500D01*
X136322472Y-85550500D01*
X136322475Y-85550500D01*
X136462485Y-85512984D01*
X136588015Y-85440509D01*
X136690509Y-85338015D01*
X136762984Y-85212485D01*
X136800500Y-85072475D01*
X136800500Y-84927525D01*
X136762984Y-84787515D01*
X136690509Y-84661985D01*
X136588015Y-84559491D01*
X136588013Y-84559490D01*
X136588011Y-84559488D01*
X136462488Y-84487017D01*
X136462489Y-84487017D01*
X136451006Y-84483940D01*
X136322475Y-84449500D01*
X136177525Y-84449500D01*
X136048993Y-84483940D01*
X136037511Y-84487017D01*
X135911988Y-84559488D01*
X135911982Y-84559493D01*
X135809493Y-84661982D01*
X135809488Y-84661988D01*
X135737017Y-84787511D01*
X135737016Y-84787515D01*
X135699500Y-84927525D01*
X125381500Y-84927525D01*
X125381500Y-81927525D01*
X135449500Y-81927525D01*
X135449500Y-82072475D01*
X135487016Y-82212485D01*
X135487017Y-82212488D01*
X135559488Y-82338011D01*
X135559490Y-82338013D01*
X135559491Y-82338015D01*
X135661985Y-82440509D01*
X135661986Y-82440510D01*
X135661988Y-82440511D01*
X135787511Y-82512982D01*
X135787512Y-82512982D01*
X135787515Y-82512984D01*
X135927525Y-82550500D01*
X135927528Y-82550500D01*
X136072472Y-82550500D01*
X136072475Y-82550500D01*
X136212485Y-82512984D01*
X136338015Y-82440509D01*
X136440509Y-82338015D01*
X136512984Y-82212485D01*
X136550500Y-82072475D01*
X136550500Y-81927525D01*
X142449500Y-81927525D01*
X142449500Y-82072475D01*
X142487016Y-82212485D01*
X142487017Y-82212488D01*
X142559488Y-82338011D01*
X142559490Y-82338013D01*
X142559491Y-82338015D01*
X142661985Y-82440509D01*
X142661986Y-82440510D01*
X142661988Y-82440511D01*
X142787511Y-82512982D01*
X142787512Y-82512982D01*
X142787515Y-82512984D01*
X142927525Y-82550500D01*
X142927528Y-82550500D01*
X143072472Y-82550500D01*
X143072475Y-82550500D01*
X143212485Y-82512984D01*
X143338015Y-82440509D01*
X143440509Y-82338015D01*
X143512984Y-82212485D01*
X143550500Y-82072475D01*
X143550500Y-81927525D01*
X143949500Y-81927525D01*
X143949500Y-82072475D01*
X143987016Y-82212485D01*
X143987017Y-82212488D01*
X144059488Y-82338011D01*
X144059490Y-82338013D01*
X144059491Y-82338015D01*
X144161985Y-82440509D01*
X144161986Y-82440510D01*
X144161988Y-82440511D01*
X144287511Y-82512982D01*
X144287512Y-82512982D01*
X144287515Y-82512984D01*
X144427525Y-82550500D01*
X144427528Y-82550500D01*
X144572472Y-82550500D01*
X144572475Y-82550500D01*
X144712485Y-82512984D01*
X144838015Y-82440509D01*
X144940509Y-82338015D01*
X145012984Y-82212485D01*
X145050500Y-82072475D01*
X145050500Y-81927525D01*
X145012984Y-81787515D01*
X144940509Y-81661985D01*
X144838015Y-81559491D01*
X144838013Y-81559490D01*
X144838011Y-81559488D01*
X144712488Y-81487017D01*
X144712489Y-81487017D01*
X144701006Y-81483940D01*
X144572475Y-81449500D01*
X144427525Y-81449500D01*
X144298993Y-81483940D01*
X144287511Y-81487017D01*
X144161988Y-81559488D01*
X144161982Y-81559493D01*
X144059493Y-81661982D01*
X144059488Y-81661988D01*
X143987017Y-81787511D01*
X143987016Y-81787515D01*
X143949500Y-81927525D01*
X143550500Y-81927525D01*
X143512984Y-81787515D01*
X143440509Y-81661985D01*
X143338015Y-81559491D01*
X143338013Y-81559490D01*
X143338011Y-81559488D01*
X143212488Y-81487017D01*
X143212489Y-81487017D01*
X143201006Y-81483940D01*
X143072475Y-81449500D01*
X142927525Y-81449500D01*
X142798993Y-81483940D01*
X142787511Y-81487017D01*
X142661988Y-81559488D01*
X142661982Y-81559493D01*
X142559493Y-81661982D01*
X142559488Y-81661988D01*
X142487017Y-81787511D01*
X142487016Y-81787515D01*
X142449500Y-81927525D01*
X136550500Y-81927525D01*
X136512984Y-81787515D01*
X136440509Y-81661985D01*
X136338015Y-81559491D01*
X136338013Y-81559490D01*
X136338011Y-81559488D01*
X136212488Y-81487017D01*
X136212489Y-81487017D01*
X136201006Y-81483940D01*
X136072475Y-81449500D01*
X135927525Y-81449500D01*
X135798993Y-81483940D01*
X135787511Y-81487017D01*
X135661988Y-81559488D01*
X135661982Y-81559493D01*
X135559493Y-81661982D01*
X135559488Y-81661988D01*
X135487017Y-81787511D01*
X135487016Y-81787515D01*
X135449500Y-81927525D01*
X125381500Y-81927525D01*
X125381500Y-80002706D01*
X125381618Y-79997297D01*
X125387013Y-79873723D01*
X128395500Y-79873723D01*
X128395500Y-80126276D01*
X128435009Y-80375722D01*
X128435009Y-80375725D01*
X128513050Y-80615911D01*
X128513051Y-80615914D01*
X128627709Y-80840941D01*
X128776156Y-81045261D01*
X128954739Y-81223844D01*
X129159059Y-81372291D01*
X129269428Y-81428526D01*
X129384085Y-81486948D01*
X129384088Y-81486949D01*
X129607342Y-81559488D01*
X129624279Y-81564991D01*
X129873723Y-81604500D01*
X129873724Y-81604500D01*
X130126276Y-81604500D01*
X130126277Y-81604500D01*
X130375721Y-81564991D01*
X130375724Y-81564990D01*
X130375725Y-81564990D01*
X130615911Y-81486949D01*
X130615914Y-81486948D01*
X130840941Y-81372291D01*
X131045261Y-81223844D01*
X131223844Y-81045261D01*
X131372291Y-80840941D01*
X131486948Y-80615914D01*
X131564991Y-80375721D01*
X131604500Y-80126277D01*
X131604500Y-79873723D01*
X168395500Y-79873723D01*
X168395500Y-80126276D01*
X168435009Y-80375722D01*
X168435009Y-80375725D01*
X168513050Y-80615911D01*
X168513051Y-80615914D01*
X168627709Y-80840941D01*
X168776156Y-81045261D01*
X168954739Y-81223844D01*
X169159059Y-81372291D01*
X169269428Y-81428526D01*
X169384085Y-81486948D01*
X169384088Y-81486949D01*
X169607342Y-81559488D01*
X169624279Y-81564991D01*
X169873723Y-81604500D01*
X169873724Y-81604500D01*
X170126276Y-81604500D01*
X170126277Y-81604500D01*
X170375721Y-81564991D01*
X170375724Y-81564990D01*
X170375725Y-81564990D01*
X170615911Y-81486949D01*
X170615914Y-81486948D01*
X170840941Y-81372291D01*
X171045261Y-81223844D01*
X171223844Y-81045261D01*
X171372291Y-80840941D01*
X171486948Y-80615914D01*
X171564991Y-80375721D01*
X171604500Y-80126277D01*
X171604500Y-79873723D01*
X171564991Y-79624279D01*
X171564990Y-79624275D01*
X171564990Y-79624274D01*
X171486949Y-79384088D01*
X171486948Y-79384085D01*
X171399513Y-79212485D01*
X171372291Y-79159059D01*
X171223844Y-78954739D01*
X171045261Y-78776156D01*
X170840941Y-78627709D01*
X170615914Y-78513051D01*
X170615911Y-78513050D01*
X170375723Y-78435009D01*
X170209425Y-78408669D01*
X170126277Y-78395500D01*
X169873723Y-78395500D01*
X169790575Y-78408669D01*
X169624277Y-78435009D01*
X169624274Y-78435009D01*
X169384088Y-78513050D01*
X169384085Y-78513051D01*
X169159058Y-78627709D01*
X168954736Y-78776158D01*
X168776158Y-78954736D01*
X168627709Y-79159058D01*
X168513051Y-79384085D01*
X168513050Y-79384088D01*
X168435009Y-79624274D01*
X168435009Y-79624277D01*
X168395500Y-79873723D01*
X131604500Y-79873723D01*
X131564991Y-79624279D01*
X131564990Y-79624275D01*
X131564990Y-79624274D01*
X131486949Y-79384088D01*
X131486948Y-79384085D01*
X131399513Y-79212485D01*
X131372291Y-79159059D01*
X131223844Y-78954739D01*
X131196630Y-78927525D01*
X138699500Y-78927525D01*
X138699500Y-79072475D01*
X138737016Y-79212485D01*
X138737017Y-79212488D01*
X138809488Y-79338011D01*
X138809490Y-79338013D01*
X138809491Y-79338015D01*
X138911985Y-79440509D01*
X138911986Y-79440510D01*
X138911988Y-79440511D01*
X139037511Y-79512982D01*
X139037512Y-79512982D01*
X139037515Y-79512984D01*
X139177525Y-79550500D01*
X139177528Y-79550500D01*
X139322472Y-79550500D01*
X139322475Y-79550500D01*
X139462485Y-79512984D01*
X139588015Y-79440509D01*
X139690509Y-79338015D01*
X139762984Y-79212485D01*
X139800500Y-79072475D01*
X139800500Y-78927525D01*
X163199500Y-78927525D01*
X163199500Y-79072475D01*
X163237016Y-79212485D01*
X163237017Y-79212488D01*
X163309488Y-79338011D01*
X163309490Y-79338013D01*
X163309491Y-79338015D01*
X163411985Y-79440509D01*
X163411986Y-79440510D01*
X163411988Y-79440511D01*
X163537511Y-79512982D01*
X163537512Y-79512982D01*
X163537515Y-79512984D01*
X163677525Y-79550500D01*
X163677528Y-79550500D01*
X163822472Y-79550500D01*
X163822475Y-79550500D01*
X163962485Y-79512984D01*
X164088015Y-79440509D01*
X164190509Y-79338015D01*
X164262984Y-79212485D01*
X164300500Y-79072475D01*
X164300500Y-78927525D01*
X164262984Y-78787515D01*
X164190509Y-78661985D01*
X164088015Y-78559491D01*
X164088013Y-78559490D01*
X164088011Y-78559488D01*
X163962488Y-78487017D01*
X163962489Y-78487017D01*
X163951006Y-78483940D01*
X163822475Y-78449500D01*
X163677525Y-78449500D01*
X163548993Y-78483940D01*
X163537511Y-78487017D01*
X163411988Y-78559488D01*
X163411982Y-78559493D01*
X163309493Y-78661982D01*
X163309488Y-78661988D01*
X163237017Y-78787511D01*
X163237016Y-78787515D01*
X163199500Y-78927525D01*
X139800500Y-78927525D01*
X139762984Y-78787515D01*
X139690509Y-78661985D01*
X139588015Y-78559491D01*
X139588013Y-78559490D01*
X139588011Y-78559488D01*
X139462488Y-78487017D01*
X139462489Y-78487017D01*
X139451006Y-78483940D01*
X139322475Y-78449500D01*
X139177525Y-78449500D01*
X139048993Y-78483940D01*
X139037511Y-78487017D01*
X138911988Y-78559488D01*
X138911982Y-78559493D01*
X138809493Y-78661982D01*
X138809488Y-78661988D01*
X138737017Y-78787511D01*
X138737016Y-78787515D01*
X138699500Y-78927525D01*
X131196630Y-78927525D01*
X131045261Y-78776156D01*
X130840941Y-78627709D01*
X130615914Y-78513051D01*
X130615911Y-78513050D01*
X130375723Y-78435009D01*
X130209425Y-78408669D01*
X130126277Y-78395500D01*
X129873723Y-78395500D01*
X129790575Y-78408669D01*
X129624277Y-78435009D01*
X129624274Y-78435009D01*
X129384088Y-78513050D01*
X129384085Y-78513051D01*
X129159058Y-78627709D01*
X128954736Y-78776158D01*
X128776158Y-78954736D01*
X128627709Y-79159058D01*
X128513051Y-79384085D01*
X128513050Y-79384088D01*
X128435009Y-79624274D01*
X128435009Y-79624277D01*
X128395500Y-79873723D01*
X125387013Y-79873723D01*
X125387462Y-79863442D01*
X125391218Y-79777420D01*
X125398839Y-79602854D01*
X125399779Y-79592122D01*
X125450959Y-79203368D01*
X125452832Y-79192738D01*
X125537704Y-78809910D01*
X125540495Y-78799495D01*
X125658406Y-78425529D01*
X125662104Y-78415372D01*
X125812150Y-78053126D01*
X125816709Y-78043349D01*
X125997765Y-77695546D01*
X126003160Y-77686200D01*
X126167954Y-77427525D01*
X138699500Y-77427525D01*
X138699500Y-77572475D01*
X138729970Y-77686189D01*
X138737017Y-77712488D01*
X138809488Y-77838011D01*
X138809490Y-77838013D01*
X138809491Y-77838015D01*
X138911985Y-77940509D01*
X138911986Y-77940510D01*
X138911988Y-77940511D01*
X139037511Y-78012982D01*
X139037512Y-78012982D01*
X139037515Y-78012984D01*
X139177525Y-78050500D01*
X139177528Y-78050500D01*
X139322472Y-78050500D01*
X139322475Y-78050500D01*
X139462485Y-78012984D01*
X139588015Y-77940509D01*
X139690509Y-77838015D01*
X139762984Y-77712485D01*
X139800500Y-77572475D01*
X139800500Y-77427525D01*
X139762984Y-77287515D01*
X139690509Y-77161985D01*
X139588015Y-77059491D01*
X139588013Y-77059490D01*
X139588011Y-77059488D01*
X139462488Y-76987017D01*
X139462489Y-76987017D01*
X139451006Y-76983940D01*
X139322475Y-76949500D01*
X139177525Y-76949500D01*
X139048993Y-76983940D01*
X139037511Y-76987017D01*
X138911988Y-77059488D01*
X138911982Y-77059493D01*
X138809493Y-77161982D01*
X138809488Y-77161988D01*
X138737017Y-77287511D01*
X138737016Y-77287515D01*
X138699500Y-77427525D01*
X126167954Y-77427525D01*
X126213846Y-77355488D01*
X126220045Y-77346637D01*
X126458737Y-77035568D01*
X126465675Y-77027299D01*
X126730580Y-76738206D01*
X126738206Y-76730580D01*
X127027299Y-76465675D01*
X127035556Y-76458746D01*
X127346659Y-76220028D01*
X127355487Y-76213846D01*
X127686200Y-76003160D01*
X127695546Y-75997765D01*
X128043349Y-75816709D01*
X128053126Y-75812150D01*
X128415379Y-75662101D01*
X128425529Y-75658406D01*
X128799495Y-75540495D01*
X128809910Y-75537704D01*
X129192738Y-75452832D01*
X129203368Y-75450959D01*
X129592122Y-75399779D01*
X129602854Y-75398839D01*
X129997297Y-75381617D01*
X130002706Y-75381500D01*
X130054851Y-75381500D01*
X169945149Y-75381500D01*
X169997294Y-75381500D01*
X170002702Y-75381617D01*
G37*
%TD.AperFunction*%
%TD*%
M02*
