M48
; DRILL file KiCad 10.0.6 date 2026-09-19T16:41:30
; FORMAT={-:-/ absolute / metric / decimal}
; #@! TF.CreationDate,2026-09-19T16:41:30-04:00
; #@! TF.GenerationSoftware,Kicad,Pcbnew,10.0.6
; #@! TF.FileFunction,Plated,1,4,PTH
FMAT,2
METRIC
; #@! TA.AperFunction,Plated,PTH,ViaDrill
T1C0.300
; #@! TA.AperFunction,Plated,PTH,ComponentDrill
T2C0.400
; #@! TA.AperFunction,Plated,PTH,ComponentDrill
T3C0.750
; #@! TA.AperFunction,Plated,PTH,ComponentDrill
T4C0.950
; #@! TA.AperFunction,Plated,PTH,ComponentDrill
T5C1.000
; #@! TA.AperFunction,Plated,PTH,ComponentDrill
T6C1.020
%
G90
G05
T1
X128.0Y-86.25
X128.0Y-87.75
X132.0Y-115.5
X132.25Y-103.75
X132.25Y-110.5
X132.25Y-114.5
X132.75Y-94.5
X133.0Y-86.25
X133.0Y-87.75
X133.0Y-98.5
X133.0Y-113.0
X134.005Y-110.024
X134.75Y-103.75
X135.0Y-121.0
X135.25Y-116.5
X136.0Y-77.5
X136.0Y-79.0
X136.0Y-80.5
X136.0Y-82.0
X136.25Y-85.0
X136.25Y-86.5
X137.0Y-116.5
X137.0Y-118.5
X137.0Y-120.0
X137.0Y-122.0
X137.0Y-124.0
X137.0Y-130.0
X137.25Y-90.0
X137.75Y-101.75
X138.0Y-116.5
X138.0Y-118.5
X138.0Y-120.0
X138.0Y-122.0
X138.0Y-124.0
X138.25Y-114.5
X138.5Y-95.75
X139.0Y-101.75
X139.25Y-77.5
X139.25Y-79.0
X139.5Y-114.5
X139.5Y-116.25
X140.0Y-87.5
X140.0Y-88.5
X140.0Y-95.75
X141.25Y-90.0
X141.25Y-125.5
X141.25Y-127.5
X141.25Y-128.75
X141.48Y-110.5
X142.25Y-125.5
X142.25Y-127.5
X142.25Y-128.75
X142.5Y-91.5
X142.5Y-113.0
X142.5Y-114.0
X142.5Y-115.0
X142.5Y-116.0
X142.75Y-97.75
X142.75Y-98.75
X142.75Y-101.25
X142.75Y-102.25
X143.0Y-82.0
X143.25Y-93.5
X143.25Y-94.25
X143.5Y-131.25
X143.75Y-97.75
X143.75Y-98.75
X143.75Y-101.25
X143.75Y-102.25
X144.0Y-91.5
X144.02Y-110.4
X144.5Y-82.0
X144.75Y-90.75
X144.75Y-105.75
X145.05Y-133.05
X145.75Y-90.0
X145.75Y-105.75
X146.0Y-113.0
X146.0Y-114.0
X146.0Y-115.0
X146.0Y-116.0
X146.0Y-129.75
X146.75Y-89.25
X146.75Y-105.75
X147.25Y-97.75
X147.25Y-98.75
X147.25Y-101.25
X147.25Y-102.25
X147.65Y-125.9
X147.65Y-126.85
X147.75Y-108.25
X148.75Y-106.0
X150.0Y-92.0
X150.0Y-109.5
X150.0Y-122.25
X150.0Y-123.5
X150.0Y-125.0
X150.0Y-126.5
X150.0Y-128.0
X150.0Y-129.5
X151.0Y-89.0
X151.0Y-101.75
X152.25Y-97.75
X152.25Y-101.25
X152.25Y-104.0
X153.009Y-100.747
X153.25Y-103.5
X153.75Y-100.25
X154.0Y-123.5
X154.25Y-103.0
X154.5Y-96.5
X155.0Y-123.5
X155.25Y-94.5
X155.25Y-117.0
X156.0Y-127.75
X156.0Y-128.5
X156.0Y-129.25
X156.0Y-130.0
X156.0Y-130.75
X157.0Y-97.5
X157.0Y-132.5
X157.65Y-118.0
X158.0Y-132.5
X160.0Y-85.0
X160.0Y-86.5
X160.75Y-91.0
X160.75Y-92.75
X161.75Y-88.25
X161.75Y-93.75
X163.5Y-91.0
X163.75Y-79.0
X165.75Y-104.5
X165.75Y-105.25
X165.75Y-106.0
X165.75Y-106.75
X166.25Y-87.25
X166.25Y-94.75
X168.0Y-99.5
X168.25Y-104.5
X168.25Y-105.25
X168.25Y-106.0
X168.25Y-106.75
X169.75Y-85.25
X169.75Y-86.5
X169.75Y-95.5
X169.75Y-96.75
T2
X150.0Y-81.25
X150.0Y-82.25
X150.0Y-83.25
X151.0Y-81.25
X151.0Y-82.25
X151.0Y-83.25
X152.0Y-81.25
X152.0Y-82.25
X152.0Y-83.25
T3
X130.0Y-93.0
X130.0Y-100.0
X132.0Y-93.0
X132.0Y-100.0
T4
X130.0Y-106.5
X130.0Y-109.0
X130.0Y-111.5
X130.0Y-118.5
X130.0Y-121.0
X130.0Y-123.5
X160.25Y-118.7
X162.75Y-118.7
X165.25Y-118.7
X167.75Y-118.7
T5
X155.11Y-101.65
X155.11Y-114.35
X157.65Y-101.65
X157.65Y-114.35
X160.19Y-101.65
X160.19Y-114.35
X162.73Y-101.65
X162.73Y-114.35
X165.27Y-101.65
X165.27Y-114.35
X167.81Y-101.65
X167.81Y-114.35
X170.35Y-101.65
X170.35Y-114.35
X172.89Y-101.65
X172.89Y-104.19
X172.89Y-106.73
X172.89Y-114.35
T6
X160.0Y-125.0
X163.0Y-125.0
M30
